<?xml version="1.0" encoding="UTF-8" standalone="no"?>
<!-- Created with Inkscape (http://www.inkscape.org/) -->

<svg
   width="210mm"
   height="95mm"
   viewBox="0 0 210 95"
   version="1.1"
   id="svg35"
   sodipodi:docname="crinklefry.svg"
   inkscape:version="1.2.2 (b0a8486, 2022-12-01)"
   xmlns:inkscape="http://www.inkscape.org/namespaces/inkscape"
   xmlns:sodipodi="http://sodipodi.sourceforge.net/DTD/sodipodi-0.dtd"
   xmlns="http://www.w3.org/2000/svg"
   xmlns:svg="http://www.w3.org/2000/svg">
  <sodipodi:namedview
     id="namedview37"
     pagecolor="#ffffff"
     bordercolor="#000000"
     borderopacity="0.25"
     inkscape:showpageshadow="2"
     inkscape:pageopacity="0.0"
     inkscape:pagecheckerboard="0"
     inkscape:deskcolor="#d1d1d1"
     inkscape:document-units="mm"
     showgrid="false"
     inkscape:zoom="0.914906"
     inkscape:cx="301.12383"
     inkscape:cy="560.71334"
     inkscape:window-width="2560"
     inkscape:window-height="1299"
     inkscape:window-x="0"
     inkscape:window-y="25"
     inkscape:window-maximized="1"
     inkscape:current-layer="layer1" />
  <defs
     id="defs32" />
  <g
     inkscape:label="Layer 1"
     inkscape:groupmode="layer"
     id="layer1">
    <path
       style="fill:#fee7a4;stroke:#000000;stroke-width:0.298066"
       d="m 15.435187,59.209568 14.798207,-9.24922 16.776476,6.50224 12.819986,-9.2595 15.13222,5.50425 14.79821,-10.25747 18.420694,5.25735 14.79823,-10.5044 15.44054,4.7532 16.77641,-9.25949 16.77648,3.75523 15.13222,-8.508456 15.13218,1.759306 4.2648,31.00907 -12.17774,-10.5044 -7.55324,10.5044 -23.68744,-11.00852 -12.48597,13.50857 -20.70725,-9.0023 -15.46619,14.50657 -18.086717,-11.00853 -13.153976,14.50655 -17.752741,-9.24921 -13.487971,12.50033 -18.086713,-10.50439 -13.796271,11.50237 z"
       id="path266" />
    <path
       style="fill:#fee6a0;fill-opacity:1;stroke:#000000;stroke-width:0.298066"
       d="M 16.771158,63.705568 5.5954059,45.196848 24.992379,34.939368 l 7.026943,19.94446 -7.026943,-19.94446 16.754803,7.35676 14.058278,-10.69153 18.80853,8.25853 12.461536,-9.47721 19.339774,8.49179 13.99818,-10.64584 16.78794,7.37132 13.06019,-9.932477 20.31545,4.139867 11.4717,-8.724405 16.78743,3.420933 4.40285,9.434302 v -0.24691"
       id="path268" />
    <path
       style="fill:#fee7a4;stroke:#000000;stroke-width:0.298066"
       d="m 55.924788,31.688268 6.57699,19.01284"
       id="path270" />
    <path
       style="fill:#fdeab3;fill-opacity:1;stroke:#000000;stroke-width:0.298066"
       d="m 17.439123,64.950458 15.132223,-10.24718 16.442461,5.75117 13.796271,-10.25747 14.155915,6.74915 13.796272,-10.00027 19.396985,5.00014 13.48798,-8.75538 17.11042,3.0042 14.46425,-8.00434 19.06297,2.75728 12.8457,-5.76147 16.75075,-0.74075"
       id="path272" />
    <path
       style="fill:#fee7a4;stroke:#000000;stroke-width:0.298066"
       d="m 87.139809,30.937208 3.956448,16.25558"
       id="path276" />
    <path
       style="fill:#fee7a4;stroke:#000000;stroke-width:0.298066"
       d="m 120.02473,28.437158 4.29044,15.01068"
       id="path278" />
    <path
       style="fill:#fee7a4;stroke:#000000;stroke-width:0.298066"
       d="m 150.28918,26.184001 4.93272,12.510617"
       id="path280" />
    <path
       style="fill:#fee7a4;stroke:#000000;stroke-width:0.298066"
       d="m 181.86385,21.183867 6.24297,14.259641"
       id="path282" />
    <path
       style="fill:#fee6a0;fill-opacity:1;stroke:#000000;stroke-width:0.298066"
       d="m 5.5954059,45.193948 -0.642274,18.0046 15.4405031,13.26167 -3.622477,-12.75753 z"
       id="path6704" />
  </g>
</svg>
