<?xml version="1.0" encoding="UTF-8" standalone="no"?>
<!-- Created with Inkscape (http://www.inkscape.org/) -->

<svg
   version="1.1"
   id="svg2"
   width="5333.3335"
   height="5333.3335"
   viewBox="0 0 5333.3335 5333.3335"
   sodipodi:docname="nachoburger.svg"
   inkscape:version="1.2.2 (b0a8486, 2022-12-01)"
   xmlns:inkscape="http://www.inkscape.org/namespaces/inkscape"
   xmlns:sodipodi="http://sodipodi.sourceforge.net/DTD/sodipodi-0.dtd"
   xmlns="http://www.w3.org/2000/svg"
   xmlns:svg="http://www.w3.org/2000/svg">
  <defs
     id="defs6" />
  <sodipodi:namedview
     id="namedview4"
     pagecolor="#ffffff"
     bordercolor="#000000"
     borderopacity="0.25"
     inkscape:showpageshadow="2"
     inkscape:pageopacity="0.0"
     inkscape:pagecheckerboard="0"
     inkscape:deskcolor="#d1d1d1"
     showgrid="false"
     inkscape:zoom="0.19256249"
     inkscape:cx="2230.4447"
     inkscape:cy="2664.0702"
     inkscape:window-width="2560"
     inkscape:window-height="1299"
     inkscape:window-x="0"
     inkscape:window-y="25"
     inkscape:window-maximized="1"
     inkscape:current-layer="g8" />
  <g
     id="g8"
     inkscape:groupmode="layer"
     inkscape:label="ink_ext_XXXXXX"
     transform="matrix(1.3333333,0,0,-1.3333333,0,5333.3333)">
    <g
       id="g10"
       transform="scale(0.1)">
      <path
         d="M 0,0 H 40000 V 40000 H 0 Z"
         style="fill:#ffec5e;fill-opacity:1;fill-rule:nonzero;stroke:none"
         id="path12" />
      <path
         d="m 30003.7,21452.2 c 0,0 2111.3,-2753.5 -3326.4,-6357 -5437.8,-3603.4 -13018.9,-4795.7 -14527.5,-915.2 -1508.6,3880.6 -100.1,2731.6 5696.2,3395.8 5796.2,664.2 9655.5,6691.2 10587.9,6034.2 932.3,-657.1 1569.8,-2157.8 1569.8,-2157.8"
         style="fill:#f9a332;fill-opacity:1;fill-rule:nonzero;stroke:none"
         id="path14" />
      <path
         d="m 16831.1,12282.8 c -1636.4,0 -3024.2,386.1 -3909.8,1240.1 391.8,185 702,372.8 961.2,529.6 295.4,178.8 534.7,323.6 683.3,323.6 15.9,0 30.8,-1.6 44.6,-5.1 75.5,-19 155,-100.8 243,-250 254.7,-431.5 602.4,-667.4 982.7,-667.4 15.3,0 30.6,0.4 46,1.1 402.6,19.5 773.9,311.9 993.3,782.1 130.1,278.8 300,448.2 519.3,517.8 81.3,25.8 172,38.7 271.7,38.7 366.1,0 855,-173.6 1458.7,-518.8 2.3,-1.3 4.4,-2.5 6.7,-3.8 251,-149.1 532.4,-239.5 865,-248.1 27.2,-0.8 54.1,-1.1 80.5,-1.1 920,0 1354.1,420.7 1616.4,674.9 68.3,66.2 171.5,166.2 206.3,169 0.4,0 31,-4.5 100.2,-73.7 -308.7,-361.7 -942.7,-1062.7 -1911.3,-1062.7 -415.5,0 -892.8,129.2 -1432.2,469.5 -236.9,149.5 -479.5,211.9 -698.7,211.9 -626.1,0 -1061.6,-509.6 -628.9,-955.4 177.9,-183.3 535.3,-247 946.2,-247 664.1,0 1467.6,166.5 1877.3,263.6 822.2,200.8 1660.2,467.6 2493.1,793.3 152.4,-67.8 308.2,-103.6 455.3,-103.6 145.8,0 283,35.1 399.9,109 99.8,63 258.9,205.4 299.8,485.9 992.2,456.3 1963.1,993.4 2876.6,1598.7 2122,1406.3 3094.2,2682.9 3491,3717.1 2.1,-162.8 -10.3,-340 -43.2,-530.5 -53.5,-310.1 -157.1,-624.3 -309.3,-941 -528.8,-885.2 -1484.3,-1902.6 -3138.5,-2998.8 -3092.6,-2049.4 -6878.4,-3318.9 -9846.2,-3318.9 m 6796.6,3343 c -9.7,21.8 -19.8,43.9 -30.4,66.4 -34.3,72.6 -65.3,149.1 -93,229.2 4.7,0 9.2,0 13.9,0 1057.5,0 1459.9,523 1947.4,1156.5 172.3,224 350.5,455.5 579,699.5 412.2,440.2 1043.4,467 1653.8,492.9 401.6,17 786.4,33.4 1079,178 -711.3,-706.3 -1647.8,0.6 -2208.1,-886.5 -637.2,-1009 -1203.7,-1717.1 -2407.4,-1858.7 -195.6,-23 -372.8,-48.5 -534.2,-77.3 m 5639.6,3632.5 c 2.9,54.5 3,111.5 0.4,171.1 -21.2,480.3 -23.8,808.1 28.3,957.6 28.2,80.9 64.7,102.3 257.4,186.3 126.9,55.3 289.3,126.1 492.2,252.8 29.3,-89.1 56.4,-189.8 77.7,-301.5 -795.3,-191 -485.3,-385.3 -856,-1266.3"
         style="fill:#cf793a;fill-opacity:1;fill-rule:nonzero;stroke:none"
         id="path16" />
      <path
         d="m 28264.1,23420.4 c -54.9,0 -191.5,-31.4 -490,-241 -347.9,-244.3 -800.4,-647.6 -1324.4,-1114.5 -1919.8,-1710.8 -4821,-4296.2 -8576.5,-4726.5 -1373.2,-157.4 -2497.3,-213.3 -3400.6,-258.3 -1394.4,-69.5 -2315.6,-115.3 -2557.6,-488.7 -231.6,-357.1 15.5,-1187.6 457.6,-2324.8 363.3,-934.6 1118.3,-1589.6 2244,-1947 2914.7,-925.2 7931.3,325.8 11928.7,2974.8 2102.8,1393.5 3340.7,2862.1 3579.8,4247.1 187.4,1085.3 -291.3,1738.9 -311.8,1766.2 -11.6,15.4 -22,33.3 -29.6,51 -8.3,19.6 -624.5,1447.7 -1487.5,2056 -0.3,0.2 -9,5.7 -32.1,5.7 M 16835.3,11534.8 c -876.7,-0.1 -1671.1,109.5 -2363.3,329.3 -1270.4,403.2 -2126.6,1153.3 -2544.9,2229.3 -535.2,1376.5 -759.5,2223.7 -413.2,2758 375.1,578.6 1284.3,623.9 2934.9,706 896.5,44.7 2012.1,100.2 3370,255.8 3605,413.1 6438.2,2937.9 8313,4608.5 1253.7,1117.3 1944.2,1732.8 2439.7,1383.6 920.3,-648.6 1549,-2024.3 1641.3,-2234.6 105.8,-152.1 583,-916.9 386.4,-2092 -258.4,-1545.6 -1533.6,-3087.4 -3789.9,-4582.7 -1963,-1300.8 -4264.5,-2325.1 -6480.7,-2884.1 -1259.8,-317.7 -2436.3,-477.1 -3493.3,-477.1"
         style="fill:#6d184e;fill-opacity:1;fill-rule:nonzero;stroke:none"
         id="path18" />
      <path
         d="m 11151.2,16623.6 c 0,0 -1380.7,212.4 -1504.62,-725.7 -123.9,-938.2 1398.42,-566.5 1380.72,-1292.3 -17.7,-725.7 -35.4,-1681.6 1522.4,-1026.7 1557.7,655 1982.5,1485 2478.2,645.1 495.6,-839.8 1292.2,-698.2 1663.9,98.4 371.8,796.6 1102.5,946.3 2533.9,127.9 765.9,-437.8 1181.5,186 1701.4,809.9 451.7,542 982.2,1084 1889.5,929.7 1951.6,-331.9 2035.7,610.7 3080.1,1725.9 1044.4,1115.2 3239.4,-106.2 3168.6,1504.7 -70.8,1610.8 97.3,1004.5 1066.5,1708.2 969.2,703.6 955.9,2349.9 -942.6,2203.8 -1898.5,-146 -6620.4,-6956.7 -18038,-6708.9"
         style="fill:#48c75a;fill-opacity:1;fill-rule:nonzero;stroke:none"
         id="path20" />
      <path
         d="m 29081.6,20768.3 c 71.6,297.5 413.6,478.6 1123.2,1030.8 125.3,97.6 250.8,259.7 356.1,422.4 -25.8,-337.9 -227.4,-696.1 -548.1,-928.9 -265.9,-193 -462.9,-278.9 -621.3,-347.9 -130.5,-56.8 -231.9,-110.3 -309.9,-176.4"
         style="fill:#b6e9bd;fill-opacity:1;fill-rule:nonzero;stroke:none"
         id="path22" />
      <path
         d="m 24104.6,16402.9 c 625.2,338.9 923,1056.2 1616.2,1849.7 873.7,1000.1 2500.4,360.9 3130.5,919.9 -18.5,-110.4 -56.7,-196.4 -115.3,-260.2 -183.6,-200.2 -606.8,-218.2 -1054.8,-237.2 -659.5,-28 -1407,-59.8 -1932.4,-620.8 -241.8,-258.2 -434.4,-508.5 -604.3,-729.3 -345.6,-449.2 -598.9,-778.6 -1039.9,-922.1"
         style="fill:#b6e9bd;fill-opacity:1;fill-rule:nonzero;stroke:none"
         id="path24" />
      <path
         d="m 11692.9,13562.5 c -109.9,0 -197.9,21.8 -262.1,65.7 -221,150.7 -209.9,606.3 -201,972.5 12,489.6 -453.8,634.5 -793.8,740.2 -449.56,139.8 -628.66,226.9 -588.57,530.4 21.44,162.3 91.01,285.6 212.67,377.2 160.9,121 394.6,171 607.4,187 603.2,-936.9 1525,-1457.7 2602.1,-1457.7 136.5,0 275.7,8.4 416.8,25.3 1334.4,182.5 2676.4,467.3 4015.9,851.5 52.2,-71.2 103.5,-141.8 154.1,-211.6 135.9,-187.1 267.7,-368.7 401,-538.4 -215.4,62.6 -412.5,93.7 -592.4,93.7 -141.4,0 -272.3,-19.2 -392.9,-57.6 -328.7,-104.3 -585.7,-350.8 -763.8,-732.6 -154.7,-331.5 -396.1,-536.6 -645.7,-548.7 -7.1,-0.3 -14.1,-0.4 -21.2,-0.4 -233.7,0 -459.6,164 -639,468 -147.9,250.6 -304.6,389.5 -493.1,436.9 -47.7,12 -95.4,17.6 -143.5,17.6 -261.1,0 -535.2,-165.7 -893.1,-382.3 -309.3,-187.2 -694.2,-420.2 -1201.6,-633.5 -321.1,-135 -583.9,-203.2 -778.2,-203.2 m 11844.2,2760.7 c -44.7,0 -90.8,1.1 -138.6,3.4 -93.1,501.2 -77,1093.1 70.3,1711.5 1741.3,805.4 3366,1750.5 4851.1,2823.4 721,539.1 1141.7,1269 1237.3,2091 12.2,2.6 24.1,5 36.1,7.4 103.8,-615.5 -0.7,-1418.7 -829,-2176.4 -1663.9,-1522.3 -3540.3,-1929.5 -4390,-2796.9 -512,-522.7 -567.6,-1192.9 -530.9,-1643.2 -93.8,-13.3 -195.3,-20.2 -306.3,-20.2"
         style="fill:#539256;fill-opacity:1;fill-rule:nonzero;stroke:none"
         id="path26" />
      <path
         d="m 10837.4,16441.8 c -247.9,0 -571.9,-38.8 -777.3,-193.3 -121.66,-91.6 -191.23,-214.9 -212.67,-377.2 -40.09,-303.5 139.01,-390.6 588.57,-530.4 340,-105.7 805.8,-250.6 793.8,-740.2 -8.9,-366.2 -20,-821.8 201,-972.5 177.9,-121.4 537.6,-73.8 1040.3,137.5 507.4,213.3 892.3,446.3 1201.6,633.5 423.8,256.5 730.2,441.7 1036.6,364.7 188.5,-47.4 345.2,-186.3 493.1,-436.9 184.8,-313.1 419,-477.8 660.2,-467.6 249.6,12.1 491,217.2 645.7,548.7 178.1,381.8 435.1,628.3 763.8,732.6 499.2,158.8 1171.2,-9.7 2054.1,-514.5 532.2,-304.2 819.7,1.9 1323.3,615.7 488.1,595.1 1095.5,1335.8 2201.1,1147.8 1392.1,-237 1712.4,179.5 2293.9,935.3 169.9,220.8 362.5,471.1 604.3,729.3 525.4,561 1272.9,592.8 1932.4,620.8 448,19 871.2,37 1054.8,237.2 95.6,104.2 137.1,267.5 126.9,499.3 -49.9,1134.9 9.4,1306.9 528.6,1533.1 158.4,69 355.4,154.9 621.3,347.9 438.9,318.7 654.8,872.1 502.1,1287.2 -150.2,408.6 -615.4,604.6 -1310.2,550.7 -465.1,-35.7 -1225.9,-599.4 -2189.2,-1313 C 25646.1,20803 23770.7,19413.6 21186.7,18294.3 18136.5,16973 14758,16342.5 11146.8,16421.1 c -8.7,0.2 -17.4,1 -26.1,2.2 -62.3,9.5 -164,18.5 -283.3,18.5 m 853.5,-3283.5 c -194.3,0 -356.4,45.1 -488.4,135.2 -403.1,274.9 -389,852.7 -377.7,1317.1 3.8,157.1 -123.8,223.6 -509.2,343.4 -381.73,118.7 -958.63,298.2 -869.83,970.4 35.96,272.3 161.13,490.6 371.97,648.7 474.06,355.5 1232.86,268.8 1350.06,252.8 8194.1,-174 12833.7,3263 15606.5,5317.1 1094.7,811 1817.9,1346.8 2399.4,1391.5 1248.1,95.6 1619.6,-537.9 1721.5,-814.8 216.5,-588.6 -54.5,-1326.7 -644.4,-1754.9 -301.6,-219 -530.4,-318.7 -697.4,-391.5 -192.7,-84 -229.2,-105.4 -257.4,-186.3 -52.1,-149.5 -49.5,-477.3 -28.3,-957.6 15.1,-344.8 -61.1,-603.5 -233.1,-791 -297.2,-324 -801.9,-345.4 -1336.2,-368.1 -610.4,-25.9 -1241.6,-52.7 -1653.8,-492.9 -228.5,-244 -406.7,-475.5 -579,-699.5 -586.9,-762.8 -1050.5,-1365.3 -2683,-1087.7 -873.7,148.6 -1354.6,-437.9 -1819.9,-1005.2 -460.9,-562 -983.4,-1198.8 -1837.6,-710.5 -768.2,439.2 -1350.4,600.6 -1730.4,480.1 -219.3,-69.6 -389.2,-239 -519.3,-517.8 -219.4,-470.2 -590.7,-762.6 -993.3,-782.1 -398.2,-19.8 -763.7,217.4 -1028.7,666.3 -88,149.2 -167.5,231 -243,250 -142.6,35.7 -400.9,-120.5 -727.9,-318.5 -320.6,-194 -719.6,-435.5 -1254.3,-660.3 -371.3,-156.1 -682,-233.9 -937.3,-233.9"
         style="fill:#6d184e;fill-opacity:1;fill-rule:nonzero;stroke:none"
         id="path28" />
      <path
         d="m 25935.2,26678.3 c -246.2,-98.5 -457.7,-253.8 -631.5,-452.7 -1057.2,-727.9 -3360.1,-2193.4 -6281.8,-3348 -2911.3,-1180.2 -5589.4,-1708.5 -6856.8,-1911.1 -263,24 -523.3,-9.6 -769.5,-108.1 -1123,-449.5 -1526.72,-2079.8 -901.7,-3641.2 625,-1561.4 1866.4,-2169.2 3165.1,-2013.3 2889.9,395.1 5472.8,1227.2 7585.3,2121.8 2146.3,810.1 4590,1990.1 6954.3,3698.1 1047.6,783.3 1526.7,2079.7 901.7,3641.2 -625,1561.4 -2042.1,2462.8 -3165.1,2013.3"
         style="fill:#db2839;fill-opacity:1;fill-rule:nonzero;stroke:none"
         id="path30" />
      <path
         d="m 13261.5,15382.2 c -1159.2,0 -2087.1,680.2 -2579.5,1910.3 -37.5,93.7 -71.3,188 -101.4,282.6 77.2,26.7 156.4,53.2 237.1,78.7 -57.2,-261.2 -66.9,-529.7 79,-751.5 145.2,-220.7 407.6,-346 802.1,-383.1 57.8,-5.4 114.2,-8 169.3,-8 818.9,0 1345.9,574 1737.3,1000.3 239.7,261 466.1,507.6 651.8,507.6 1.4,0 2.8,0 4.1,0 108.5,-2.2 237,-89.9 382,-260.8 513.8,-606.1 1185.8,-935.7 1902.2,-935.6 32.2,0 64.6,0.6 97,2 86.6,3.6 172.3,12.1 256.9,25.3 198.6,-214.5 377,-432.5 543,-648.1 -1271.1,-357.5 -2543.5,-624 -3807.5,-796.9 -126.9,-15.2 -251.4,-22.8 -373.4,-22.8 m 931,2136.3 c -31.5,0 -59.3,-16.7 -85.1,-54.1 -102.3,-148.3 -320.8,-355.6 -550.8,-554.6 -151.4,-131 -106.2,-373.6 80.1,-446.8 333.1,-130.9 688.2,-194.1 1052.5,-194.1 129.1,0 259.4,7.9 390.2,23.6 4,0.6 8,1.1 12,1.7 252.8,34.7 312,373.2 87.3,494 -572.7,307.9 -827.1,730.3 -986.2,730.3 m 9429.7,1039.3 c 243,687.7 650.5,1385.4 1251.7,2008.4 92.4,-7.7 186.2,-12.4 280.4,-12.4 82,0 164.3,3.6 245.7,11.8 -211.1,-242.1 -395.2,-477.6 -550.1,-690 -134.6,-184.5 12.2,-417.6 208,-417.6 37.1,0 76.1,8.4 115.1,27.1 561,268.4 1131,561.9 1705,882.8 -1027.8,-662 -2115.6,-1266.7 -3255.8,-1810.1 m 3093.5,3226.2 c 11.9,42.1 22.3,83.3 31.3,123.5 958.1,502.5 1757.1,783.3 2391.6,947.5 -8.6,-50 -18.6,-99.6 -30,-148.7 -903.5,-54.7 -1709.7,-429.6 -2392.9,-922.3"
         style="fill:#a92142;fill-opacity:1;fill-rule:nonzero;stroke:none"
         id="path32" />
      <path
         d="m 12003.2,20771.4 c -185.9,0 -364.4,-33.8 -532.3,-101.1 -481,-192.5 -830.8,-641.5 -985,-1264.2 -160.2,-646.9 -90.6,-1397.5 196.1,-2113.6 544.2,-1359.5 1620.3,-2047.3 2952.9,-1887.5 2502.4,342.2 5037.1,1051.4 7530.4,2107.2 2.4,1.1 4.9,2.1 7.4,3 2533.4,956.2 4857.3,2191.9 6907.3,3672.8 1072.1,801.7 1376.4,2042.3 832.2,3401.7 -582.5,1455.3 -1884.3,2307.9 -2901.7,1900.5 l -75.3,188.1 75.3,-188.1 c -210.8,-84.3 -397.2,-218.2 -554.3,-397.9 -11.1,-12.7 -23.7,-23.9 -37.6,-33.5 -1109.2,-763.7 -3405.4,-2216.9 -6322.2,-3369.6 -2905.1,-1177.7 -5569.7,-1710.2 -6899.3,-1922.7 -16.7,-2.7 -33.7,-3.2 -50.4,-1.7 -48.3,4.3 -96.1,6.6 -143.5,6.6 m 1266.4,-5793.6 c -1323.2,-0.1 -2412.1,786 -2963.8,2164.1 -317.89,794.3 -393.63,1633 -213.2,2361.6 186.4,752.7 622.4,1300.7 1227.7,1543 262.9,105.2 544.5,146.7 837.2,124 1320.6,212.4 3936.4,738.7 6788.3,1894.9 2863.4,1131.5 5120.1,2555.6 6222.6,3313.1 196.1,218.6 428.6,382.6 691.5,487.9 v 0 c 1224.9,490.2 2762.9,-463.4 3428.5,-2126.1 608.5,-1520.3 246.5,-2970.3 -968.5,-3878.8 -2080.6,-1503 -4434.9,-2755.3 -7000.4,-3723.9 -2525,-1069 -5093.1,-1787.2 -7633.1,-2134.5 -141.1,-16.9 -280.3,-25.3 -416.8,-25.3"
         style="fill:#6d184e;fill-opacity:1;fill-rule:nonzero;stroke:none"
         id="path34" />
      <path
         d="m 10868,19154.9 c 0,0 -1363.03,-548.7 -1699.35,-1486.9 -199.8,-557.3 374.93,-246.4 1249.25,64.5 597.6,212.5 1335.1,425 2060.9,360.3 662.7,-59 916.8,139.7 1101.3,338.4 313.2,337.4 425.7,674.9 1996.5,-249.8 2496,-1469.3 2726.1,-3912.1 4425.4,-3956.3 680.6,-17.8 1071.6,201.6 1336.7,420.9 396.9,328.4 511.7,656.7 893.7,189.7 637.3,-778.8 1845.4,-637.2 1181.6,770.1 -663.8,1407.3 -243.4,4505 2765.9,6222.1 3009.3,1717.1 4620.1,1345.3 4761.7,1593.1 141.7,247.9 -531,1522.4 -2672.9,1557.8 -2141.9,35.4 -7523.2,-5434.4 -17400.7,-5823.9"
         style="fill:#fcaf15;fill-opacity:1;fill-rule:nonzero;stroke:none"
         id="path36" />
      <path
         d="m 20073.7,14426.7 c -21.8,0 -43.9,0.3 -66.4,0.8 -782.5,20.5 -1218.9,621.5 -1823,1453.5 -245,337.5 -516,710.7 -845.1,1084.5 424.2,158.9 798.4,445 1075.2,832.6 261.8,366.4 488.6,506.6 768.7,506.6 271.6,0 593.2,-131.8 1045.2,-317 285.6,-116.9 609.2,-249.5 986.1,-370.9 245.4,-79 486.1,-117.9 716.1,-117.9 408.8,0 783.4,123 1088.4,362.3 -41.5,-78 -78.4,-156.4 -111.1,-234.9 -366.7,-196.4 -727.1,-269.3 -1073.7,-269.3 -499.7,0 -970.4,151.6 -1388.3,303.2 -417.9,151.7 -783.1,303.3 -1071.9,303.3 -160.8,0 -298,-47 -407.4,-167.1 -390.5,-428.8 -775.7,-856.8 -1011,-988.8 699,-951.7 1126,-1752.1 2088.8,-1777.1 23.5,-0.6 46.6,-0.9 69.4,-0.9 649.9,0 1018.4,244.5 1266.7,489 248.3,244.5 376.4,489 545.7,489 85,0 180.3,-61.6 306.3,-215.7 227.3,-277.8 527,-438.2 788.6,-465.9 116,-347.4 96.4,-595.4 -3.6,-752.4 -197.8,29.6 -438.9,159.1 -628.2,390.4 -111.5,136.3 -265.2,294.3 -465.9,305.9 -7.8,0.4 -15.6,0.6 -23.2,0.6 -195.5,0 -338,-137.4 -488.3,-283.1 -245.9,-238.3 -580.2,-560.7 -1338.1,-560.7 M 9349.96,17572.2 c 2.72,8.4 5.82,17.6 9.38,27.5 122.67,342.1 406.05,631.5 699.76,854.7 184.2,3.8 375,18.3 563.9,32.6 116.9,8.9 227.3,17.3 335.6,23.1 10.7,0.6 20.3,0.9 28.9,0.9 27.8,0 45.4,-2.7 55.4,-5.1 9.9,-69.2 -45,-248.5 -90.2,-388.9 -371.1,-103.4 -714.1,-232.5 -1009.49,-343.8 -207.26,-78.1 -454.11,-171.1 -593.25,-201"
         style="fill:#d18126;fill-opacity:1;fill-rule:nonzero;stroke:none"
         id="path38" />
      <path
         d="m 12503.5,18091 c 1084.6,-87.3 1052.3,528.4 1459.7,663.3 -771.2,172.9 -565.5,-574.8 -1459.7,-663.3"
         style="fill:#f8ce36;fill-opacity:1;fill-rule:nonzero;stroke:none"
         id="path40" />
      <path
         d="m 9148.27,17410.8 c 172.22,-266.2 1482.33,610.6 2868.03,688.2 -1133.6,68.9 -2281.33,-511.2 -2868.03,-688.2"
         style="fill:#f8ce36;fill-opacity:1;fill-rule:nonzero;stroke:none"
         id="path42" />
      <path
         d="m 23101,15321.6 c -26.2,0 -52.9,1.5 -80,4.4 -29.1,87 -66.7,180.2 -113.7,279.8 -232,491.9 -315.8,1260.4 0.5,2020.5 27.3,14.6 54.8,30 82.1,46 -112.5,-800.7 -32.2,-1574 240.9,-2153 26.7,-56.6 50.4,-111.6 70.9,-164.7 -61.1,-22.1 -128.9,-33 -200.7,-33"
         style="fill:#fed78a;fill-opacity:1;fill-rule:nonzero;stroke:none"
         id="path44" />
      <path
         d="m 23102,14567.1 c -27.1,0 -55.4,2.2 -84.6,6.5 100,157 119.6,405 3.6,752.4 27.1,-2.9 53.8,-4.4 80,-4.4 71.8,0 139.6,10.9 200.7,33 142,-366.4 138,-643.8 -17.1,-741.8 -48.3,-30.4 -111,-45.7 -182.6,-45.7 m -194.2,3059.2 c 32.7,78.5 69.6,156.9 111.1,234.9 0.4,0.4 0.8,0.7 1.2,1 -11.2,-63.4 -21.3,-126.7 -30.2,-189.9 -27.3,-16 -54.8,-31.4 -82.1,-46"
         style="fill:#e8c093;fill-opacity:1;fill-rule:nonzero;stroke:none"
         id="path46" />
      <path
         d="m 23716.6,19726.9 c -20.1,191.4 -60.7,387.6 -122.4,585.8 -90.5,290.5 -37.9,355.8 -35.6,358.4 23.6,27.2 86.6,37.5 169.9,37.5 159.2,0 392.6,-37.5 567.4,-65.6 25.2,-4 50.8,-8.1 76.9,-12.3 -266.1,-302.3 -481.6,-607.9 -656.2,-903.8"
         style="fill:#d18126;fill-opacity:1;fill-rule:nonzero;stroke:none"
         id="path48" />
      <path
         d="m 14128,18981.5 c 315.2,0 776.5,-169.4 1551.4,-625.6 1236.3,-727.7 1939.7,-1696.5 2504.9,-2474.9 604.1,-832 1040.5,-1433 1823,-1453.5 805,-19.3 1151.6,314.7 1404.5,559.9 156.2,151.4 304,293.9 511.5,282.5 200.7,-11.6 354.4,-169.6 465.9,-305.9 291.4,-356.1 705.8,-470.9 895.4,-351.2 177.6,112.3 157,459.6 -53.8,906.5 -385.8,817.9 -386.9,2023.7 -2.9,3146.9 331.4,969.4 1095.2,2335.5 2851.6,3337.7 2167.3,1236.6 3635.6,1409.3 4341.2,1492.4 122.2,14.4 257,30.2 331.2,47.1 -15.2,69.2 -68.7,207.7 -221.8,385.1 -213.2,247.1 -860.7,824.5 -2264.8,847.7 -651.6,12.7 -1682,-560.2 -3109.4,-1350.6 -3022.6,-1673.3 -7587,-4200.6 -14242.8,-4471.6 -196.8,-85.8 -1278.85,-587.5 -1553.76,-1354.3 -3.56,-9.9 -6.66,-19.1 -9.38,-27.5 139.14,29.9 385.99,122.9 593.25,201 678.49,255.6 1608.09,605.3 2553.59,521.5 642.1,-57.5 814.6,137.4 997.1,343.5 174.9,197.6 341.8,343.3 634.1,343.3 m 5949.3,-4960 c -26.4,0 -53.3,0.3 -80.5,1.1 -982.4,25.5 -1519,764.6 -2140.4,1620.4 -571.4,786.9 -1219,1678.8 -2382.5,2363.8 -632.9,372.5 -1063.5,559.1 -1316.3,570.3 -163.4,6.2 -225,-54.5 -360.4,-207.4 -206.9,-233.8 -490.5,-553.6 -1336.3,-478.6 -853.7,76.2 -1732.9,-255.2 -2374.9,-497 -565.65,-213.1 -877.32,-330.6 -1067.26,-143.7 -158.93,156.4 -70.02,404.5 -40.79,486 362.84,1012.1 1755.35,1582.7 1814.35,1606.5 21.6,8.6 44.5,13.6 67.7,14.5 6579.6,259.4 11105.1,2764.8 14099.6,4422.7 1482.5,820.7 2553.7,1413.3 3312.4,1401.2 1519.4,-25.1 2420.8,-666.4 2757.7,-1258.2 80.5,-141.5 199,-408 87.8,-602.6 -92,-161 -278.3,-182.9 -649.4,-226.6 -679.1,-79.9 -2092.1,-246.2 -4187.8,-1442 -2787.5,-1590.5 -3355.8,-4533.4 -2683,-5959.7 446.4,-946.5 81.3,-1309.7 -96.4,-1421.9 -394.6,-249.3 -1020.7,-57.3 -1425.3,437.2 -122.9,150.2 -175.1,157.8 -175.6,157.9 -34.8,-2.8 -138,-102.8 -206.3,-169 -262.3,-254.2 -696.4,-674.9 -1616.4,-674.9"
         style="fill:#6d184e;fill-opacity:1;fill-rule:nonzero;stroke:none"
         id="path50" />
      <path
         d="m 21575.3,16541.7 c 0,0 -617.8,-1148.9 -1531,-1008.9 -692.8,106.2 464.9,-28.9 765.5,809.8 347.3,969.2 944.3,464.7 765.5,199.1"
         style="fill:#f8ce36;fill-opacity:1;fill-rule:nonzero;stroke:none"
         id="path52" />
      <path
         d="m 11717.7,21234.9 c 0,0 -2442.85,-132.8 -2734.93,-1486.9 -292.06,-1354.2 982.45,-1088.7 1964.93,-1035.6 982.4,53.1 -929.4,-1832.1 770,-1991.4 710.4,-66.6 1184.1,340.1 1570.6,746.8 538,566.1 906.8,1132.3 1509.5,421.5 1035.5,-1221.4 2655.2,-1088.7 3451.8,26.5 796.6,1115.2 1460.4,398.3 3027,-106.2 1566.6,-504.5 2628.7,823.2 2124.2,2442.9 -250.5,804.1 290.9,692 993.9,579.9 713,-113.7 1592.2,-227.4 1979.9,614.9 770,1672.8 -876.2,1964.9 1088.7,2363.2 1964.9,398.3 2814.5,531 2495.9,1606.4 -318.6,1075.4 -1062.1,1872 -3558,809.8 -2495.9,-1062 -4752.9,-5708.7 -14683.5,-4991.8"
         style="fill:#48c75a;fill-opacity:1;fill-rule:nonzero;stroke:none"
         id="path54" />
      <path
         d="m 11325.3,17952.4 c 105.3,324.7 194.8,605 40,806.2 -80.4,104.6 -208.1,157.4 -380,157.4 -15.8,0 -32,-0.4 -48.6,-1.3 -112.7,-6.1 -230.4,-15 -344.3,-23.7 -205.3,-15.6 -421.2,-32 -621.3,-32 -23.09,0 -46.02,0.3 -68.64,0.7 136.64,488.4 390.74,965.1 -63.29,965.1 -12.53,0 -25.63,-0.3 -39.26,-1.1 -193.26,-10.4 -397.73,-29 -599.4,-41.9 104.49,348.6 387.98,601.2 729.29,784 39.04,-199.1 84.3,-396 135.6,-590.4 811.2,-410.7 1685.9,-690.1 2606.9,-846.4 -368.4,-316.2 -752.1,-915.3 -1347,-1176.6 m 4075.5,184.2 c -228.9,0 -460.8,38 -687.6,116.3 -121.1,92.7 -242.6,147.3 -366.5,165 -248.6,139.7 -484.9,332.9 -696.7,582.7 -2.9,3.4 -5.8,6.8 -8.7,10.2 289.1,-22 582,-32.9 877.9,-32.9 903.6,0 1836.7,101.4 2786.1,297.9 -67.2,-70.2 -134.9,-152.6 -203.5,-248.7 -411.8,-576.6 -1043.6,-890.5 -1701,-890.5 m 5381.7,675.7 c -204.8,0 -423.8,34.6 -653.7,108.6 -720.9,232.2 -1250.8,509.4 -1690.3,632.3 712.2,200.8 1429.9,452.4 2147.7,752.4 v 0 c 2.9,1.2 5.9,2.4 8.9,3.7 0.8,0.3 1.7,0.7 2.5,1 2.3,1 4.1,1.7 6.4,2.7 1,0.4 1.9,0.8 2.9,1.2 2.1,0.9 4.4,1.9 6.5,2.8 0.8,0.3 1.5,0.6 2.3,0.9 2.8,1.2 5.8,2.5 8.6,3.6 l 0.3,0.2 c 3.1,1.2 6.3,2.6 9.4,3.9 0.2,0.1 0.3,0.1 0.5,0.2 2.9,1.2 5.6,2.4 8.5,3.6 0.4,0.2 1.2,0.5 1.6,0.7 2.6,1.1 5.3,2.2 7.9,3.3 0.4,0.2 0.9,0.4 1.3,0.6 2.9,1.2 5.9,2.4 8.8,3.7 l 0.3,0.1 c 6.3,2.7 12.5,5.3 18.8,8 0.2,0 0.6,0.2 0.8,0.3 2.9,1.2 5.6,2.4 8.5,3.6 0.4,0.2 0.6,0.2 1,0.4 12.6,5.4 25,10.6 37.6,16 l 0.3,0.2 c 28.5,12.1 56.9,24.3 85.3,36.6 l 0.4,0.2 c 12.5,5.4 25.1,10.9 37.6,16.3 l 0.4,0.2 c 12.5,5.4 24.9,10.8 37.4,16.2 0.4,0.2 0.4,0.2 0.8,0.4 12.4,5.5 24.6,10.8 37.1,16.3 0.3,0.1 0.5,0.2 0.9,0.4 2.7,1.2 5.7,2.5 8.4,3.7 0.4,0.1 0.4,0.1 0.8,0.3 9.1,4 18.5,8.2 27.6,12.2 0.4,0.2 0.8,0.4 1.2,0.6 2.6,1.1 5.3,2.3 7.8,3.4 0.4,0.2 1.1,0.5 1.5,0.7 3.1,1.3 5.7,2.5 8.7,3.8 l 0.1,0.1 c 6.1,2.7 12.3,5.4 18.4,8.1 0.5,0.3 1,0.5 1.6,0.7 2.4,1.1 5,2.3 7.4,3.3 0.6,0.3 1.2,0.5 1.7,0.8 2.4,1.1 5.1,2.2 7.5,3.3 0.5,0.3 1.1,0.5 1.7,0.8 5.9,2.6 11.6,5.2 17.5,7.8 0.8,0.4 1.9,0.9 2.7,1.2 2,0.9 4.2,1.9 6.3,2.8 0.9,0.5 1.7,0.8 2.7,1.2 2.1,1 3.9,1.8 6,2.7 1,0.5 1.9,0.9 2.9,1.3 2.2,1 4.7,2.2 7,3.2 0.5,0.2 1.1,0.5 1.7,0.7 2.8,1.3 5.8,2.6 8.7,3.9 0.7,0.4 1.4,0.7 2.1,1 2.1,0.9 4.3,1.9 6.4,2.8 0.9,0.5 2.3,1.1 3.3,1.5 1.7,0.8 3.4,1.6 5.2,2.4 1.4,0.6 2.5,1.1 3.9,1.7 1.5,0.8 3,1.4 4.6,2.1 1.3,0.6 2.6,1.2 3.9,1.8 1.5,0.7 2.8,1.3 4.3,1.9 2.7,1.3 5.7,2.6 8.4,3.8 1.1,0.5 2.5,1.2 3.6,1.7 1.8,0.8 3.1,1.4 4.9,2.2 1.1,0.5 2.2,1 3.3,1.5 1.8,0.8 3.5,1.6 5.2,2.4 1,0.4 2.1,0.9 3,1.3 2,0.9 3.7,1.7 5.6,2.6 0.2,0 0.4,0.1 0.6,0.2 7.2,3.3 14.4,6.6 21.7,9.9 0.3,0.1 0.6,0.3 0.9,0.4 2.3,1.1 4.8,2.2 7.2,3.3 l 0.2,0.1 c 390.1,178 769.6,366.6 1137.7,565.4 285.3,-1277.4 -410.2,-2317.2 -1533.2,-2317.2 m 3234.4,3053 c -139.8,0 -281.7,11.4 -421.5,28.2 669.2,440.8 1287.6,919.6 1846.8,1433.1 -18.2,-218.1 -78.7,-471.3 -215.3,-768 -254,-551.8 -719,-693.3 -1210,-693.3 m 2984.9,3196.1 c 304.1,417.8 573.2,851.8 803.8,1300.4 -14.9,32.2 -30.1,64.6 -45.3,96.6 218.3,43.8 418.7,65.7 600.8,65.7 172.5,0 328.6,-19.7 468,-59.1 232.6,-887.5 -387.6,-1103.8 -1827.3,-1403.6"
         style="fill:#539256;fill-opacity:1;fill-rule:nonzero;stroke:none"
         id="path56" />
      <path
         d="m 16545.7,17227.8 c -6.5,0 -13,0.1 -19.6,0.1 359,157.5 680.7,413.6 927.7,759.4 327.9,459 634.7,624.8 984.5,624.8 76.5,0 155.2,-7.9 236.5,-22.5 -198.3,-103.2 -392.9,-280.1 -590.1,-556.1 -347.8,-486.9 -879.6,-779.9 -1459.1,-804 -26.7,-1.1 -53.3,-1.7 -79.9,-1.7"
         style="fill:#a4e3ad;fill-opacity:1;fill-rule:nonzero;stroke:none"
         id="path58" />
      <path
         d="m 22055,17907.2 c 789.1,364 1092.3,1359.9 857.4,2556.2 -93.1,474.3 113.4,592.4 464.1,592.4 12.7,0 25.5,-0.1 38.5,-0.4 -62.2,-27.4 -116.8,-66.1 -162.6,-119 -182.6,-210.6 -113.2,-525.6 -45.1,-744.2 233.5,-749.5 108.5,-1482.5 -326.2,-1913 -224,-221.9 -506.2,-347.1 -826.1,-372 m 3114.4,3052 c -44,0 -89,1.2 -134.8,3.4 417.1,61.9 796.7,261.8 1029.2,766.9 816,1772.7 -928.5,2082.2 1153.7,2504.3 1429.7,289.8 2301.8,447.1 2598.8,886.1 20.9,-182 -18.8,-279.6 -55.9,-341.2 -203.7,-338.6 -976.4,-494.7 -2146.2,-731 L 27423,24009 c -667.3,-135.3 -965.1,-264.6 -1098.6,-477.3 -122.9,-195.7 -70.5,-401.5 -15.1,-619.4 82,-322 184,-722.7 -118.7,-1380.3 -203.3,-441.6 -561,-572.8 -1021.2,-572.8"
         style="fill:#a4e3ad;fill-opacity:1;fill-rule:nonzero;stroke:none"
         id="path60" />
      <path
         d="m 10985.3,18916 c 171.9,0 299.6,-52.8 380,-157.4 155.9,-202.6 64.1,-485.5 -42.2,-813.1 -97.2,-299.4 -207.4,-638.9 -87.9,-820.6 72.3,-109.8 240.9,-177.8 501.4,-202.2 716.3,-67 1170.1,426.9 1570.4,862.9 305,332.2 592.2,647.8 962.4,638.6 233,-4.6 456.4,-136.7 682.9,-403.9 454.4,-535.9 1048.7,-817 1673.3,-790.8 579.5,24.1 1111.3,317.1 1459.1,804 702,982.8 1371.1,708.5 2297.2,329.2 278.8,-114.2 594.7,-243.6 956.8,-360.3 614.6,-197.8 1162.4,-99.6 1542.4,276.8 434.7,430.5 559.7,1163.5 326.2,1913 -68.1,218.6 -137.5,533.6 45.1,744.2 216.5,249.7 629.5,183.5 1107.7,106.7 847,-136 1519.6,-186.5 1830.5,488.9 302.7,657.6 200.7,1058.3 118.7,1380.3 -55.4,217.9 -107.8,423.7 15.1,619.4 133.5,212.7 431.3,342 1098.6,477.3 l 191.2,38.7 c 1169.8,236.3 1942.5,392.4 2146.2,731 50.8,84.4 106.6,236.4 4.6,580.6 -160.6,542 -398.5,871.3 -748.8,1036.3 -535.7,252.4 -1388.9,132.8 -2535.7,-355.3 -591.4,-251.6 -1188.3,-728.8 -1879.4,-1281.4 -1078.8,-862.4 -2421.5,-1935.8 -4435.8,-2719.8 -2355.1,-916.6 -5118.9,-1246 -8448.4,-1007.3 -178.5,-12.4 -2289.73,-184.3 -2536.1,-1326.6 -66.65,-309 -45.36,-528.9 63.31,-653.5 214.99,-246.7 817.09,-201 1348.29,-160.7 113.9,8.7 231.6,17.6 344.3,23.7 16.6,0.9 32.8,1.3 48.6,1.3 m 882.8,-2404.8 c -55.1,0 -111.5,2.6 -169.3,8 -394.5,37.1 -656.9,162.4 -802.1,383.1 -226.4,344.2 -78.2,801.1 41,1168.3 46.8,144.3 116.2,358.2 105.2,435.3 -13.2,3.1 -39.1,6.8 -84.3,4.2 -108.3,-5.8 -218.7,-14.2 -335.6,-23.1 -656.65,-49.7 -1335.8,-101.3 -1684.27,298.4 -200.02,229.4 -250.39,558.3 -153.98,1005.3 320.98,1488.2 2815.95,1640.7 2921.95,1646.5 8.5,0.4 17.1,0.3 25.6,-0.3 7397,-533.6 10413.2,1877.7 12615.8,3638.5 714.3,571.1 1331.3,1064.4 1973.8,1337.8 1275.4,542.7 2213.2,656.9 2867,348.9 462.3,-217.8 768.8,-626.9 964.6,-1287.7 110.6,-373.5 95.6,-669.4 -45.9,-904.6 -295.8,-491.5 -1092.7,-652.5 -2413.1,-919.3 l -191,-38.6 c -494.5,-100.2 -775.7,-199.7 -836,-295.7 -29.1,-46.2 -5.8,-145.6 34.5,-304 87.3,-343.1 219.3,-861.7 -143.3,-1649.6 -464.3,-1008.4 -1546.6,-834.6 -2262.8,-719.6 -266.2,42.7 -668.5,107.5 -737.3,28.1 -2.3,-2.6 -54.9,-67.9 35.6,-358.4 282.8,-908.1 122.8,-1775.8 -428,-2321.4 -485.6,-481.1 -1197,-617.5 -1951.8,-374.5 -376.9,121.4 -700.5,254 -986.1,370.9 -918.3,376.3 -1298.4,532 -1813.9,-189.6 -420.9,-589.4 -1066.8,-944.1 -1771.9,-973.4 -752.6,-31.1 -1462.3,300.3 -1999.2,933.6 -145,170.9 -273.5,258.6 -382,260.8 -1.3,0 -2.7,0 -4.1,0 -185.7,0 -412.1,-246.6 -651.8,-507.6 -391.4,-426.3 -918.4,-1000.3 -1737.3,-1000.3"
         style="fill:#6d184e;fill-opacity:1;fill-rule:nonzero;stroke:none"
         id="path62" />
      <path
         d="m 20586.2,20305.6 c 3276,1368.9 5887.7,3465.4 7219.4,6056.2 -1479.9,3199.3 -4693.6,5432.6 -8436,5492.8 -5199.2,83.7 -9524.68,-4093 -9615.34,-9292.1 -15.61,-895.7 93.88,-1763.3 311.14,-2587.1 2946.8,-1491.7 6734.2,-1252.1 10520.8,330.2"
         style="fill:#f9a332;fill-opacity:1;fill-rule:nonzero;stroke:none"
         id="path64" />
      <path
         d="m 20658.2,31746.4 h -0.1 0.1 m -5,0.7 v 0 0 m -4.7,0.8 c -0.2,0 -0.3,0 -0.5,0 0.2,0 0.3,0 0.5,0 m -5.1,0.7 c -0.2,0.1 -0.1,0.1 -0.3,0.1 l 0.3,-0.1 m -4.8,0.8 c -0.2,0 -0.4,0 -0.6,0.1 0.2,-0.1 0.4,-0.1 0.6,-0.1 m -5.1,0.7 -0.3,0.1 0.3,-0.1 m -5.1,0.8 v 0 0 m -9.8,1.5 c -0.3,0 -0.2,0 -0.5,0 0.3,0 0.3,0 0.5,0 m -24.5,3.6 c -0.2,0 -0.3,0 -0.5,0 0.2,0 0.3,0 0.5,0 m -4.3,0.6 c -0.5,0.1 -0.9,0.1 -1.3,0.2 0.4,-0.1 0.8,-0.1 1.3,-0.2 m -4.9,0.7 c -0.5,0.1 -1.1,0.2 -1.5,0.2 0.6,-0.1 0.8,-0.1 1.5,-0.2 m -4.5,0.7 c -0.9,0.1 -1.6,0.2 -2.5,0.3 0.8,-0.1 1.7,-0.2 2.5,-0.3 m -4.9,0.7 c -0.9,0.1 -1.7,0.2 -2.6,0.4 1,-0.2 1.5,-0.3 2.6,-0.4 m -5.3,0.7 c -0.9,0.2 -1.5,0.3 -2.4,0.4 0.8,-0.1 1.5,-0.2 2.4,-0.4 m -5.2,0.8 c -0.9,0.1 -1.4,0.2 -2.3,0.3 0.8,-0.1 1.4,-0.2 2.3,-0.3 m -4.9,0.7 c -0.9,0.1 -2,0.3 -2.9,0.4 1,-0.2 1.8,-0.3 2.9,-0.4 m -5.2,0.7 c -0.8,0.1 -1.8,0.3 -2.7,0.4 1.1,-0.1 1.7,-0.2 2.7,-0.4 m -5.2,0.8 c -0.8,0.1 -1.6,0.2 -2.5,0.3 0.8,-0.1 1.7,-0.2 2.5,-0.3 m -5.2,0.7 c -0.9,0.1 -1.5,0.2 -2.3,0.3 0.8,-0.1 1.5,-0.2 2.3,-0.3 m -5,0.7 c -1.1,0.1 -2.2,0.3 -3.3,0.5 1.2,-0.2 2,-0.3 3.3,-0.5 m -5.1,0.7 c -1.5,0.2 -2.6,0.4 -4.2,0.6 1.5,-0.2 2.8,-0.4 4.2,-0.6 m -5.1,0.7 c -1.8,0.3 -3.2,0.5 -5,0.7 1.6,-0.2 3.3,-0.5 5,-0.7 m -6.1,0.9 c -1.5,0.2 -2.8,0.3 -4.3,0.5 1.4,-0.2 2.9,-0.3 4.3,-0.5 m -5.6,0.7 c -1.3,0.2 -2.5,0.4 -3.9,0.6 1.5,-0.2 2.5,-0.4 3.9,-0.6 m -5.5,0.8 c -1.1,0.1 -2.4,0.3 -3.5,0.5 1.2,-0.2 2.3,-0.3 3.5,-0.5 m -5.6,0.8 c -1.1,0.1 -1.9,0.2 -3,0.4 1,-0.2 2,-0.3 3,-0.4 m -5.1,0.7 c -1.1,0.1 -2.1,0.2 -3.2,0.4 1.1,-0.2 2.1,-0.3 3.2,-0.4 m -5,0.6 c -1.1,0.2 -2.5,0.4 -3.6,0.5 1,-0.1 2.6,-0.3 3.6,-0.5 m -4.9,0.7 c -1.3,0.2 -2.6,0.3 -3.9,0.5 1.4,-0.2 2.5,-0.3 3.9,-0.5 m -5.4,0.7 c -1.3,0.2 -2.3,0.3 -3.7,0.5 1.3,-0.2 2.5,-0.3 3.7,-0.5 m -5.1,0.7 c -1.4,0.2 -2.5,0.3 -3.8,0.5 1.3,-0.2 2.5,-0.3 3.8,-0.5 m -5.3,0.7 c -1.3,0.2 -2.7,0.4 -4,0.6 1.2,-0.2 2.8,-0.4 4,-0.6 m -5,0.7 c -1.5,0.2 -2.7,0.3 -4.3,0.5 1.5,-0.1 2.9,-0.3 4.3,-0.5 m -5.3,0.7 c -1.8,0.2 -3.2,0.4 -4.9,0.6 1.6,-0.2 3.2,-0.4 4.9,-0.6 m -5,0.6 c -1.8,0.3 -3.5,0.5 -5.3,0.7 1.9,-0.2 3.4,-0.4 5.3,-0.7 m -5.3,0.7 c -10.6,1.4 -21.1,2.8 -31.8,4.1 10.6,-1.3 21.2,-2.7 31.8,-4.1 m -32.2,4.2 c -1.8,0.2 -3.1,0.4 -4.9,0.6 1.4,-0.2 3.4,-0.4 4.9,-0.6 m -5.2,0.7 c -1.8,0.2 -3.3,0.4 -5.1,0.6 1.7,-0.2 3.4,-0.4 5.1,-0.6 m -5.2,0.6 c -3.6,0.5 -6.9,0.9 -10.4,1.3 3.5,-0.4 6.8,-0.8 10.4,-1.3 m -10.8,1.4 c -1.7,0.2 -3.3,0.4 -5.1,0.6 1.9,-0.2 3.3,-0.4 5.1,-0.6 m -5.1,0.6 c -1.8,0.2 -3.4,0.4 -5.2,0.7 1.7,-0.2 3.5,-0.5 5.2,-0.7 m -5.4,0.7 c -289.3,35.9 -582.5,58.7 -879.2,67.9 296.7,-9.2 590,-32 879.2,-67.9 m -879.4,67.9 c -1.8,0 -3.5,0.1 -5.3,0.1 1.7,0 3.6,-0.1 5.3,-0.1 m -5.5,0.1 c -1.8,0.1 -3.4,0.2 -5.2,0.2 1.7,0 3.5,-0.1 5.2,-0.2 m -5.4,0.2 c -1.8,0.1 -3.3,0.1 -5.1,0.2 1.5,-0.1 3.6,-0.1 5.1,-0.2 m -5.7,0.2 c -1.4,0 -3.3,0.1 -4.7,0.1 1.5,0 3.2,-0.1 4.7,-0.1 m -5.5,0.1 c -1.4,0.1 -3.3,0.1 -4.6,0.2 1.4,-0.1 3.1,-0.1 4.6,-0.2 m -5.4,0.2 c -1.8,0 -3.1,0.1 -4.9,0.1 1.7,0 3.2,-0.1 4.9,-0.1 m -5.3,0.1 c -1.6,0.1 -3.4,0.1 -5,0.2 1.5,-0.1 3.5,-0.1 5,-0.2 m -5.5,0.2 c -10.9,0.3 -21.6,0.5 -32.5,0.8 10.9,-0.3 21.6,-0.5 32.5,-0.8 m -33.2,0.8 c -1.6,0.1 -3.3,0.1 -4.9,0.1 1.8,0 3.2,0 4.9,-0.1 m -5.2,0.2 c -1.9,0 -3.1,0 -4.9,0.1 1.7,-0.1 3.2,-0.1 4.9,-0.1 m -6,0.1 c -1.4,0 -2.9,0.1 -4.3,0.1 1.5,-0.1 2.8,-0.1 4.3,-0.1 m -5.5,0.1 c -1.4,0 -2.7,0.1 -4.1,0.1 1.3,0 2.8,-0.1 4.1,-0.1 m -5.5,0.1 c -1.3,0.1 -2.6,0.1 -3.9,0.1 1.2,0 2.6,0 3.9,-0.1 m -5.5,0.1 c -1.2,0.1 -2.4,0.1 -3.5,0.1 1.3,0 2.2,0 3.5,-0.1 m -5.6,0.1 c -1.1,0.1 -2.2,0.1 -3.3,0.1 1.1,0 2.3,0 3.3,-0.1 m -5.3,0.2 c -1.1,0 -2.3,0 -3.4,0 1,0 2.3,0 3.4,0 m -5.3,0.1 c -1.1,0 -2.3,0 -3.5,0 1.3,0 2.2,0 3.5,0 m -5.4,0.1 c -1.2,0 -2.1,0 -3.2,0 1.1,0 2.1,0 3.2,0 m -5.4,0.1 c -1.1,0 -2.2,0 -3.3,0 1,0 2.2,0 3.3,0 m -5.3,0 c -1.4,0.1 -2.8,0.1 -4.1,0.1 1.5,0 2.6,0 4.1,-0.1 m -5.3,0.1 c -1.8,0.1 -3.5,0.1 -5.4,0.1 1.7,0 3.7,0 5.4,-0.1 m -5.4,0.1 c -4.7,0.1 -9.6,0.2 -14.3,0.2 4.8,0 9.5,-0.1 14.3,-0.2 m -226.2,1 c 12.4,0.2 24.8,0.3 37.2,0.3 1.4,0 2.8,-0.1 4.2,-0.1 -13.9,0 -27.5,-0.1 -41.4,-0.2"
         style="fill:#fff6af;fill-opacity:1;fill-rule:nonzero;stroke:none"
         id="path66" />
      <path
         d="m 10704.4,26519.3 c 1527.4,3127.9 4730.3,5293.8 8403.6,5335.5 11.8,0.4 23.5,0.6 35.4,0.8 13.9,0.1 27.5,0.2 41.4,0.2 1,0 1.9,0 2.9,0 10.1,0 20.2,0 30.4,0 45.6,0 91.4,-0.3 137.2,-1 4.7,0 9.6,-0.1 14.3,-0.2 v 0 0 c 1.9,0 3.6,0 5.4,-0.1 0.4,0 0.7,0 1.2,0 1.3,0 2.7,0 4.1,-0.1 0.6,0 1.3,0 2,0 1.1,0 2.2,0 3.3,0 0.6,-0.1 1.5,-0.1 2.2,-0.1 1.1,0 2,0 3.2,0 0.6,-0.1 1.3,-0.1 1.9,-0.1 1.2,0 2.4,0 3.5,0 0.7,-0.1 1.2,-0.1 1.9,-0.1 1.1,0 2.3,0 3.4,0 0.7,-0.1 1.4,-0.1 2,-0.1 1.1,0 2.2,0 3.3,-0.1 0.7,0 1.5,0 2.1,0 1.1,0 2.3,0 3.5,-0.1 0.4,0 1.1,0 1.6,0 1.3,0 2.6,0 3.9,-0.1 0.7,0 0.8,0 1.4,0 1.4,0 2.7,-0.1 4.1,-0.1 0.4,0 0.8,0 1.2,0 1.4,0 2.9,-0.1 4.3,-0.1 0.2,0 0.9,0 1.1,0 1.8,-0.1 3,-0.1 4.9,-0.1 l 0.3,-0.1 c 1.6,0 3.3,0 4.9,-0.1 0.2,0 0.4,0 0.7,0 10.9,-0.3 21.6,-0.5 32.5,-0.8 0.2,0 0.3,0 0.5,0 1.6,-0.1 3.4,-0.1 5,-0.2 0.2,0 0.2,0 0.4,0 1.8,0 3.1,-0.1 4.9,-0.1 0.2,0 0.5,0 0.8,0 1.3,-0.1 3.2,-0.1 4.6,-0.2 0.2,0 0.6,0 0.8,0 1.4,0 3.3,-0.1 4.7,-0.1 0.4,0 0.2,0 0.6,0 1.8,-0.1 3.3,-0.1 5.1,-0.2 0.2,0 -0.1,0 0.2,0 1.8,0 3.4,-0.1 5.2,-0.2 h 0.2 c 1.8,0 3.5,-0.1 5.3,-0.1 0.2,0 -0.1,0 0.2,0 296.7,-9.2 589.9,-32 879.2,-67.9 h 0.2 c 1.8,-0.3 3.4,-0.5 5.2,-0.7 v 0 c 1.8,-0.2 3.4,-0.4 5.1,-0.6 l 0.4,-0.1 c 3.5,-0.4 6.8,-0.8 10.4,-1.3 h 0.1 c 1.8,-0.2 3.3,-0.4 5.1,-0.6 0.2,-0.1 0.1,-0.1 0.3,-0.1 1.8,-0.2 3.1,-0.4 4.9,-0.6 0.2,0 0.2,0 0.4,-0.1 10.7,-1.3 21.2,-2.7 31.8,-4.1 v 0 c 1.8,-0.2 3.5,-0.4 5.3,-0.7 h 0.1 c 1.7,-0.2 3.1,-0.4 4.9,-0.6 0.2,0 0.8,-0.1 1,-0.2 1.6,-0.2 2.8,-0.3 4.3,-0.5 0.4,-0.1 0.5,-0.1 1,-0.1 1.3,-0.2 2.7,-0.4 4,-0.6 0.6,-0.1 0.9,-0.1 1.5,-0.2 1.3,-0.2 2.4,-0.3 3.8,-0.5 0.4,0 1,-0.1 1.4,-0.2 1.4,-0.2 2.4,-0.3 3.7,-0.5 0.4,0 1.1,-0.1 1.5,-0.2 1.3,-0.2 2.6,-0.3 3.9,-0.5 0.4,-0.1 0.9,-0.1 1.3,-0.2 1.1,-0.1 2.5,-0.3 3.6,-0.5 0.6,-0.1 1.2,-0.1 1.8,-0.2 1.1,-0.2 2.1,-0.3 3.2,-0.4 0.8,-0.2 1.3,-0.2 2.1,-0.3 1.1,-0.2 1.9,-0.3 3,-0.4 0.7,-0.1 1.5,-0.2 2.1,-0.3 1.1,-0.2 2.4,-0.4 3.5,-0.5 0.4,-0.1 1.2,-0.2 1.6,-0.2 1.4,-0.2 2.6,-0.4 3.9,-0.6 0.4,0 0.9,-0.1 1.3,-0.2 1.5,-0.2 2.8,-0.3 4.3,-0.5 0.3,-0.1 0.9,-0.2 1.1,-0.2 1.8,-0.2 3.2,-0.4 5,-0.7 0.4,0 0.5,-0.1 0.9,-0.1 1.6,-0.2 2.7,-0.4 4.2,-0.6 0.5,-0.1 1.3,-0.2 1.8,-0.2 1.1,-0.2 2.2,-0.4 3.3,-0.5 0.8,-0.1 1.8,-0.3 2.7,-0.4 0.8,-0.1 1.4,-0.2 2.3,-0.3 0.8,-0.1 1.9,-0.3 2.7,-0.4 0.9,-0.1 1.7,-0.2 2.5,-0.3 0.9,-0.2 1.7,-0.3 2.5,-0.4 0.9,-0.1 1.9,-0.3 2.7,-0.4 0.7,-0.1 1.7,-0.2 2.3,-0.3 0.9,-0.1 2,-0.3 2.9,-0.4 0.8,-0.1 1.7,-0.3 2.6,-0.4 0.9,-0.1 1.4,-0.2 2.3,-0.3 0.8,-0.1 2,-0.3 2.8,-0.4 0.9,-0.1 1.5,-0.2 2.4,-0.4 0.8,-0.1 1.9,-0.2 2.7,-0.3 0.9,-0.2 1.7,-0.3 2.6,-0.4 0.8,-0.1 1.6,-0.3 2.4,-0.4 0.9,-0.1 1.6,-0.2 2.5,-0.3 0.8,-0.2 2.1,-0.3 3,-0.5 0.4,0 1,-0.1 1.5,-0.2 1.2,-0.2 2.3,-0.3 3.6,-0.5 0.4,-0.1 0.8,-0.1 1.3,-0.2 1.2,-0.2 2.6,-0.4 3.8,-0.6 0.2,0 0.3,0 0.5,0 7.9,-1.2 16.2,-2.4 24,-3.6 0.3,0 0.2,0 0.5,0 3.3,-0.5 6.5,-1 9.8,-1.5 v 0 c 1.7,-0.3 3.2,-0.5 4.8,-0.7 l 0.3,-0.1 c 1.4,-0.2 3,-0.4 4.5,-0.6 0.2,-0.1 0.4,-0.1 0.6,-0.1 1.6,-0.3 2.8,-0.5 4.5,-0.7 0.2,0 0.1,0 0.3,-0.1 1.7,-0.2 2.9,-0.4 4.6,-0.7 0.2,0 0.3,0 0.5,0 1.5,-0.3 3.2,-0.5 4.7,-0.8 v 0 c 1.7,-0.2 3.3,-0.5 4.9,-0.7 h 0.1 c 2960.2,-453.4 5468.3,-2278.9 6855.6,-4806.8 -1610.6,2249.5 -4116.5,3813.5 -6996.7,4172.9 -60.9,-348 -635.9,-620.9 -1336.5,-620.9 -688.2,0 -1255.1,263.3 -1332.7,602.5 -1698.4,-237 -3268.9,-898 -4597.1,-1873.3 2.4,4.4 4.8,8.8 7.1,13.2 v -0.1 c -13.9,-12.8 -27.7,-25.6 -41.5,-38.5 -988.7,-732.4 -1841.9,-1639.7 -2512,-2676.1"
         style="fill:#fcd199;fill-opacity:1;fill-rule:nonzero;stroke:none"
         id="path68" />
      <path
         d="m 20586.2,20305.6 v 0 c 3,1.2 5.9,2.4 8.9,3.7 -3,-1.3 -6,-2.5 -8.9,-3.7 v 0 m 11.4,4.7 c 2.2,1 4.2,1.8 6.4,2.7 -2.3,-1 -4.1,-1.7 -6.4,-2.7 m 9.3,3.9 c 2,0.9 4.5,1.9 6.5,2.8 -2.1,-0.9 -4.4,-1.9 -6.5,-2.8 m 8.8,3.7 c 3,1.3 5.6,2.4 8.6,3.6 -2.8,-1.1 -5.8,-2.4 -8.6,-3.6 m 8.9,3.8 c 3.2,1.3 6.2,2.6 9.4,3.9 -3.1,-1.3 -6.3,-2.7 -9.4,-3.9 m 9.9,4.1 c 2.8,1.2 5.7,2.4 8.5,3.6 -2.9,-1.2 -5.6,-2.4 -8.5,-3.6 m 10.1,4.3 c 2.8,1.1 5.1,2.1 7.9,3.3 -2.6,-1.1 -5.3,-2.2 -7.9,-3.3 m 9.2,3.9 c 3,1.2 5.8,2.4 8.8,3.7 -2.9,-1.3 -5.9,-2.5 -8.8,-3.7 m 9.1,3.8 c 6.4,2.7 12.4,5.3 18.8,8 -6.3,-2.7 -12.5,-5.3 -18.8,-8 m 19.6,8.3 c 2.8,1.2 5.7,2.4 8.5,3.6 -2.9,-1.2 -5.6,-2.4 -8.5,-3.6 m 9.5,4 c 12.5,5.3 25,10.7 37.6,16 -12.6,-5.4 -25,-10.6 -37.6,-16 m 37.9,16.2 c 28.6,12.2 56.8,24.3 85.3,36.6 -28.4,-12.3 -56.8,-24.5 -85.3,-36.6 m 85.7,36.8 c 12.7,5.5 25,10.8 37.6,16.3 -12.5,-5.4 -25.1,-10.9 -37.6,-16.3 m 38,16.5 c 12.5,5.4 24.9,10.8 37.4,16.2 -12.5,-5.4 -24.9,-10.8 -37.4,-16.2 m 38.2,16.6 c 12.2,5.4 24.8,10.9 37.1,16.3 -12.5,-5.5 -24.7,-10.8 -37.1,-16.3 m 38,16.7 c 2.7,1.2 5.6,2.5 8.4,3.7 -2.7,-1.2 -5.7,-2.5 -8.4,-3.7 m 9.2,4 c 9,4 18.5,8.2 27.6,12.2 -9.1,-4 -18.5,-8.2 -27.6,-12.2 m 28.8,12.8 c 2.8,1.2 5.1,2.2 7.8,3.4 -2.5,-1.1 -5.2,-2.3 -7.8,-3.4 m 9.3,4.1 c 3,1.3 5.7,2.5 8.7,3.8 -3,-1.3 -5.6,-2.5 -8.7,-3.8 m 8.8,3.9 c 6.1,2.7 12.3,5.4 18.4,8.1 -6.1,-2.7 -12.3,-5.4 -18.4,-8.1 m 20,8.8 c 2.4,1.1 5,2.3 7.4,3.3 -2.4,-1 -5,-2.2 -7.4,-3.3 m 9.1,4.1 c 2.6,1.1 4.9,2.2 7.5,3.3 -2.4,-1.1 -5.1,-2.2 -7.5,-3.3 m 9.2,4.1 c 5.9,2.6 11.6,5.2 17.5,7.8 -5.9,-2.6 -11.6,-5.2 -17.5,-7.8 m 20.2,9 c 2.1,1 4.1,1.9 6.3,2.8 -2.1,-0.9 -4.3,-1.9 -6.3,-2.8 m 9,4 c 2,0.9 4,1.8 6,2.7 -2.1,-0.9 -3.9,-1.7 -6,-2.7 m 8.9,4 c 2.3,1.1 4.6,2.1 7,3.2 -2.3,-1 -4.8,-2.2 -7,-3.2 m 8.7,3.9 c 2.7,1.3 5.9,2.7 8.7,3.9 -2.9,-1.3 -5.9,-2.6 -8.7,-3.9 m 10.8,4.9 c 2.2,1 4.2,1.9 6.4,2.8 -2.1,-0.9 -4.3,-1.9 -6.4,-2.8 m 9.7,4.3 c 1.7,0.8 3.4,1.6 5.2,2.4 -1.8,-0.8 -3.5,-1.6 -5.2,-2.4 m 9.1,4.1 c 1.5,0.7 3,1.4 4.6,2.1 -1.6,-0.7 -3.1,-1.3 -4.6,-2.1 m 8.5,3.9 c 1.4,0.6 2.9,1.3 4.3,1.9 -1.5,-0.6 -2.8,-1.2 -4.3,-1.9 m 12.7,5.7 c 1.2,0.6 2.4,1.1 3.6,1.7 -1.1,-0.5 -2.5,-1.2 -3.6,-1.7 m 8.5,3.9 c 1,0.4 2.4,1.1 3.3,1.5 -1.1,-0.5 -2.2,-1 -3.3,-1.5 m 8.5,3.9 c 1,0.4 2,0.9 3,1.3 -0.9,-0.4 -2,-0.9 -3,-1.3 m 8.6,3.9 c 0.2,0 0.4,0.1 0.6,0.2 -0.2,-0.1 -0.4,-0.2 -0.6,-0.2 m 22.3,10.1 c 0.3,0.1 0.5,0.2 0.9,0.4 -0.3,-0.1 -0.6,-0.3 -0.9,-0.4 m 8.1,3.7 0.2,0.1 -0.2,-0.1"
         style="fill:#5b6d54;fill-opacity:1;fill-rule:nonzero;stroke:none"
         id="path70" />
      <path
         d="m 14520.9,18978.5 c -724.8,0 -1430.6,65.4 -2109.7,199.3 -335.1,82.9 -663.4,182.5 -983.4,301 -589.9,218.4 -1012.4,741.7 -1108.3,1363.4 -81.2,526.6 -119,1067.5 -109.4,1619 46.3,2655.6 1198.1,5043.7 3006.3,6734.2 11.5,8.5 22.9,16.9 34.4,25.4 -685.4,-1278.4 -1086,-2731.3 -1112.9,-4274.7 -0.5,-29 -0.9,-58.1 -1.1,-87.1 -13.7,-1619.2 1137.4,-3010.3 2728.4,-3312.1 657,-124.6 1338.3,-185.4 2037.6,-185.4 1931.2,0 3999.4,463.7 6067,1327.7 1467.6,613.2 2801.2,1372.9 3946.7,2257.1 C 25571.3,23150 23572.1,21656.5 21178,20564.1 l -0.2,-0.1 c -2.4,-1.1 -4.8,-2.2 -7.2,-3.3 -0.4,-0.2 -0.6,-0.3 -0.9,-0.4 -7.3,-3.3 -14.4,-6.6 -21.7,-9.9 -0.2,-0.1 -0.4,-0.2 -0.6,-0.2 -1.9,-0.9 -3.7,-1.7 -5.6,-2.6 -1,-0.4 -2,-0.9 -3,-1.3 -1.7,-0.8 -3.4,-1.6 -5.2,-2.4 -0.9,-0.4 -2.3,-1.1 -3.3,-1.5 -1.8,-0.8 -3.1,-1.4 -4.9,-2.2 -1.2,-0.6 -2.4,-1.1 -3.6,-1.7 -2.8,-1.2 -5.6,-2.5 -8.4,-3.8 -1.4,-0.6 -2.9,-1.3 -4.3,-1.9 -1.2,-0.6 -2.7,-1.2 -3.9,-1.8 -1.6,-0.7 -3.1,-1.4 -4.6,-2.1 -1.3,-0.5 -2.6,-1.1 -3.9,-1.7 -1.8,-0.8 -3.5,-1.6 -5.2,-2.4 -1.1,-0.5 -2.2,-0.9 -3.3,-1.5 -2.2,-0.9 -4.2,-1.8 -6.4,-2.8 -0.8,-0.4 -1.4,-0.6 -2.1,-1 -2.8,-1.2 -6,-2.6 -8.7,-3.9 -0.7,-0.3 -1.1,-0.5 -1.7,-0.7 -2.4,-1.1 -4.7,-2.1 -7,-3.2 -1,-0.4 -2,-0.8 -2.9,-1.3 -2,-0.9 -4,-1.8 -6,-2.7 -0.9,-0.4 -1.8,-0.8 -2.7,-1.2 -2.2,-0.9 -4.2,-1.8 -6.3,-2.8 -0.8,-0.4 -1.9,-0.8 -2.7,-1.2 -5.9,-2.6 -11.6,-5.2 -17.5,-7.8 -0.6,-0.3 -1.1,-0.5 -1.7,-0.8 -2.6,-1.1 -4.9,-2.2 -7.5,-3.3 -0.6,-0.3 -1.1,-0.5 -1.7,-0.8 -2.4,-1 -5,-2.2 -7.4,-3.3 -0.6,-0.2 -1,-0.4 -1.6,-0.7 -6.1,-2.7 -12.3,-5.4 -18.4,-8.1 l -0.1,-0.1 c -3,-1.3 -5.7,-2.5 -8.7,-3.8 -0.4,-0.2 -1,-0.5 -1.5,-0.7 -2.7,-1.2 -5,-2.2 -7.8,-3.4 -0.5,-0.3 -0.7,-0.4 -1.2,-0.6 -9.1,-4 -18.6,-8.2 -27.6,-12.2 -0.4,-0.1 -0.5,-0.2 -0.8,-0.3 -2.8,-1.2 -5.7,-2.5 -8.4,-3.7 -0.4,-0.2 -0.6,-0.3 -0.9,-0.4 -12.3,-5.4 -24.9,-10.9 -37.1,-16.3 -0.2,-0.1 -0.7,-0.3 -0.8,-0.4 -12.5,-5.4 -24.9,-10.8 -37.4,-16.2 -0.1,-0.1 -0.2,-0.1 -0.4,-0.2 -12.6,-5.5 -24.9,-10.8 -37.6,-16.3 -0.2,-0.1 -0.3,-0.1 -0.4,-0.2 -28.5,-12.3 -56.7,-24.4 -85.3,-36.6 l -0.3,-0.2 c -12.6,-5.3 -25.1,-10.7 -37.6,-16 -0.4,-0.1 -0.7,-0.3 -1,-0.4 -2.8,-1.2 -5.7,-2.4 -8.5,-3.6 -0.2,-0.1 -0.6,-0.3 -0.8,-0.3 -6.4,-2.7 -12.4,-5.3 -18.8,-8 -0.1,-0.1 -0.1,-0.1 -0.3,-0.1 -3,-1.3 -5.8,-2.5 -8.8,-3.7 -0.5,-0.2 -0.8,-0.4 -1.3,-0.6 -2.8,-1.2 -5.1,-2.2 -7.9,-3.3 -0.5,-0.2 -1.1,-0.5 -1.6,-0.7 -2.8,-1.2 -5.7,-2.4 -8.5,-3.6 -0.1,0 -0.3,-0.1 -0.5,-0.2 -3.2,-1.3 -6.2,-2.6 -9.4,-3.9 -0.2,-0.1 -0.2,-0.1 -0.3,-0.2 -3,-1.2 -5.6,-2.3 -8.6,-3.6 -0.8,-0.3 -1.5,-0.6 -2.3,-0.9 -2,-0.9 -4.5,-1.9 -6.5,-2.8 -0.9,-0.4 -2,-0.8 -2.9,-1.2 -2.2,-0.9 -4.2,-1.7 -6.4,-2.7 -0.8,-0.3 -1.7,-0.7 -2.5,-1 -3,-1.3 -5.9,-2.5 -8.9,-3.7 v 0 c -2067.3,-863.9 -4134.5,-1327.1 -6065.3,-1327.1"
         style="fill:#cf793a;fill-opacity:1;fill-rule:nonzero;stroke:none"
         id="path72" />
      <path
         d="m 13216.4,29195.4 c 13.8,12.9 27.6,25.7 41.5,38.5 v 0.1 c -2.3,-4.4 -4.7,-8.8 -7.1,-13.2 -11.5,-8.5 -22.9,-16.9 -34.4,-25.4"
         style="fill:#d19982;fill-opacity:1;fill-rule:nonzero;stroke:none"
         id="path74" />
      <path
         d="m 14572.3,28239 c -98,-308.2 -267.3,-533.7 -375.1,-499.4 -107.8,34.3 -115.8,316.1 -17.8,624.3 97.9,308.2 267.3,533.7 375.1,499.4 101,-32.1 115.6,-282.1 33.3,-572.7 l -15.5,-51.6"
         style="fill:#fce69f;fill-opacity:1;fill-rule:nonzero;stroke:none"
         id="path76" />
      <path
         d="m 16172.1,28040.5 c -55.3,-318.7 -192.5,-565 -304,-545.6 -111.4,19.3 -157.6,297.5 -102.3,616.1 55.4,318.7 192.6,565 304,545.6 104.5,-18.1 152.8,-263.8 110.7,-562.9 l -8.4,-53.2"
         style="fill:#fce69f;fill-opacity:1;fill-rule:nonzero;stroke:none"
         id="path78" />
      <path
         d="m 18237.4,28104.5 c 45,-320.3 -10.1,-596.8 -122.1,-612.6 -112,-15.7 -241.2,234.9 -286.2,555.2 -45,320.2 10.1,596.7 122.1,612.5 105,14.7 226.3,-204.3 277.9,-501.9 l 8.3,-53.2"
         style="fill:#fce69f;fill-opacity:1;fill-rule:nonzero;stroke:none"
         id="path80" />
      <path
         d="m 19964.5,28766.8 c 171.1,-274.5 232.9,-549.5 137,-609.4 -96,-59.8 -315.8,116.8 -486.9,391.2 -171.2,274.5 -233,549.5 -137,609.4 89.9,56.1 289.7,-94.9 457.6,-346 l 29.3,-45.2"
         style="fill:#fce69f;fill-opacity:1;fill-rule:nonzero;stroke:none"
         id="path82" />
      <path
         d="m 21289.1,29865.2 c 229.3,-228.2 352.2,-481.9 272.4,-562.1 -79.8,-80.1 -334,41.7 -563.3,269.8 -229.2,228.2 -352.2,481.9 -272.4,562.1 74.8,75.1 303.8,-26.3 524.6,-232.4 l 38.7,-37.4"
         style="fill:#fce69f;fill-opacity:1;fill-rule:nonzero;stroke:none"
         id="path84" />
      <path
         d="m 14785.3,23008.6 c -107.6,0 -194.7,87.2 -194.7,194.7 0,107.6 87.1,194.8 194.7,194.8 107.5,0 194.7,-87.2 194.7,-194.8 0,-107.5 -87.2,-194.7 -194.7,-194.7"
         style="fill:#cf793a;fill-opacity:1;fill-rule:nonzero;stroke:none"
         id="path86" />
      <path
         d="m 17925.7,24858.5 c -107.5,0 -194.7,87.2 -194.7,194.7 0,107.6 87.2,194.8 194.7,194.8 107.6,0 194.7,-87.2 194.7,-194.8 0,-107.5 -87.1,-194.7 -194.7,-194.7"
         style="fill:#cf793a;fill-opacity:1;fill-rule:nonzero;stroke:none"
         id="path88" />
      <path
         d="m 18569.3,22832.1 c -107.6,0 -194.7,87.2 -194.7,194.7 0,107.5 87.1,194.7 194.7,194.7 107.5,0 194.7,-87.2 194.7,-194.7 0,-107.5 -87.2,-194.7 -194.7,-194.7"
         style="fill:#e99335;fill-opacity:1;fill-rule:nonzero;stroke:none"
         id="path90" />
      <path
         d="m 20448.4,25215.6 c -107.6,0 -194.7,87.1 -194.7,194.7 0,107.5 87.1,194.7 194.7,194.7 107.5,0 194.7,-87.2 194.7,-194.7 0,-107.6 -87.2,-194.7 -194.7,-194.7"
         style="fill:#e99335;fill-opacity:1;fill-rule:nonzero;stroke:none"
         id="path92" />
      <path
         d="m 22458.4,23621.9 c -107.5,0 -194.7,87.2 -194.7,194.7 0,107.6 87.2,194.7 194.7,194.7 107.6,0 194.8,-87.1 194.8,-194.7 0,-107.5 -87.2,-194.7 -194.8,-194.7"
         style="fill:#cf793a;fill-opacity:1;fill-rule:nonzero;stroke:none"
         id="path94" />
      <path
         d="m 22718.9,26568.2 c -107.5,0 -194.7,87.2 -194.7,194.7 0,107.6 87.2,194.8 194.7,194.8 107.6,0 194.7,-87.2 194.7,-194.8 0,-107.5 -87.1,-194.7 -194.7,-194.7"
         style="fill:#cf793a;fill-opacity:1;fill-rule:nonzero;stroke:none"
         id="path96" />
      <path
         d="m 24118.6,28236.8 c -107.6,0 -194.8,87.1 -194.8,194.7 0,107.5 87.2,194.7 194.8,194.7 107.5,0 194.7,-87.2 194.7,-194.7 0,-107.6 -87.2,-194.7 -194.7,-194.7"
         style="fill:#cf793a;fill-opacity:1;fill-rule:nonzero;stroke:none"
         id="path98" />
      <path
         d="m 14824.3,25031 c -107.5,0 -194.7,87.2 -194.7,194.7 0,107.5 87.2,194.7 194.7,194.7 107.6,0 194.8,-87.2 194.8,-194.7 0,-107.5 -87.2,-194.7 -194.8,-194.7"
         style="fill:#e99335;fill-opacity:1;fill-rule:nonzero;stroke:none"
         id="path100" />
      <path
         d="m 26028.5,26402.9 c -107.5,0 -194.7,87.1 -194.7,194.7 0,107.5 87.2,194.7 194.7,194.7 107.6,0 194.7,-87.2 194.7,-194.7 0,-107.6 -87.1,-194.7 -194.7,-194.7"
         style="fill:#cf793a;fill-opacity:1;fill-rule:nonzero;stroke:none"
         id="path102" />
      <path
         d="m 24765.8,24276.5 c -107.5,0 -194.7,87.2 -194.7,194.7 0,107.5 87.2,194.7 194.7,194.7 107.5,0 194.7,-87.2 194.7,-194.7 0,-107.5 -87.2,-194.7 -194.7,-194.7"
         style="fill:#e99335;fill-opacity:1;fill-rule:nonzero;stroke:none"
         id="path104" />
      <path
         d="m 19215.2,31653.3 c -5031.7,0 -9170.4,-4048.7 -9258.4,-9094.4 -9.32,-535.3 27.39,-1072.9 109.2,-1597.9 84.4,-542 453.6,-996.5 963.7,-1186.3 2647.7,-984.9 6013.8,-729.9 9478.4,717.8 2941.8,1229.2 5225.9,2987.9 6605.3,5085.9 315,479 328.6,1103.4 34.6,1590.7 -1661.7,2755.4 -4570.8,4431.3 -7781.6,4483 -50.4,0.7 -101,1.2 -151.2,1.2 z m -4699,-12878.2 c -1302.8,0 -2519.2,207.5 -3627.8,619.9 -647.3,240.8 -1115.85,817 -1222.78,1503.7 -85.31,547.8 -123.64,1108.8 -113.9,1667.3 44.78,2568.2 1093.78,4972.3 2953.78,6769.3 1859.5,1796.5 4298.4,2764.6 6867.4,2721.8 1664.9,-26.7 3300.3,-484.7 4729.5,-1324.5 1387.8,-815.5 2561,-1975.4 3392.6,-3354.2 374,-620.1 357.1,-1414 -43,-2022.5 -1424,-2165.8 -3771.1,-3976.8 -6787.7,-5237.2 -1747.6,-730.3 -3465.5,-1167.9 -5106.1,-1300.7 -353,-28.6 -700.5,-42.9 -1042,-42.9"
         style="fill:#6d184e;fill-opacity:1;fill-rule:nonzero;stroke:none"
         id="path106" />
      <path
         d="m 25030.8,12801.6 c -116.7,-629.6 -721.7,-1045.2 -1351.3,-928.5 -629.5,116.8 -1045.2,721.8 -928.4,1351.4 68.6,369.9 216.9,285.9 458.8,201.9 169.7,-59 385.4,-117.9 651.9,-20 761.1,279.5 1285.8,24.7 1169,-604.8"
         style="fill:#fcaf15;fill-opacity:1;fill-rule:nonzero;stroke:none"
         id="path108" />
      <path
         d="m 23677.5,11873.5 c -0.1,0 -0.1,0 -0.1,0 h 0.1"
         style="fill:#fff6af;fill-opacity:1;fill-rule:nonzero;stroke:none"
         id="path110" />
      <path
         d="m 23677.5,11873.5 v 0 h -0.1 v 0 h 0.1 m 775.5,800.6 c 28.4,70.6 50.2,145 64.6,222.7 54,290.6 -30.1,500.1 -209.8,615.3 39.7,3.8 78.1,5.6 115.3,5.6 435.4,0 690,-255.8 609,-709.1 25.9,144.8 16.4,268.8 -21.1,371.7 -132,-202.8 -330.1,-389.4 -558,-506.2 m 578.3,129.8 c 0,0.2 0.1,0.5 0.1,0.8 0,-0.3 -0.1,-0.5 -0.1,-0.8 m 0.4,2.2 c 0.1,0.8 0.2,1.5 0.4,2.3 -0.2,-0.8 -0.3,-1.5 -0.4,-2.3"
         style="fill:#fed78a;fill-opacity:1;fill-rule:nonzero;stroke:none"
         id="path112" />
      <path
         d="m 23679.5,11873.1 v 0 c -0.7,0.2 -1.3,0.3 -2,0.4 0.6,-0.1 1.3,-0.2 2,-0.4 m 1277.3,683.2 c 33,77.2 58.1,159.3 74,245.3 0.2,0.7 0.3,1.5 0.5,2.3 -0.2,-0.8 -0.3,-1.5 -0.5,-2.3 -15.9,-86 -41,-168.1 -74,-245.3 v 0"
         style="fill:#d18126;fill-opacity:1;fill-rule:nonzero;stroke:none"
         id="path114" />
      <path
         d="m 22751.1,13224.5 c 0,0.3 0.1,0.7 0.2,1.1 -0.1,-0.4 -0.2,-0.8 -0.2,-1.1"
         style="fill:#6d184e;fill-opacity:1;fill-rule:nonzero;stroke:none"
         id="path116" />
      <path
         d="m 23677.4,11873.5 c -628.4,117.7 -1043,722.1 -926.3,1351 v 0 c 0,0.3 0.1,0.7 0.2,1.1 35.7,191.4 92.9,260.5 173.5,271.2 116.6,-410.4 434.9,-849.7 882.9,-932.8 53.4,-9.9 106.7,-14.6 160,-14.6 167.9,0 333.3,46.9 485.3,124.7 -169.6,-420.8 -572.8,-703.8 -1024.5,-723.3 78.4,-34.1 161.3,-60.8 248.9,-77.3 m 1354,931.2 c 0.1,0.4 0.2,0.9 0.3,1.4 -0.1,-0.5 -0.2,-1 -0.3,-1.4 m 0.7,3.7 c 0,0 0,0.1 0,0.2 0,-0.1 0,-0.2 0,-0.2"
         style="fill:#d18126;fill-opacity:1;fill-rule:nonzero;stroke:none"
         id="path118" />
      <path
         d="m 23892.3,11853.5 h -0.1 0.1 v 0 m 7.3,0 c 460.5,3 877.1,281.3 1057.2,702.8 -180.1,-421.6 -596.7,-699.9 -1057.2,-702.8"
         style="fill:#d3b392;fill-opacity:1;fill-rule:nonzero;stroke:none"
         id="path120" />
      <path
         d="m 23892.3,11853.5 h -0.1 c -70.1,0 -141.3,6.4 -212.7,19.6 v 0 0 c -0.7,0.2 -1.4,0.3 -2,0.4 h -0.1 c -87.6,16.5 -170.5,43.2 -248.9,77.3 451.7,19.5 854.9,302.5 1024.5,723.3 227.9,116.8 426,303.4 558,506.2 37.5,-102.9 47,-226.9 21.1,-371.7 0,-0.1 0,-0.2 0,-0.2 -0.2,-0.8 -0.3,-1.5 -0.4,-2.3 -0.1,-0.5 -0.2,-1 -0.3,-1.4 0,-0.3 -0.1,-0.6 -0.1,-0.8 -0.2,-0.8 -0.3,-1.6 -0.5,-2.3 -15.9,-86 -41,-168.1 -74,-245.3 -180.1,-421.5 -596.7,-699.8 -1057.2,-702.8 -2.5,0 -4.9,0 -7.3,0"
         style="fill:#d29d78;fill-opacity:1;fill-rule:nonzero;stroke:none"
         id="path122" />
      <path
         d="m 22977.2,13291.1 c -7.4,-19.2 -17.3,-51.5 -26.9,-103.6 -46.6,-251.3 7.4,-505.6 152.1,-716.3 144.7,-210.6 362.8,-352.2 614,-398.9 251.4,-46.5 505.7,7.4 716.4,152.2 210.6,144.6 352.2,362.8 398.9,614 22.8,123.2 26.1,290.2 -88,386.5 -147.4,124.4 -458.5,121 -812,-8.8 -363.2,-133.4 -651,-30.5 -841.4,37.6 -36.1,12.9 -81.8,29.3 -113.1,37.3 z m 916.7,-1640.4 c -83.5,0 -167.5,7.7 -251.4,23.3 -357.6,66.3 -668,267.9 -874.1,567.8 -206,299.8 -282.9,661.9 -216.5,1019.6 25.8,139.4 74.3,310.1 220.9,394.5 151.9,87.5 312.3,30 453.9,-20.6 167.2,-59.7 340,-121.5 565.3,-38.8 504.7,185.4 946.8,162.8 1213,-61.9 205.1,-173.1 285,-446.6 225,-770 -66.3,-357.7 -268,-668.1 -567.8,-874.1 -229.6,-157.7 -495.7,-239.8 -768.3,-239.8"
         style="fill:#6d184e;fill-opacity:1;fill-rule:nonzero;stroke:none"
         id="path124" />
      <path
         d="m 26538.5,20786.6 c 81.8,-37.6 177.4,-28 255,17.5 320.6,188.3 1344.5,810.6 1516.9,1177.7 192.1,409.2 -2350.6,-929.4 -1771.9,-1195.2"
         style="fill:#e5525f;fill-opacity:1;fill-rule:nonzero;stroke:none"
         id="path126" />
      <path
         d="m 20000,4806.6 c -5122.6,0 -9275.3,484.9 -9275.3,1083 0,598.1 4152.7,1083 9275.3,1083 5122.6,0 9275.3,-484.9 9275.3,-1083 0,-598.1 -4152.7,-1083 -9275.3,-1083"
         style="fill:#d3ac59;fill-opacity:1;fill-rule:nonzero;stroke:none"
         id="path128" />
    </g>
    <path
       style="fill:#ab7e4f;stroke:#000000;stroke-width:5.89938"
       d="M 2.5965596,2666.6667 V 0 H 2666.6667 5330.7369 V 2666.6667 5333.3335 H 2666.6667 2.5965596 Z M 2999.0264,4689.3156 c 530.9817,-19.1891 881.412,-71.1383 904.3561,-134.0655 24.1929,-66.352 -303.6926,-123.3407 -842.0387,-146.352 -150.7929,-6.4456 -638.5612,-6.4456 -789.3541,0 -460.8596,19.6991 -777.5336,65.3375 -832.1193,119.9231 -19.2718,19.2719 -13.585,34.19 20.0247,52.53 94.7916,51.7254 470.1444,96.5613 918.5535,109.7212 130.2724,3.8232 494.722,2.7915 620.5778,-1.7568 z M 2458.942,3783.4275 c 147.4296,-20.5471 356.5112,-72.353 489.2737,-121.2313 l 55.6481,-20.4876 14.9919,32.037 c 20.7327,44.3047 42.7164,67.3984 83.0699,87.2644 31.6449,15.5787 38.5919,16.9843 83.9439,16.9843 42.4177,0 53.5025,-1.9145 78.006,-13.4727 71.34,-33.6508 115.3821,-115.6388 101.5954,-189.1281 -3.8087,-20.3023 -33.5843,-57.1447 -50.5305,-62.5232 -8.1147,-2.5756 6.9523,-12.9497 67.5436,-46.506 328.3847,-181.8643 547.9144,-376.3321 644.8129,-571.2003 62.2224,-125.1325 77.5052,-248.054 43.6923,-351.4216 l -7.9342,-24.2549 19.2538,-25.0797 c 35.7752,-46.5999 46.0212,-75.818 46.1272,-131.5385 0.087,-45.6469 -1.1281,-51.5624 -16.2533,-79.1378 l -16.3471,-29.8031 19.9635,-5.3756 c 41.6985,-11.2283 52.0738,-48.8262 27.2865,-98.8801 -15.379,-31.0553 -59.8174,-78.7483 -92.7353,-99.5273 l -21.0553,-13.2908 2.1085,-33.1141 c 4.4221,-69.4475 -48.9147,-182.273 -104.1631,-220.3406 -45.5585,-31.391 -77.1474,-40.3244 -144.053,-40.7386 -32.8465,-0.2036 -66.1474,1.4274 -74.002,3.624 -10.1745,2.8453 -14.2822,2.0987 -14.2851,-2.5966 -0.01,-13.8286 -32.8697,-75.145 -65.8979,-122.9605 C 3425.6371,1326.3121 3126.654,1134.5265 2778.1629,1074.949 2276.0512,989.10876 1769.6197,1209.5415 1483.6,1638.4291 c -104.3501,156.4734 -179.214,360.2654 -204.1253,555.6638 -8.3949,65.8476 -8.4352,239.2848 -0.071,303.6842 5.9348,45.6914 5.7236,49.6793 -2.9449,55.6075 -38.5454,26.3603 -52.605,39.141 -72.4547,65.8642 -27.6197,37.1837 -39.8548,76.4286 -39.878,127.9113 -0.026,60.0285 26.1262,100.3893 74.4284,114.861 l 20.3006,6.0822 -17.3409,20.2589 c -24.8197,28.9962 -49.2212,77.2043 -52.9876,104.6834 -2.945,21.4855 -1.8063,25.0486 12.6116,39.4666 21.0778,21.0778 41.4503,20.6862 106.5196,-2.0471 45.6968,-15.9652 51.2389,-16.8926 53.997,-9.0356 1.6905,4.8156 8.3514,21.5846 14.802,37.2646 l 11.7283,28.5089 -32.6374,10.9922 c -42.5324,14.3247 -65.171,32.1478 -83.4183,65.6739 -28.51,52.3823 -18.2175,114.4044 23.9706,144.445 8.3954,5.978 39.9428,19.8275 70.1053,30.7765 30.1625,10.9489 59.0606,23.7259 64.2179,28.3932 7.6657,6.9374 9.7997,19.1068 11.6942,66.6874 2.6857,67.452 12.3412,95.4003 41.9355,121.3842 32.0595,28.1483 96.0825,33.2934 151.6057,12.1835 10.186,-3.8727 14.2097,-1.2721 29.3577,18.9745 38.4532,51.3962 125.2716,113.0301 203.846,144.7138 78.7496,31.7545 148.287,48.3603 257.7195,61.5445 42.2704,5.0926 275.366,-1.601 332.3597,-9.5442 z"
       id="path26606"
       transform="matrix(0.75000002,0,0,-0.75000002,0,4000.0001)" />
    <path
       style="fill:#fcfcd8;stroke:#000000;stroke-width:5.89938"
       d="M 2396.6245,4686.2913 C 1867.7443,4671.2 1445.5621,4611.7155 1436.9131,4551.07 c -8.7331,-61.2351 344.5566,-117.3891 861.0422,-136.8592 176.1289,-6.6396 559.2663,-6.6427 740.0195,-0.01 394.0628,14.4688 713.2872,53.516 818.487,100.1165 49.8569,22.0851 53.3412,39.7454 12.1999,61.8367 -84.0164,45.1137 -351.621,81.7893 -750.1936,102.8151 -101.5801,5.3587 -609.9089,10.5122 -721.8436,7.3182 z"
       id="path27385"
       transform="matrix(0.75000002,0,0,-0.75000002,0,4000.0001)" />
  </g>
</svg>
