<?xml version="1.0" encoding="UTF-8" standalone="no"?>
<svg
   version="1.1"
   x="0px"
   y="0px"
   viewBox="0 0 100 125"
   style="enable-background:new 0 0 100 100;"
   xml:space="preserve"
   id="svg234"
   sodipodi:docname="noun-burger-1044110.svg"
   inkscape:version="1.2.2 (b0a8486, 2022-12-01)"
   xmlns:inkscape="http://www.inkscape.org/namespaces/inkscape"
   xmlns:sodipodi="http://sodipodi.sourceforge.net/DTD/sodipodi-0.dtd"
   xmlns="http://www.w3.org/2000/svg"
   xmlns:svg="http://www.w3.org/2000/svg"><defs
     id="defs238" /><sodipodi:namedview
     id="namedview236"
     pagecolor="#ffffff"
     bordercolor="#000000"
     borderopacity="0.25"
     inkscape:showpageshadow="2"
     inkscape:pageopacity="0.0"
     inkscape:pagecheckerboard="0"
     inkscape:deskcolor="#d1d1d1"
     showgrid="false"
     inkscape:zoom="8.216"
     inkscape:cx="39.861246"
     inkscape:cy="62.439143"
     inkscape:window-width="2560"
     inkscape:window-height="1299"
     inkscape:window-x="0"
     inkscape:window-y="25"
     inkscape:window-maximized="1"
     inkscape:current-layer="svg234" /><path
     d="M63.9,62.9H18.3c-1.2,0-2.2-0.5-3-1.4c-0.7-0.9-1-2.1-0.8-3.2c2.2-10.5,13.4-18.1,26.6-18.1  s24.4,7.6,26.6,18.1c0.2,1.2,0,2.3-0.8,3.2C66.2,62.4,65.1,62.9,63.9,62.9z M41.1,42.2c-12.3,0-22.6,6.9-24.6,16.5  c-0.1,0.6,0,1.1,0.4,1.6c0.3,0.4,0.9,0.7,1.4,0.7H64c0.6,0,1.1-0.2,1.4-0.7c0.4-0.4,0.5-1,0.4-1.6C63.7,49.1,53.4,42.2,41.1,42.2z"
     id="path190"
     style="fill:#fee7a4;fill-opacity:1" /><path
     d="M63.1,88.1h-44c-2.4,0-4.5-1.9-4.7-4.3l-0.3-4.2c0-1.4,1.1-2.5,2.4-2.5h49.1c1.3,0,2.4,1.1,2.4,2.4l-0.3,4.2  C67.6,86.2,65.5,88.1,63.1,88.1z M16.6,79.1c-0.2,0-0.4,0.2-0.4,0.4l0.3,4c0.1,1.4,1.3,2.5,2.7,2.5h44c1.4,0,2.6-1.1,2.7-2.5  l0.3-4.1c0-0.2-0.2-0.3-0.4-0.3H16.6z"
     id="path192"
     style="fill:#fee7a4;fill-opacity:1" /><circle
     cx="22.5"
     cy="57.1"
     r="0.7"
     id="circle194"
     style="fill:#fee7a4;fill-opacity:1" /><circle
     cx="28.4"
     cy="55"
     r="0.7"
     id="circle196"
     style="fill:#fee7a4;fill-opacity:1" /><circle
     cx="26.9"
     cy="49.4"
     r="0.7"
     id="circle198"
     style="fill:#fee7a4;fill-opacity:1" /><circle
     cx="35.9"
     cy="51.9"
     r="0.7"
     id="circle200"
     style="fill:#fee7a4;fill-opacity:1" /><circle
     cx="35.9"
     cy="45.6"
     r="0.7"
     id="circle202"
     style="fill:#fee7a4;fill-opacity:1" /><circle
     cx="42.3"
     cy="47.7"
     r="0.7"
     id="circle204"
     style="fill:#fee7a4;fill-opacity:1" /><circle
     cx="33.4"
     cy="58.1"
     r="0.7"
     id="circle206"
     style="fill:#fee7a4;fill-opacity:1" /><circle
     cx="41.1"
     cy="55.7"
     r="0.7"
     id="circle208"
     style="fill:#fee7a4;fill-opacity:1" /><circle
     cx="47.1"
     cy="53"
     r="0.7"
     id="circle210"
     style="fill:#fee7a4;fill-opacity:1" /><circle
     cx="50.6"
     cy="48"
     r="0.7"
     id="circle212"
     style="fill:#fee7a4;fill-opacity:1" /><circle
     cx="55.2"
     cy="52.6"
     r="0.7"
     id="circle214"
     style="fill:#fee7a4;fill-opacity:1" /><circle
     cx="61.1"
     cy="57.8"
     r="0.7"
     id="circle216"
     style="fill:#fee7a4;fill-opacity:1" /><circle
     cx="52.7"
     cy="58.1"
     r="0.7"
     id="circle218"
     style="fill:#fee7a4;fill-opacity:1" /><path
     d="M65.2,75.4H17c-1.4,0-2.5-1.1-2.5-2.5s1.1-2.5,2.5-2.5h48.3c1.4,0,2.5,1.1,2.5,2.5S66.6,75.4,65.2,75.4z   M17,72.4c-0.3,0-0.5,0.2-0.5,0.5c0,0.3,0.2,0.5,0.5,0.5h48.3c0.3,0,0.5-0.2,0.5-0.5c0-0.3-0.2-0.5-0.5-0.5H17z"
     id="path220"
     style="fill:#fee7a4;fill-opacity:1" /><path
     d="M67.6,68.5c-0.7-0.9-2-1.5-2.5-1.7c-1.6-0.5-4.9,1.6-5.1,1.7c-3,1.5-6.8-1.1-7-1.2c-2.9-1.9-6.2,0.1-6.4,0.2  c-5,2.8-9.6,0.3-9.8,0.2c-4.7-2.7-9.3,0.5-9.3,0.5c-2.8,1.8-5.3,0.4-7-0.6c-1.8-1-3.2-1.8-6.1,0c-0.5,0.3-1.1,0.2-1.4-0.3  s-0.2-1.1,0.3-1.4c3.9-2.5,6.3-1.2,8.2-0.1c1.6,0.9,2.7,1.9,5.1,0.6c0.7-0.5,5.7-3.5,11.3-0.4c0.2,0.1,3.8,2.1,7.8-0.2  c0.2-0.1,4.5-2.7,8.5-0.1c0.9,0.6,3.4,1.9,4.9,1.1c0.7-0.4,4-2.6,6.7-1.8c0.3,0.1,2.5,0.8,3.5,2.6c0.3,0.5,0.1,1.2-0.4,1.4  C68.3,69.2,67.9,68.9,67.6,68.5z"
     id="path222"
     style="fill:#fee7a4;fill-opacity:1" /><path
     d="M78.2,88.1H54.7c-0.6,0-1-0.4-1-1s0.4-1,1-1h22.6L82.8,28H50.1l1.4,14.5c0.1,0.5-1.9,0.7-2,0.2L48,27  c0-0.3,0.1-0.6,0.3-0.8c0.2-0.2,0.5-0.3,0.7-0.3h34.8c0.3,0,0.5,0.1,0.7,0.3c0.2,0.2,0.3,0.5,0.3,0.8l-5.7,60.1  C79.1,87.7,78.7,88.1,78.2,88.1z"
     id="path224"
     style="fill:#fee7a4;fill-opacity:1" /><path
     d="M86.1,27.9H46.8c-0.6,0-1-0.4-1-1s0.4-1,1-1h39.3c0.6,0,1,0.4,1,1S86.6,27.9,86.1,27.9z"
     id="path226"
     style="fill:#fee7a4;fill-opacity:1" /><path
     d="M66.9,27.9c-0.2,0-0.3,0-0.4-0.1c-0.5-0.2-0.7-0.9-0.4-1.3L72,14.9c0.1-0.3,0.4-0.5,0.7-0.5L82.9,12  c0.5-0.1,1.1,0.2,1.2,0.8c0.1,0.5-0.2,1.1-0.8,1.2l-9.9,2.2l-5.7,11.2C67.6,27.7,67.2,27.9,66.9,27.9z"
     id="path228"
     style="fill:#fee7a4;fill-opacity:1" /></svg>
