<?xml version="1.0" encoding="UTF-8" standalone="no"?>
<!-- Created with Inkscape (http://www.inkscape.org/) -->

<svg
   version="1.1"
   id="svg2"
   width="5333.3335"
   height="5333.3335"
   viewBox="0 0 5333.3335 5333.3335"
   sodipodi:docname="cheeseburger.svg"
   inkscape:version="1.2.2 (b0a8486, 2022-12-01)"
   xmlns:inkscape="http://www.inkscape.org/namespaces/inkscape"
   xmlns:sodipodi="http://sodipodi.sourceforge.net/DTD/sodipodi-0.dtd"
   xmlns="http://www.w3.org/2000/svg"
   xmlns:svg="http://www.w3.org/2000/svg">
  <defs
     id="defs6" />
  <sodipodi:namedview
     id="namedview4"
     pagecolor="#ffffff"
     bordercolor="#000000"
     borderopacity="0.25"
     inkscape:showpageshadow="2"
     inkscape:pageopacity="0.0"
     inkscape:pagecheckerboard="0"
     inkscape:deskcolor="#d1d1d1"
     showgrid="false"
     inkscape:zoom="0.19256249"
     inkscape:cx="2230.4447"
     inkscape:cy="2664.0702"
     inkscape:window-width="2560"
     inkscape:window-height="1299"
     inkscape:window-x="0"
     inkscape:window-y="25"
     inkscape:window-maximized="1"
     inkscape:current-layer="g8" />
  <g
     id="g8"
     inkscape:groupmode="layer"
     inkscape:label="ink_ext_XXXXXX"
     transform="matrix(1.3333333,0,0,-1.3333333,0,5333.3333)">
    <g
       id="g10"
       transform="scale(0.1)">
      <path
         d="M 0,0 H 40000 V 40000 H 0 Z"
         style="fill:#7dd4ff;fill-opacity:1;fill-rule:nonzero;stroke:none"
         id="path12" />
      <path
         d="m 20600,4058.4 c -5067.2,0 -9175,490.6 -9175,1095.8 0,605.2 4107.8,1095.8 9175,1095.8 5067.2,0 9175,-490.6 9175,-1095.8 0,-605.2 -4107.8,-1095.8 -9175,-1095.8"
         style="fill:#6894d6;fill-opacity:1;fill-rule:nonzero;stroke:none"
         id="path14" />
      <path
         d="m 12869.6,13037.1 c 1163.2,-3535 6216.3,-4276.4 10605.7,-2862.4 4458.2,1436.1 8235.5,5083.4 7054.1,8673.8 L 12869.6,13037.1"
         style="fill:#ffa42c;fill-opacity:1;fill-rule:nonzero;stroke:none"
         id="path16" />
      <path
         d="m 17980.6,9575 c -2159,254.4 -3984.9,1162.6 -4839.6,2814.7 854.6,-1651.9 2681,-2560.1 4839.6,-2814.7"
         style="fill:#cbeeff;fill-opacity:1;fill-rule:nonzero;stroke:none"
         id="path18" />
      <path
         d="m 19292.2,9500 c -446.9,0 -885.6,24.8 -1311.6,75 -2158.6,254.6 -3985,1162.8 -4839.6,2814.7 -81.9,158.3 -154.9,323.5 -218.4,495.5 186.8,90.8 374.2,175.7 562.5,254.8 880.9,-2275.6 3444,-3319.3 6344.6,-3319.5 900.6,-0.1 1833.6,100.5 2759.2,296.1 -222.9,-113.6 -451,-222.3 -684.1,-326 l -99,-44.1 C 20961.2,9583.6 20113,9500.1 19292.2,9500"
         style="fill:#ffdbab;fill-opacity:1;fill-rule:nonzero;stroke:none"
         id="path20" />
      <path
         d="m 22772.3,10156.6 c 2336.3,1227.7 4070.8,2974.9 4718.7,4788.8 103.7,290.4 -43.1,536 -234.5,650.5 -83.5,50 -184.8,80.7 -289.7,80.7 -136.7,0 -279.5,-52.1 -396.9,-182 -427.8,-473 -789.4,-943.4 -1017.4,-1254.8 -347.1,-473.6 -842.5,-580.9 -1220,-580.9 -87.9,0 -169.4,5.9 -241.2,14.2 324.5,212.3 613,514.2 872.3,911 1431.8,1934.2 3524.8,3454.3 5593,4093 321.2,-1116.3 184.6,-2270.2 -406.8,-3432.6 -736.2,-1447 -2149.3,-2801.4 -3928.6,-3828.5 -701.7,-364.3 -1445.2,-674.9 -2208.2,-920.7 -409,-131.8 -823.8,-244.9 -1240.7,-338.7"
         style="fill:#c37342;fill-opacity:1;fill-rule:nonzero;stroke:none"
         id="path22" />
      <path
         d="m 22125.5,9837.2 c 220.2,102 436,208.6 646.8,319.4 416.9,93.8 831.7,206.9 1240.7,338.7 763,245.8 1506.5,556.4 2208.2,920.7 -846.1,-488.4 -1775.1,-902.9 -2753.3,-1218.1 -440.7,-141.8 -891.3,-262.8 -1342.4,-360.7"
         style="fill:#c3999b;fill-opacity:1;fill-rule:nonzero;stroke:none"
         id="path24" />
      <path
         d="m 21703.8,9701.2 101.8,45.2 c 523.3,100.9 1045.4,232.3 1558.9,393.1 37.1,11.6 74,23.3 110.9,35.2 2.3,0.8 4.7,1.5 6.9,2.3 4386.9,1415.8 8112.5,4972.5 7097.6,8507.3 7.9,2.4 15.5,4.7 23.4,7 325,-1128.6 187.3,-2294.8 -410.1,-3468.9 -1091.8,-2146.1 -3663.1,-4089.2 -6710.3,-5070.8 -512.7,-165 -1038.6,-302 -1563.4,-407.2 l -215.7,-43.2"
         style="fill:#6894d6;fill-opacity:1;fill-rule:nonzero;stroke:none"
         id="path26" />
      <path
         d="m 21805.6,9746.4 0.2,0.1 c 523,100.9 1045.5,232.3 1558.7,393 -513.5,-160.8 -1035.6,-292.2 -1558.9,-393.1 m 783.3,370.2 c 2406.7,1225.6 4197.6,3001.3 4856.2,4845.3 94.4,264.3 -39.3,487.9 -213.6,592.2 -76.1,45.5 -168.4,73.5 -264,73.5 -124.5,0 -254.5,-47.5 -361.5,-165.7 -426.3,-471.4 -786.8,-940.5 -1014.2,-1250.9 -359,-489.9 -870.3,-600.7 -1259.2,-600.7 -115,0 -219.2,9.7 -305.7,22.1 21.6,13.2 43.1,26.8 64.4,40.7 71.8,-8.3 153.3,-14.2 241.2,-14.2 377.5,0 872.9,107.3 1220,580.9 228,311.4 589.6,781.8 1017.4,1254.8 117.4,129.9 260.2,182 396.9,182 104.9,0 206.2,-30.7 289.7,-80.7 191.4,-114.5 338.2,-360.1 234.5,-650.5 -647.9,-1813.9 -2382.4,-3561.1 -4718.7,-4788.8 -61.2,-13.8 -122.1,-27.1 -183.4,-40 m 893.4,60.4 c 1125.1,363.4 2206.8,866.8 3175.3,1475.5 -143.5,-81.1 -289,-160 -436.4,-236.5 1779.3,1027.1 3192.4,2381.5 3928.6,3828.5 591.4,1162.4 728,2316.3 406.8,3432.6 7.9,2.4 15.5,4.8 23.3,7.2 1014.9,-3534.8 -2710.7,-7091.5 -7097.6,-8507.3"
         style="fill:#c37342;fill-opacity:1;fill-rule:nonzero;stroke:none"
         id="path28" />
      <path
         d="m 23364.5,10139.5 c 37.1,11.6 73.9,23.3 110.8,35.2 2.5,0.8 4.6,1.5 7,2.3 -2.2,-0.8 -4.6,-1.5 -6.9,-2.3 -36.9,-11.9 -73.8,-23.6 -110.9,-35.2"
         style="fill:#9fa6d6;fill-opacity:1;fill-rule:nonzero;stroke:none"
         id="path30" />
      <path
         d="m 21805.8,9746.5 99,44.1 c 233.1,103.7 461.2,212.4 684.1,326 61.3,12.9 122.2,26.2 183.4,40 -210.8,-110.8 -426.6,-217.4 -646.8,-319.4 451.1,97.9 901.7,218.9 1342.4,360.7 978.2,315.2 1907.2,729.7 2753.3,1218.1 147.4,76.5 292.9,155.4 436.4,236.5 -968.5,-608.7 -2050.2,-1112.1 -3175.3,-1475.5 -2.4,-0.8 -4.5,-1.5 -7,-2.3 -36.9,-11.9 -73.7,-23.6 -110.8,-35.2 -513.2,-160.7 -1035.7,-292.1 -1558.7,-393"
         style="fill:#c3999b;fill-opacity:1;fill-rule:nonzero;stroke:none"
         id="path32" />
      <path
         d="m 31746.1,19780.5 c 41.8,-352.5 -203.4,-672.9 -550.3,-747.1 -196.6,-42.4 -394.2,-92.7 -591.7,-151.8 -2146.7,-636 -4332.5,-2220.9 -5790.8,-4193.4 -132,-202.3 -269.8,-376.6 -414.2,-524.2 -758.2,-776.4 -1700.7,-833.6 -2945.9,-510 -1675.4,426.8 -2881.2,536.3 -4577,455.8 -1499.5,-70.9 -2953.6,-499.2 -4287.5,-1187.3 -1286.2,-663.5 -2041.2,220.4 -1170.9,2457.7 l 18767,6165.1 c 823.5,-230 1475.8,-1042.3 1561.3,-1764.8"
         style="fill:#ffbc00;fill-opacity:1;fill-rule:nonzero;stroke:none"
         id="path34" />
      <path
         d="m 11838.2,12889.1 c -153,0 -280.9,43.3 -377.5,130.3 -338.1,304.2 -310.9,1096.9 68.2,2137.2 52.6,-12.1 106.1,-21.6 160.3,-28.4 33.6,-4.2 67.4,-8.2 101.3,-12.2 -344.8,-1289.9 -17.5,-1963.9 654,-1963.9 78.1,0 160.8,9.1 247.6,27.4 -62.5,-30.9 -124.9,-62.5 -187.2,-94.6 -252.6,-130.3 -478.6,-195.8 -666.7,-195.8 m 10866.3,762.8 c -353,0 -751,61 -1206.4,179.3 -1338.5,341.2 -2384.9,485.9 -3659,485.9 -308.1,0 -629.6,-8.4 -971.6,-24.6 -1028.3,-48.7 -2052.3,-260.5 -3058.1,-631.5 1161.7,515.4 2401.9,833.5 3674.9,893.6 336.2,15.9 653.2,24.3 958.4,24.3 1234.1,0 2275.3,-137.9 3618.5,-480.1 455.2,-118.2 869.9,-185.6 1250,-185.6 200.2,0 390.7,18.7 572.5,58.5 -335,-216 -718.8,-319.8 -1179.2,-319.8"
         style="fill:#ffe499;fill-opacity:1;fill-rule:nonzero;stroke:none"
         id="path36" />
      <path
         d="m 24498.1,14557.8 c 708.2,1265.2 993.2,2403.5 727.8,2966.6 -63.4,134.5 -156.1,236.1 -277.1,304.3 1953.9,924.6 3675.5,2018 5034.8,3210.5 330.1,-211.5 1070.9,-745.8 1117.9,-1306.3 18,-214.6 -68.5,-414.3 -257.5,-594.7 -2268.7,-582.9 -4610.6,-2222.1 -6177.6,-4341 -2.1,-2.9 -4.2,-5.9 -6.2,-8.9 -53,-81.4 -106.9,-158.2 -162.1,-230.5"
         style="fill:#c38424;fill-opacity:1;fill-rule:nonzero;stroke:none"
         id="path38" />
      <path
         d="m 24316.5,14340.6 c 801.6,1346.9 1140.9,2578.3 865.3,3163 -64.1,135.9 -160.7,235.9 -288.5,298.9 18.4,8.6 37.1,17.5 55.5,26.2 121,-68.2 213.7,-169.8 277.1,-304.3 265.4,-563.1 -19.6,-1701.4 -727.8,-2966.6 -59.1,-77.5 -119.6,-149.9 -181.6,-217.2 m 6527.5,4797.6 c 189,180.4 275.5,380.1 257.5,594.7 -47,560.5 -787.8,1094.8 -1117.9,1306.3 13.1,11.4 25.9,22.7 38.9,34.1 342.8,-219 1078.7,-753.8 1127.6,-1336.3 17.4,-207.2 -55,-400.3 -215.5,-576.1 -30.3,-7.4 -60.3,-14.9 -90.6,-22.7"
         style="fill:#c38424;fill-opacity:1;fill-rule:nonzero;stroke:none"
         id="path40" />
      <path
         d="m 30229.6,21672.2 c -34.3,-141.3 -112.1,-268.5 -220.6,-365.9 -1587.1,-1428.8 -3620.8,-2652.4 -5814.4,-3620.1 l -1.4,-1 c -4259.3,-1879.4 -9120,-2795 -12481.6,-2375.7 -465.9,58 -869.8,348.2 -1076.9,770 -405.1,825 -681.95,2104.4 -364.4,2512.3 l 9705.8,3233.1 9065.1,3019.8 c 815.7,-285.3 1409.2,-2267.4 1188.4,-3172.5"
         style="fill:#a5343f;fill-opacity:1;fill-rule:nonzero;stroke:none"
         id="path42" />
      <path
         d="m 10286,18569.9 c -292.18,-391.5 -46.3,-1627.6 371.8,-2479 204.4,-416.3 599.5,-698.8 1057,-755.8 3355.2,-418.6 8245.4,512 12460.6,2370.5 l 0.3,0.4 8.5,3.8 c 2297.9,1013.7 4306.2,2264 5807.5,3615.7 106.5,95.5 180.1,217.6 212.9,352.8 227,930.7 -396.5,2858.7 -1163.7,3139.1 L 10286,18569.9 m 3136.7,-3385.3 c -604.5,0 -1178.7,32.6 -1714.3,99.4 -474.7,59.1 -884.8,352.2 -1096.8,784.2 -427.9,871.2 -681.64,2128.5 -361.6,2539.5 l 4.8,6.2 7.4,2.4 18779.2,6255.7 8.3,-2.9 c 379.8,-132.8 743.8,-632.1 998.8,-1369.8 232.7,-673.2 313.6,-1392.8 206.2,-1833.2 -35.3,-145.4 -114.3,-276.5 -228.5,-379 -1503.5,-1353.6 -3513.3,-2605.5 -5812.7,-3620.7 l -0.9,-1.7 -12,-4.2 C 20650.5,16093.9 16617.4,15184.7 13422.7,15184.6"
         style="fill:#390176;fill-opacity:1;fill-rule:nonzero;stroke:none"
         id="path44" />
      <path
         d="m 11979.8,15463.1 c -82.7,8.5 -164.5,17.8 -245.3,27.9 -82.8,10.3 -163.2,29 -240.3,55.3 -3.3,1.5 -6.7,2.9 -10.1,4.2 -6.8,2.7 -13.7,4.9 -20.6,6.7 -286.9,106.5 -525.7,319.8 -664.6,603 -427.4,870.6 -617.7,2019.5 -384.1,2319.4 5,6.4 9.5,13.1 13.6,20 150.6,-55.9 306.1,-107.3 466.1,-154.2 -117.6,-548.1 132.3,-1562.7 472.8,-2256.1 134,-272.9 350.3,-490.7 612.5,-626.2 m 16909.1,9096.5 c 27.7,39.2 54.3,78.3 79.7,117.4 4.1,-1.8 8.2,-3.4 12.4,-4.8 34.5,-12.1 68.7,-28.1 102.6,-47.8 l -194.7,-64.8"
         style="fill:#dbaeb2;fill-opacity:1;fill-rule:nonzero;stroke:none"
         id="path46" />
      <path
         d="m 24756.1,18128.1 c 427.9,548.8 215.5,1091.3 213.2,1096.7 l -304.4,989 c -51.5,167.3 -173.6,302.4 -334.8,370.7 -73.4,31.1 -151.1,46.5 -228.5,46.5 -90.8,0 -181.3,-21.2 -264.2,-63.5 -1862.1,-949.8 -3994,-1558.7 -5327.3,-1881 632.4,184.9 1263.3,405 1883.3,659.6 1134.6,466 2229.3,1042.7 3253.7,1713.8 115.6,75.8 196.3,190.2 233,317.8 654.4,202.3 1306,467.2 1936.7,787.5 773.2,390.6 1485.9,851.5 2061.3,1333.2 l 5.3,2.3 2.1,4 c 333.2,279.8 613.2,559.4 837.2,835.9 675.7,-495.3 1180.7,-2183.4 972.8,-3035.5 -3.5,-14.4 -7.4,-28.6 -11.8,-42.6 -1405.5,-1222.4 -3105.4,-2273.6 -4927.6,-3134.4"
         style="fill:#842550;fill-opacity:1;fill-rule:nonzero;stroke:none"
         id="path48" />
      <path
         d="m 24655.5,18080.8 c 494.7,545.7 279.6,1099.1 268,1127.6 l -305.2,991 c -47.3,153.6 -159.2,277.6 -307.2,340.2 -67.3,28.4 -138.5,42.6 -209.5,42.6 -83.2,0 -166.1,-19.4 -242,-58.2 -2964.7,-1512.1 -6610.9,-2161.8 -6647.4,-2168.2 l -18.9,-3.3 c 437.7,94.2 877.5,205.5 1316.8,334 1333.3,322.3 3465.2,931.2 5327.3,1881 82.9,42.3 173.4,63.5 264.2,63.5 77.4,0 155.1,-15.4 228.5,-46.5 161.2,-68.3 283.3,-203.4 334.8,-370.7 l 304.4,-989 c 2.3,-5.4 214.7,-547.9 -213.2,-1096.7 -33.5,-15.8 -67.1,-31.6 -100.6,-47.3 m 5028.2,3181.7 c 4.4,14 8.3,28.2 11.8,42.6 207.9,852.1 -297.1,2540.2 -972.8,3035.5 10.5,13 20.9,25.9 31.2,38.9 299.3,-216.7 576.7,-657.2 782.8,-1253.5 228.1,-659.9 310.4,-1364.3 212.2,-1806.5 -21.7,-19 -43.4,-38 -65.2,-57"
         style="fill:#842550;fill-opacity:1;fill-rule:nonzero;stroke:none"
         id="path50" />
      <path
         d="m 13438.7,15026.7 c -617.7,0 -1203.8,33.4 -1749.5,101.5 -527.7,65.8 -983.2,391.4 -1218.6,870.9 -397.3,809.3 -737.95,2199.7 -344.3,2705.2 62,79.6 176.9,93.8 256.6,31.9 79.6,-62.1 93.9,-176.9 31.9,-256.6 -233.6,-299.9 -43.3,-1448.8 384.1,-2319.4 180.8,-368.5 530.6,-618.7 935.6,-669.2 531,-66.2 1104.4,-98.8 1710.1,-98.8 4978.5,-0.2 12167.8,2202.1 16442.2,6050 82.6,74.3 139.7,168.8 165.2,273.3 210.3,861 -374.1,2712.6 -1071,2956.7 -95.3,33.4 -145.5,137.6 -112.1,233 33.4,95.3 137.7,145.3 233,112.1 954.8,-334.5 1535.9,-2444.2 1305.3,-3388.6 -43,-176.2 -138.4,-334.6 -275.8,-458.3 -2208.3,-1987.9 -5425,-3710.9 -9057.4,-4851.4 -2686.6,-843.6 -5373.4,-1292.3 -7635.3,-1292.3"
         style="fill:#390176;fill-opacity:1;fill-rule:nonzero;stroke:none"
         id="path52" />
      <path
         d="m 11834.4,12523.6 c -242.5,0 -452.3,74.6 -618.3,224 -486.6,437.9 -475.4,1396.4 31.3,2698.9 36.6,94 142.4,140.7 236.7,104 94.1,-36.5 140.7,-142.6 104.1,-236.6 -434.8,-1117.4 -482.4,-1975.1 -127.5,-2294.5 215.5,-194 586.3,-170.7 1044.2,65.5 1418,731.4 2885.8,1137.7 4362.6,1207.6 1756.6,83.1 2968.5,-37.6 4630.6,-461.3 1562.6,-405.9 2448.9,-137.6 3162.1,957.1 2,3 4.1,6 6.2,8.9 1639.3,2216.7 4126.6,3908.4 6491.1,4414.9 257.9,55.2 436.6,295.4 406.9,546.8 -71.1,602.5 -637.6,1389.4 -1428.7,1610.1 -97.3,27.1 -154.1,127.9 -127,225.2 27.2,97.2 127.9,153.7 225.2,127 850.6,-237.3 1594.5,-1080.4 1693.6,-1919.5 52.5,-444 -245.6,-851.3 -693.4,-947.2 -2279.6,-488.3 -4681.9,-2124.4 -6270.5,-4270.4 -424,-648.9 -926.5,-1044.2 -1536,-1208.4 -546.2,-147.1 -1188.2,-114.8 -2020.6,101.4 -1622.1,413.5 -2805.8,531.3 -4522.2,450.1 -1424,-67.3 -2841.3,-460.1 -4212.4,-1167.3 -305.3,-157.5 -588.9,-236.3 -838,-236.3"
         style="fill:#390176;fill-opacity:1;fill-rule:nonzero;stroke:none"
         id="path54" />
      <path
         d="m 19286.8,9319 c -830.5,0 -1629.7,83.6 -2365.2,252.9 -2165.8,498.5 -3666.5,1708.8 -4225.7,3408.1 -31.6,95.9 20.6,199.2 116.5,230.8 95.7,31.5 199.3,-20.6 230.8,-116.5 663.5,-2016.1 2519.9,-2834.5 3960.4,-3166.1 1894.3,-436 4232.7,-282.7 6415.7,420.5 2996.7,965.4 5521.6,2868.9 6589.5,4967.8 600.5,1180.4 717.2,2349.5 346.9,3474.8 -31.5,95.9 20.6,199.2 116.5,230.8 95.7,31.4 199.3,-20.6 230.9,-116.5 401.8,-1221.2 277.8,-2484.5 -368.5,-3754.9 -1110.3,-2182.5 -3717.2,-4155.9 -6803.2,-5150 C 22130.8,9549.5 20665.9,9319 19286.8,9319"
         style="fill:#390176;fill-opacity:1;fill-rule:nonzero;stroke:none"
         id="path56" />
      <path
         d="m 23415.8,23113.2 437,-1419.5 c 70.9,-230.3 -18.8,-480.3 -219.9,-612.3 -1061.3,-695.3 -2155.9,-1262.3 -3249.3,-1711.4 -3872.7,-1590.5 -7732.3,-1704.6 -10031.7,-813.8 -274.5,106.5 -496.16,315.8 -617.74,583.5 -250.32,551.5 -184.41,984.6 -184.41,984.6 L 20714,22531 l 2701.8,582.2"
         style="fill:#ff1e00;fill-opacity:1;fill-rule:nonzero;stroke:none"
         id="path58" />
      <path
         d="m 9573.22,20102.9 c -8.55,-85.7 -31.74,-476.3 184.42,-952.5 119.44,-263 333.76,-465.5 603.56,-570.1 2510.5,-972.6 6440.7,-653.4 10012.6,813.5 1131.5,464.8 2223.3,1039.9 3245,1709.2 190.4,125 276.5,364.8 209.3,583.2 L 23398.2,23083 20719.4,22505.7 9573.22,20102.9 m 4214.18,-2131 c -1291.6,0 -2473.5,184 -3444.8,560.3 -282.5,109.5 -506.88,321.5 -631.93,596.9 -250.63,552.1 -189.16,981 -186.42,999 l 2.68,17.6 17.38,3.7 13889.19,2993.9 443.9,-1442 c 73.9,-240.2 -20.8,-504 -230.3,-641.4 -1024.4,-671.1 -2119.1,-1247.8 -3253.7,-1713.8 -2203.3,-904.9 -4544,-1374.2 -6606,-1374.2"
         style="fill:#390176;fill-opacity:1;fill-rule:nonzero;stroke:none"
         id="path60" />
      <path
         d="m 14344.3,18047.8 c -325.9,100.2 -433.4,807.9 -433.4,807.9 L 13627,19980 c 350,-67 690.6,-220.7 1020.3,-385.2 129.1,-64.4 254.4,-138.7 387,-217.4 28.5,-16.9 57.1,-33.9 85.9,-50.8 32,-120.1 63.7,-246.3 91.1,-368.5 107.1,-476.7 -47.3,-820.2 -47.3,-820.2 l -819.7,-90.1"
         style="fill:#ff5640;fill-opacity:1;fill-rule:nonzero;stroke:none"
         id="path62" />
      <path
         d="m 20464,19431.2 c 93.9,163.9 102.8,465.2 20.6,838.4 -68,308.5 -341.2,520.3 -642.4,520.3 -45,0 -90.8,-4.8 -136.5,-14.6 -529.2,-114.3 -1118.1,-407.9 -1583.5,-679.4 15.1,17.4 30.1,34.7 45.1,51.9 282.8,326.1 549.9,634 891.6,847.9 310.7,194.5 683.9,297.3 1060.4,297.3 115.3,0 230.9,-9.6 345,-29.2 67.4,-11.5 134.8,-17.2 201.8,-17.2 362.8,0 709.8,166.1 938.6,458.7 20.9,26.8 41.8,49.6 63.8,69.7 129.4,118.1 331.7,143.5 545.5,143.5 54.8,0 110.4,-1.7 165.7,-3.9 144.8,-5.7 284.9,-22.2 433.2,-39.7 186.1,-21.8 376.2,-44.2 577.2,-44.2 98.2,0 199.1,5.4 303.4,18.7 l 138.8,-451.1 c -32.4,-118.6 -106.5,-225.1 -213.5,-295.3 -994.5,-651.5 -2055.4,-1213.7 -3154.8,-1671.8"
         style="fill:#c31524;fill-opacity:1;fill-rule:nonzero;stroke:none"
         id="path64" />
      <path
         d="m 20462.8,19429.1 c 0.4,0.7 0.8,1.4 1.2,2.1 1099.4,458.1 2160.3,1020.3 3154.8,1671.8 107,70.2 181.1,176.7 213.5,295.3 l 0.8,-2.5 c -32.9,-118 -106.9,-224 -213.6,-294 -995,-651.9 -2056.6,-1214.4 -3156.7,-1672.7"
         style="fill:#390176;fill-opacity:1;fill-rule:nonzero;stroke:none"
         id="path66" />
      <path
         d="m 20373.8,19393.8 c 130.3,120.1 154.7,450 63.2,865.3 -63,285.8 -315.9,482.1 -594.7,482.1 -41.7,0 -84,-4.4 -126.3,-13.6 -573.2,-123.7 -1218.4,-460.8 -1696.6,-749.2 34.6,39.2 68.9,78.5 102.8,117.5 465.4,271.5 1054.3,565.1 1583.5,679.4 45.7,9.8 91.5,14.6 136.5,14.6 301.2,0 574.4,-211.8 642.4,-520.3 82.2,-373.2 73.3,-674.5 -20.6,-838.4 -30.1,-12.6 -60.1,-25 -90.2,-37.4"
         style="fill:#c31524;fill-opacity:1;fill-rule:nonzero;stroke:none"
         id="path68" />
      <path
         d="m 20250.9,19289.1 116.9,99.4 c 2,1.7 4,3.5 6,5.3 30.1,12.4 60.1,24.8 90.2,37.4 -0.4,-0.7 -0.8,-1.4 -1.2,-2.1 1100.1,458.3 2161.7,1020.8 3156.7,1672.7 106.7,70 180.7,176 213.6,294 l 9.1,-29.7 24.6,7.6 c 3.9,1.2 7.8,2.3 11.6,3.5 -36.7,-126.9 -117,-240.6 -232.1,-316.1 C 22622,20390 21527.4,19813.4 20392.8,19347.4 l -141.9,-58.3"
         style="fill:#390176;fill-opacity:1;fill-rule:nonzero;stroke:none"
         id="path70" />
      <path
         d="m 13002.4,18046.9 c -978.5,60.5 -1876.1,237 -2641.2,533.4 -269.8,104.6 -484.12,307.1 -603.56,570.1 -148.67,327.5 -184.12,614.6 -188.98,789.8 134.71,35 263.84,67.1 385.3,67.1 38.29,0 75.84,-3.2 112.54,-10.5 18.3,-3.6 36.3,-8.2 54.3,-13.8 -3.1,-163.8 18.6,-489.2 191.9,-871 121.6,-267.7 343.3,-477.1 617.8,-583.5 594.9,-230.5 1294.6,-393.6 2071.9,-481.6"
         style="fill:#ffa599;fill-opacity:1;fill-rule:nonzero;stroke:none"
         id="path72" />
      <path
         d="m 13466.4,18004 c -1199.7,30.8 -2263.6,222.6 -3114.5,552.2 -274.5,106.5 -496.16,315.8 -617.74,583.5 -149.31,329 -186.11,615.8 -191.49,793.7 1.3,0.3 2.59,0.7 3.89,1 7.39,1.9 14.75,3.9 22.1,5.8 4.86,-175.2 40.31,-462.3 188.98,-789.8 119.44,-263 333.76,-465.5 603.56,-570.1 765.1,-296.4 1662.7,-472.9 2641.2,-533.4 151.8,-17.2 306.5,-31.5 464,-42.9"
         style="fill:#b099c8;fill-opacity:1;fill-rule:nonzero;stroke:none"
         id="path74" />
      <path
         d="m 28736.1,26745.1 379.3,-1232.5 c 68.8,-223.3 42.3,-465.4 -74.2,-667.9 -254.1,-441.9 -662.2,-892.5 -1175.9,-1323.2 l -0.8,-0.8 c -577.8,-484.1 -1287.5,-942.6 -2059.3,-1332.5 -620.9,-315.3 -1282.1,-585.6 -1945.9,-789.9 l -441,1432.6 1503.8,1270.7 2560,2163.7 765.5,646.7 c 176.9,124.5 424.7,40.2 488.5,-166.9"
         style="fill:#ff1e00;fill-opacity:1;fill-rule:nonzero;stroke:none"
         id="path76" />
      <path
         d="m 23448,22822.2 428.3,-1391.6 c 647.9,200.9 1292.7,463.5 1917.2,780.6 769.4,388.6 1478.4,847.1 2050.8,1326.2 l 2.7,5.2 5.6,1.8 c 527.5,442.9 919.8,884.7 1166.3,1313.2 112.2,195.2 138.5,431.2 71.9,647.5 l -379.4,1232.4 c -27.9,90.6 -95.5,160.2 -185.4,191 -89.9,30.7 -186,17 -263.5,-37.6 L 23448,22822.2 m 394.2,-1456.1 -453.5,1473.4 13,11 4829.3,4081.2 c 93,65.6 205.9,81.8 311.7,45.6 105.7,-36.2 185.2,-118 218,-224.7 l 379.4,-1232.4 c 70.7,-229.9 42.9,-480.8 -76.5,-688.3 -249.5,-433.8 -645.8,-880.3 -1178.1,-1327.2 l -2.1,-4 -5.3,-2.3 c -575.4,-481.7 -1288.1,-942.6 -2061.3,-1333.2 -634.9,-322.4 -1291,-588.7 -1950,-791.5 l -24.6,-7.6"
         style="fill:#390176;fill-opacity:1;fill-rule:nonzero;stroke:none"
         id="path78" />
      <path
         d="m 28018.2,23902 c 3,199.8 -52.6,379.1 -55.2,387.3 l -167.3,543.4 c 133.4,96.5 233.4,221.1 287.8,364.6 79.6,209.9 52,425.5 27.7,615.7 -10,79 -19.6,153.6 -21.9,225.2 -6.2,192.2 48.3,386.4 147.1,554.6 13.6,-21.7 24.6,-45.5 32.4,-71 l 379.4,-1232.5 c 66.7,-216.6 40.4,-453 -72.1,-648.5 -138,-240.5 -325.5,-488.8 -557.9,-738.8"
         style="fill:#c31524;fill-opacity:1;fill-rule:nonzero;stroke:none"
         id="path80" />
      <path
         d="m 27960.4,23769.9 5.9,69.2 c 18.5,215.5 -49.2,433.5 -49.9,435.7 l -162.8,529 c 14.4,9.3 28.4,18.9 42.1,28.9 l 167.3,-543.4 c 2.6,-8.2 58.2,-187.5 55.2,-387.3 232.4,250 419.9,498.3 557.9,738.8 112.5,195.5 138.8,431.9 72.1,648.5 l -379.4,1232.5 c -7.8,25.5 -18.8,49.3 -32.4,71 8.9,15.3 18.2,30.3 27.9,45 22.3,-30.4 39.7,-64.6 51.1,-101.7 l 379.4,-1232.4 c 70.7,-229.5 42.8,-480 -76.4,-687.3 -148.8,-259.1 -354.1,-527 -610.1,-796.2 l -47.9,-50.3"
         style="fill:#c31524;fill-opacity:1;fill-rule:nonzero;stroke:none"
         id="path82" />
      <path
         d="m 23876.3,21430.6 -131.1,426 c 13.1,2 26.3,4.1 39.5,6.4 579.3,98.8 1084.1,554.5 1476.5,1326.8 l 188,-611 c 4.2,-13.1 105.3,-322.7 278.6,-348.1 0.6,-0.1 12.2,-2.1 38.8,-33.1 -616.1,-311 -1251.7,-569 -1890.3,-767"
         style="fill:#c31524;fill-opacity:1;fill-rule:nonzero;stroke:none"
         id="path84" />
      <path
         d="m 23875.4,21428.8 -131.6,427.6 c 0.4,0 0.9,0.1 1.4,0.2 l 131.1,-426 c 638.6,198 1274.2,456 1890.3,767 0.3,-0.4 0.6,-0.8 1,-1.1 -616.7,-311.3 -1253.1,-569.5 -1892.2,-767.7"
         style="fill:#390176;fill-opacity:1;fill-rule:nonzero;stroke:none"
         id="path86" />
      <path
         d="m 25766.6,22197.6 c -26.6,31 -38.2,33 -38.8,33.1 -173.3,25.4 -274.4,335 -278.6,348.1 l -188,611 c 10.6,20.9 21.1,41.9 31.5,63.3 l 203,-659.7 c 26.2,-81.3 120.2,-297 239,-314.5 22.1,-3.1 46.7,-21.8 76.6,-58.7 -6,-3 -11.8,-6 -17.8,-9 -8.9,-4.5 -17.9,-9.1 -26.9,-13.6"
         style="fill:#c31524;fill-opacity:1;fill-rule:nonzero;stroke:none"
         id="path88" />
      <path
         d="m 23843.1,21367.9 -148.2,481.7 c 16.2,2 32.5,4.3 48.9,6.8 l 131.6,-427.6 c 639.1,198.2 1275.5,456.4 1892.2,767.7 -0.4,0.3 -0.7,0.7 -1,1.1 9,4.5 18,9.1 26.9,13.6 6,3 11.8,6 17.8,9 4.3,-5.4 8.8,-11.2 13.4,-17.4 l 17.3,-23.2 -25.8,-13.1 c -634.9,-322.4 -1290.9,-588.7 -1949.8,-791.5 l -23.3,-7.1"
         style="fill:#390176;fill-opacity:1;fill-rule:nonzero;stroke:none"
         id="path90" />
      <path
         d="m 29347.4,27892.8 c -52.5,-354.9 -470,-576.1 -788,-742.4 -403.1,-210.8 -667.8,-663.1 -653,-1118.2 8.6,-258.9 97.9,-527.7 5.9,-770.2 -91.9,-242.9 -347.8,-390.1 -603.1,-439.4 -185.3,-35.9 -374.2,-30.8 -563.2,-25.7 -71.8,1.9 -143.6,3.8 -215.2,3.5 -260.1,-1.2 -534.2,-37.5 -741.5,-194 -277.5,-210.2 -368.7,-577.1 -497,-900.7 -234.4,-592 -601.6,-1240.3 -1146.6,-1527.8 -121.4,-64.4 -251.6,-111.1 -391.6,-134.9 -29.8,-5.3 -59,-9.3 -88.2,-12.8 l -1,-0.3 c -455.5,-56.8 -850.5,50.6 -1277.9,67.5 -295,11.8 -623.8,11.6 -841.8,-187.4 -31.5,-28.5 -59.4,-59.7 -84.7,-92.3 -227.9,-292 -600.1,-436.4 -965.4,-373.9 -523.7,89.9 -1081.6,-10.6 -1533.2,-293.1 -506.6,-317.1 -856.9,-825 -1268.5,-1259 -411.2,-433.4 -955.4,-820.5 -1551.1,-771 -519.5,43.7 -946.9,404.9 -1413.1,637.7 -739.2,368.5 -1560,699.1 -2436.8,152.2 -425,-264.9 -948.7,-431.6 -1390.3,-196.2 -273.1,146.7 -496.1,401.4 -799.9,461.8 -201.34,39.7 -401.94,-12.8 -603.61,-65.4 -171.52,-44.7 -343.82,-89.4 -517.98,-77.3 -432.04,30.4 -759.52,325.2 -820.82,753.9 -61.32,428.6 155.4,868.4 425.31,1207 269.93,338.5 567.33,697.2 918.04,950.8 l 15135.66,5895.4 2338.6,910.8 c 354.8,-51.9 711.3,-112.7 1048.2,-235.8 336.5,-123.2 790.5,-336.1 1020.5,-611.9 230.4,-275 353.2,-656.1 301.3,-1010.9"
         style="fill:#8cce0d;fill-opacity:1;fill-rule:nonzero;stroke:none"
         id="path92" />
      <path
         d="m 13269.4,20227.4 c 513.6,0 1003,-212.5 1471.3,-445.9 135.7,-67.7 270,-147.4 399.8,-224.4 315,-186.9 640.6,-380.2 1003.9,-410.8 618.4,-50.5 1173.1,386.8 1530.3,763.2 115,121.2 227.2,250.6 335.8,375.8 280.2,323 569.9,657.1 937.7,887.2 448.7,280.7 1014.2,388.8 1551.3,296.8 357.1,-61.3 717.5,78.5 940.7,364.3 28.5,36.8 57.3,68 87.8,95.5 221.1,201.9 546.3,206.6 860.1,194 152.7,-6 303.3,-23.8 449,-40.9 262.5,-31 533.9,-63 824.6,-26.7 29.9,3.7 58.5,7.7 87.8,12.9 131.5,22.4 260.7,66.8 384.2,132.3 448.7,236.7 830.4,746.2 1134.6,1514.4 22.8,57.5 44.4,116.4 66.2,175.6 100.8,274.8 205.2,559 439.2,736.2 234,176.7 544.2,198.3 757,199.3 71.6,0.7 145.3,-1.7 216.1,-3.6 184.2,-4.9 375,-10 557.6,25.3 221,42.7 490.4,176.3 583.8,423.3 61.3,161.5 39.3,333.7 16,516 -10.3,80.1 -20.8,162.9 -23.5,244.2 -15.2,466.5 252.7,925.4 666.8,1141.8 305.3,159.7 723.3,378.3 774.3,723.4 49,334.8 -64.2,714.4 -295.5,990.6 -244.9,293.6 -737.6,504.6 -1009.5,604.2 -342.7,125.2 -714.2,186.3 -1036.3,233.5 L 24648.2,28816.6 9515.61,22922.3 c -345.02,-250.1 -638.87,-603.5 -910.36,-944 -186.76,-234.3 -489.64,-700 -419.92,-1187.3 59.28,-414.6 372.17,-701.9 797.07,-731.7 170.16,-12.1 343.85,33.3 511.58,77 199.95,52.1 406.64,106.1 613.12,65.2 199.1,-39.5 365.3,-160.8 526.1,-278.1 90.2,-65.8 183.4,-133.8 281,-186.3 493.1,-262.7 1066.6,9.7 1364.6,195.4 340,212.1 670,294.9 990.6,294.9 M 16243,19090.7 c -34.4,0 -68.8,1.4 -102.9,4.3 -375.1,31.6 -706,227.8 -1026,417.7 -129,76.5 -262.4,155.7 -396.4,222.6 -747.5,372.6 -1549.4,691.3 -2411.6,153.5 -307.5,-191.7 -900.3,-472.2 -1416.2,-197.1 -100.8,54.1 -195.5,123.2 -287.1,190 -163.4,119.3 -317.8,231.9 -505.7,269.2 -194.83,38.4 -386.91,-11.6 -590.14,-64.5 -171.63,-44.8 -348.73,-91.3 -528.17,-78.6 -450.19,31.6 -781.69,336.2 -844.53,775.9 -72.47,506.5 238.72,986 430.67,1226.7 274.41,344.2 571.67,701.6 923.09,955.7 l 5.76,3.1 17480.62,6808.7 6.7,-1 c 326.3,-47.7 703.6,-109.3 1053.4,-237.1 276.8,-101.3 778.8,-316.7 1031.4,-619.5 244.1,-291.5 358.8,-677 307,-1031.3 -54.8,-371 -486.4,-596.7 -801.5,-761.5 -396.9,-207.4 -653.7,-647.3 -639.1,-1094.5 2.5,-78.7 13,-160.4 23.1,-239.3 23,-180.5 46.9,-367.2 -19,-540.8 -85.6,-226.6 -318.3,-397 -622.3,-455.6 -188.1,-36.4 -381.6,-31.2 -568.7,-26.2 -70.5,1.9 -143.3,3.7 -214.5,3.5 -326.6,-1.4 -557.3,-61.4 -726.1,-188.8 -221.9,-168.1 -323.6,-445.1 -421.9,-713 -21.9,-59.5 -43.7,-118.8 -66.6,-176.7 -308.9,-780 -698.7,-1298.4 -1158.6,-1541 -128.2,-68 -262.6,-114.3 -399.3,-137.5 -30.1,-5.4 -59.7,-9.5 -89.5,-13 -297.7,-37.3 -572.2,-5 -837.9,26.3 -144.6,17.1 -294.3,34.7 -445,40.7 -303.3,12 -616.5,8.2 -823.4,-180.7 -28.3,-25.5 -55,-54.6 -81.7,-89 -234.9,-300.9 -614.6,-447.9 -990.1,-383.5 -524.8,90.2 -1077,-15.6 -1515.2,-289.6 -361.3,-226.1 -648.5,-557.1 -926.2,-877.3 -108.8,-125.6 -221.5,-255.4 -337.3,-377.5 -488,-514.3 -993.6,-783.3 -1469.1,-783.3"
         style="fill:#390176;fill-opacity:1;fill-rule:nonzero;stroke:none"
         id="path94" />
      <path
         d="m 16244.4,19299.3 c -28.9,0 -57.9,1.2 -87,3.6 -326.9,27.4 -623.1,203 -936.6,389 -132.3,78.6 -269.2,159.8 -410.2,230.1 -470.9,234.9 -991.4,460.6 -1544.6,460.6 -345.4,0 -703.7,-88 -1070.6,-316.8 -192.1,-119.9 -509.3,-280.5 -828.9,-280.5 -128.3,0 -257,25.9 -378.1,90.6 -88.5,47.3 -173.6,109.4 -263.7,175.1 -174.2,127 -354.4,258.4 -587.1,304.5 -62.6,12.4 -124.1,17.7 -184.57,17.7 -172.99,0 -337.9,-43 -498.76,-85 -145.2,-37.9 -283.02,-73.8 -414.09,-73.8 -15.65,0 -31.23,0.5 -46.69,1.6 -348.1,24.4 -604.3,258.8 -652.84,597.3 -37.44,261.6 51.52,521.6 165.39,733.2 -15.91,-106.8 -17.92,-214.6 -2.49,-321.7 61.32,-428.6 388.8,-723.5 820.85,-753.8 20.02,-1.4 40.04,-2.1 60.02,-2.1 153.85,0 306.41,39.6 458.4,79.3 151.96,39.6 303.38,79.3 454.78,79.3 49.2,0 98.5,-4.2 147.8,-14 304.4,-60.2 527.1,-315.6 800.4,-461.6 147.9,-79.1 305.2,-112.9 464.8,-112.9 316.7,0 642.8,132.9 925.1,308.9 334.3,208.5 660.6,289.5 977.1,289.5 514,0 1002.5,-213.5 1459.7,-441.6 466.2,-232.9 894.2,-594.5 1413.5,-637.7 35.1,-2.9 70,-4.4 104.7,-4.4 221.6,0 435.4,58.7 636.8,155.2 -280.3,-224.6 -621.1,-409.6 -983.1,-409.6 m 2825.3,2119.8 c 75.2,60.7 153.5,117.3 236,169 344.1,215.4 750.7,325.1 1156.7,325.1 126.2,0 252.3,-10.6 376.5,-31.9 56.5,-9.7 113.1,-14.4 169.3,-14.4 99.6,0 198,14.8 292,43.3 -158.5,-190.3 -391.3,-298 -634.2,-298 -46.3,0 -93.1,3.9 -139.8,12 -134.2,23 -270.1,34.3 -405.7,34.3 -365.3,0 -728.5,-82.3 -1050.8,-239.4 m 4320.1,777.3 c -179,0 -353.5,20.4 -534.2,41.7 -148.7,17.5 -302.5,35.5 -461.4,41.8 -61,2.5 -122.4,4.3 -183.6,4.3 -143,0 -285,-9.9 -418.6,-44.5 4.1,5.1 8.3,10.3 12.3,15.4 25.4,32.2 53.4,63.4 84.7,92.3 175.7,160.4 423.2,191.2 666.9,191.2 58.7,0 117.2,-1.7 174.4,-3.9 339.9,-13.5 659,-83.7 1003.9,-83.7 117,0 236.9,8 361.7,29.1 -53.8,-71.2 -112.4,-139.4 -175.8,-203.5 -63.3,-23.6 -128.9,-41.6 -196.9,-53.2 -114.4,-19.5 -224.7,-27 -333.4,-27"
         style="fill:#d1eb9e;fill-opacity:1;fill-rule:nonzero;stroke:none"
         id="path96" />
      <path
         d="m 26472.8,22713.2 -100.9,132.6 c -124.5,163.7 -219.2,348.1 -279.7,544.6 l -298,968.2 c 31.5,37.9 66.4,72.1 105.5,101.7 140.2,106 340.9,156 631.9,157.2 68.5,0 136.8,-1.5 209.1,-3.4 40.7,-1.1 81.6,-2.2 122.8,-2.9 l 247.5,-804 c 57.2,-186 83.1,-380.4 76.3,-574.9 l -5.6,-162.9 -708.9,-356.2"
         style="fill:#ff5640;fill-opacity:1;fill-rule:nonzero;stroke:none"
         id="path98" />
      <path
         d="m 16243.8,18933.7 c -39.1,0 -78,1.6 -116.9,4.9 -410.7,34.3 -757.4,240 -1092.6,438.8 -132.6,78.7 -257.9,153 -387,217.4 -707.3,352.9 -1464.4,656 -2258.3,160.7 -580.7,-362.2 -1139.2,-433.9 -1573,-202 -110.9,59.2 -210.5,131.8 -306.7,202.1 -148.7,108.4 -289.2,210.8 -442.8,241.2 -159.49,31.7 -334.59,-14 -519.94,-62.4 -183.93,-47.9 -374.12,-97.4 -578.66,-83.2 -518.85,36.4 -916.36,402.2 -989.16,910.3 -80.86,564.4 255.62,1086.1 463.38,1346.8 280.76,352.3 585.74,718.5 954.05,984.9 81.78,59.2 196.14,40.8 255.27,-41 59.18,-81.8 40.83,-196.1 -41.02,-255.2 -330.94,-239.4 -617.37,-584.1 -882.36,-916.6 -171,-214.6 -448.73,-638.6 -387.41,-1067.1 48.54,-338.5 304.74,-572.9 652.84,-597.3 144.91,-10.2 298.24,29.8 460.78,72.2 217.1,56.6 441.56,115.2 683.33,67.3 232.7,-46.1 412.9,-177.5 587.1,-304.5 90.1,-65.7 175.2,-127.8 263.7,-175.1 423,-226 937.8,21.9 1207,189.9 954.3,595.2 1850.2,237.8 2615.2,-143.8 141,-70.3 277.9,-151.5 410.2,-230.1 313.5,-186 609.7,-361.6 936.6,-389 555.9,-46.3 1070,363.1 1403.4,714.8 112.3,118.5 223.1,246.2 330.3,369.7 287.9,332 585.7,675.2 973.8,918.2 480.9,301.1 1086.5,417.2 1661.3,318.6 299.6,-51.6 602.4,65.9 790.3,306.2 33.5,42.9 68.1,80.5 105.5,114.7 264.9,241.8 625.5,248.8 972.2,234.8 158.9,-6.3 312.7,-24.3 461.4,-41.8 290.5,-34.2 564.8,-66.3 867.6,-14.7 696.3,118.8 1145.2,908.3 1399.1,1549.6 22.3,56.1 43.3,113.6 64.5,171.2 103.8,282.5 221.4,602.9 492.4,807.7 271.3,205.3 615.5,230.3 850.9,231.2 74.1,0.6 148.5,-1.6 220.4,-3.5 184.3,-5 358.3,-9.6 523.8,22.4 179.6,34.8 396.6,138.4 467.3,324.8 47.2,124.6 27.6,277.7 6.9,439.8 -10.7,84 -21.8,170.9 -24.6,259.8 -17,525.8 284.8,1042.6 750.9,1286.2 275.3,143.8 652.3,340.9 691.5,607 42.8,291.4 -56.9,623.7 -260.4,867.2 -162.1,194 -505.9,397.1 -943.3,557.1 -331.2,121.2 -695.9,180.6 -1011.8,226.7 -99.9,14.6 -169.1,107.4 -154.5,207.3 14.6,99.9 107.7,169.3 207.3,154.5 334,-48.8 720.8,-112 1084.7,-245.1 291.4,-106.7 821.5,-335 1098.2,-666.1 272.3,-325.8 400,-757.5 341.5,-1154.9 -66.3,-450.6 -558.2,-707.7 -883.8,-877.7 -339.1,-177.2 -567.3,-568 -554.9,-950.4 2.3,-71.6 11.9,-146.2 21.9,-225.2 24.3,-190.2 51.9,-405.8 -27.7,-615.7 -105.3,-277.8 -381.8,-485 -739.7,-554.2 -204.7,-39.7 -407.2,-34.2 -603.1,-29 -72.3,1.9 -140.6,3.4 -209.1,3.4 -291,-1.2 -491.7,-51.2 -631.9,-157.2 -185.3,-140.1 -274.9,-384 -369.7,-642.1 -22.2,-60.6 -44.4,-120.9 -67.7,-179.8 -413.7,-1044.8 -993.8,-1658.8 -1677.6,-1775.4 -354.7,-60.6 -668.5,-23.7 -971.8,11.9 -148.3,17.5 -288.4,34 -433.2,39.7 -270.8,10.8 -548.6,8.8 -711.2,-139.6 -22,-20.1 -42.9,-42.9 -63.8,-69.7 -271,-346.6 -707.8,-515.7 -1140.4,-441.5 -487.2,83.5 -999.6,-14 -1405.4,-268.1 -341.7,-213.9 -608.8,-521.8 -891.6,-847.9 -109.8,-126.5 -223.3,-257.3 -341.2,-381.6 -518.1,-546.7 -1062.6,-832.5 -1582.3,-832.5"
         style="fill:#390176;fill-opacity:1;fill-rule:nonzero;stroke:none"
         id="path100" />
      <path
         d="m 24166.1,22494.1 c 444.5,622.8 537.4,1450.6 263.5,1797.9 -41.7,52.8 -107.7,113.2 -203.9,141.4 1410.8,824.3 2344.8,1614.6 2951.1,2248.4 643.8,672.8 771.5,1673.9 317.8,2491 -3.5,6.3 -6.9,12.5 -10.4,18.8 74.1,-21.2 147.7,-44.8 220,-71.2 272,-99.6 765,-310.6 1010.1,-604.6 199.3,-238 311.1,-552.6 307,-849.5 -144.1,-143.4 -366.9,-259.9 -546.5,-353.7 -466.1,-243.6 -767.9,-760.4 -750.9,-1286.2 2.8,-88.9 13.9,-175.8 24.6,-259.8 20.7,-162.1 40.3,-315.2 -6.9,-439.8 -70.7,-186.4 -287.7,-290 -467.3,-324.8 -105.9,-20.5 -215.3,-26 -328.6,-26 -63.8,0 -128.8,1.8 -195.2,3.6 -64,1.7 -130,3.6 -196.1,3.6 -8.1,0 -16.2,0 -24.3,-0.1 -235.4,-0.9 -579.6,-25.9 -850.9,-231.2 -271,-204.8 -388.6,-525.2 -492.4,-807.7 -21.2,-57.6 -42.2,-115.1 -64.5,-171.2 -165.8,-418.9 -414.8,-900.9 -761.6,-1218 -62.7,-25.2 -127.5,-45.7 -194.6,-60.9"
         style="fill:#73902d;fill-opacity:1;fill-rule:nonzero;stroke:none"
         id="path102" />
      <path
         d="m 24032.4,22325.4 c 47.6,54.1 92.2,110.5 133.7,168.7 67.1,15.2 131.9,35.7 194.6,60.9 -101,-92.4 -210.4,-170.8 -328.3,-229.6"
         style="fill:#a3a492;fill-opacity:1;fill-rule:nonzero;stroke:none"
         id="path104" />
      <path
         d="m 23792.2,22094.6 c 36.8,29.9 72.9,61.5 107.9,94.6 46.5,43.4 90.5,88.9 132.3,136.2 117.9,58.8 227.3,137.2 328.3,229.6 346.8,317.1 595.8,799.1 761.6,1218 22.3,56.1 43.3,113.6 64.5,171.2 103.8,282.5 221.4,602.9 492.4,807.7 271.3,205.3 615.5,230.3 850.9,231.2 8.1,0.1 16.2,0.1 24.3,0.1 66.1,0 132.1,-1.9 196.1,-3.6 66.4,-1.8 131.4,-3.6 195.2,-3.6 113.3,0 222.7,5.5 328.6,26 179.6,34.8 396.6,138.4 467.3,324.8 47.2,124.6 27.6,277.7 6.9,439.8 -10.7,84 -21.8,170.9 -24.6,259.8 -17,525.8 284.8,1042.6 750.9,1286.2 179.6,93.8 402.4,210.3 546.5,353.7 -0.6,-47.9 -4.3,-95.5 -11.1,-142.1 -4.8,-31 -12.6,-62.2 -23.3,-92.8 -141.5,-104 -306.1,-190.1 -438.7,-259.4 -208.2,-108.9 -388.6,-287.5 -507.7,-502.9 -110.6,-198.9 -165.4,-419.4 -158.4,-637.7 2.6,-81.1 13.2,-163.9 23.5,-244.1 23.3,-182.4 45.3,-354.8 -16.1,-516.7 -47.6,-126.8 -147.2,-236.2 -288,-316.6 -88.1,-49.9 -190.8,-87.1 -296.9,-107.5 -118.3,-22.8 -240,-28.8 -361.2,-28.8 -65.9,0 -131.7,1.8 -196.7,3.5 -62.9,1.7 -128,3.6 -192,3.6 -8,0 -16,0 -24,-0.1 -212.7,-0.8 -522.4,-22.5 -756.2,-198.9 -110.3,-83.8 -202,-199.3 -280.4,-353 -62.4,-121.6 -111.4,-255 -158.8,-384 -21.6,-58.6 -43,-117.1 -65.6,-174.2 -214.1,-540.4 -470.1,-956.9 -761,-1238.2 l -4.4,-4.2 c -116.8,-113.2 -241.2,-205 -365.7,-271 l -346.4,-106.6"
         style="fill:#390176;fill-opacity:1;fill-rule:nonzero;stroke:none"
         id="path106" />
      <path
         d="m 24095.9,22480.1 c 459.9,609.6 565,1440 295.4,1781.7 -61.2,77.6 -138.8,122.5 -229.3,134.6 21.3,12.3 42.6,24.7 63.7,37 96.2,-28.2 162.2,-88.6 203.9,-141.4 273.9,-347.3 181,-1175.1 -263.5,-1797.9 -22.5,-5.2 -45.2,-9.7 -68.2,-13.6 -0.7,-0.1 -1.4,-0.2 -2,-0.4 m 4925.4,5186.2 c 4.1,296.9 -107.7,611.5 -307,849.5 -245.1,294 -738.1,505 -1010.1,604.6 -72.3,26.4 -145.9,50 -220,71.2 -11.3,20 -22.6,40.1 -34.1,60.1 91.2,-24.8 181.9,-53 270.8,-85.5 276.7,-101.3 778.4,-316.5 1030.8,-619.1 197.8,-236.2 310.6,-534.2 318.5,-827.2 -15,-18.3 -31.3,-36.1 -48.9,-53.6"
         style="fill:#73902d;fill-opacity:1;fill-rule:nonzero;stroke:none"
         id="path108" />
      <path
         d="m 23920.1,22276.6 c 63.4,64.1 122,132.3 175.8,203.5 0.6,0.2 1.3,0.3 2,0.4 23,3.9 45.7,8.4 68.2,13.6 -41.5,-58.2 -86.1,-114.6 -133.7,-168.7 -36.6,-18.2 -74,-34.5 -112.3,-48.8"
         style="fill:#a3a492;fill-opacity:1;fill-rule:nonzero;stroke:none"
         id="path110" />
      <path
         d="m 23520.5,21960 131,90.1 c 74.4,51.3 146.8,110 215.2,174.6 18.2,17 36,34.3 53.4,51.9 38.3,14.3 75.7,30.6 112.3,48.8 -41.8,-47.3 -85.8,-92.8 -132.3,-136.2 -35,-33.1 -71.1,-64.7 -107.9,-94.6 l 346.4,106.6 c 124.5,66 248.9,157.8 365.7,271 l 4.4,4.2 c 290.9,281.3 546.9,697.8 761,1238.2 22.6,57.1 44,115.6 65.6,174.2 47.4,129 96.4,262.4 158.8,384 78.4,153.7 170.1,269.2 280.4,353 233.8,176.4 543.5,198.1 756.2,198.9 8,0.1 16,0.1 24,0.1 64,0 129.1,-1.9 192,-3.6 65,-1.7 130.8,-3.5 196.7,-3.5 121.2,0 242.9,6 361.2,28.8 106.1,20.4 208.8,57.6 296.9,107.5 140.8,80.4 240.4,189.8 288,316.6 61.4,161.9 39.4,334.3 16.1,516.7 -10.3,80.2 -20.9,163 -23.5,244.1 -7,218.3 47.8,438.8 158.4,637.7 119.1,215.4 299.5,394 507.7,502.9 132.6,69.3 297.2,155.4 438.7,259.4 10.7,30.6 18.5,61.8 23.3,92.8 6.8,46.6 10.5,94.2 11.1,142.1 17.6,17.5 33.9,35.3 48.9,53.6 1.8,-68.2 -2,-136.1 -11.8,-202.9 v -0.2 c -5.6,-36.4 -15.1,-73.1 -28.1,-108.9 l -2.5,-6.9 -5.9,-4.3 c -145.9,-108.3 -315.1,-196.8 -451.2,-267.9 -199.8,-104.5 -373,-276.2 -487.6,-483.4 -106.3,-191.2 -158.9,-402.9 -152.3,-612.4 2.6,-78.9 13.1,-160.5 23.1,-239.5 23.1,-180.3 47,-366.9 -18.8,-540.1 -51.6,-137.4 -158.7,-255.7 -309.4,-341.8 -92.8,-52.5 -200.6,-91.6 -311.9,-112.9 -121.8,-23.7 -246.1,-29.8 -369.3,-29.8 -66.8,0 -133.3,1.8 -199.1,3.6 -67.6,1.8 -137.5,3.5 -205.9,3.5 -2.9,0 -5.7,0 -8.6,0 -326.9,-1.4 -557.9,-61.5 -726.9,-189.1 -104.3,-79.2 -191.5,-189.2 -266.5,-336.3 -61.1,-119.1 -109.5,-251 -156.4,-378.6 -21.7,-59.1 -43.4,-117.9 -66.1,-175.3 -214.9,-542.5 -472.3,-962.4 -765.2,-1248.4 l 2.8,-9.2 -18.4,-5.9 c -119,-114.6 -245.8,-207.8 -377.1,-276.9 l -636.6,-196.3"
         style="fill:#390176;fill-opacity:1;fill-rule:nonzero;stroke:none"
         id="path112" />
      <path
         d="m 13808.2,17818.2 c -1365.2,0 -2574,200.2 -3522.4,567.7 -320.98,124.3 -576.1,365.3 -718.29,678.4 -269.58,593.6 -201.61,1067.4 -198.63,1087.3 15.23,99.9 108.69,168.4 208.25,153.3 99.51,-15.2 168.02,-107.9 153.37,-207.4 -0.54,-3.9 -52.25,-392.8 169.92,-882 102.48,-225.5 286.18,-399.1 517.48,-488.7 2901,-1123.9 8337.4,-623.5 13114.6,2507.6 132.4,86.8 192.3,253.6 145.5,405.6 l -106.8,346.9 c -29.7,96.5 24.5,198.8 121,228.6 96.8,29.5 198.8,-24.5 228.5,-121 l 106.8,-346.9 c 94.4,-306.6 -26.8,-643.5 -294.7,-819.1 -3331.4,-2183.4 -6988.6,-3110.2 -9924.6,-3110.3"
         style="fill:#390176;fill-opacity:1;fill-rule:nonzero;stroke:none"
         id="path114" />
      <path
         d="m 23859.2,21215.7 c -78.2,0 -150.5,50.4 -174.6,129 -29.8,96.5 24.4,198.8 120.9,228.5 2213.9,681.5 4349.3,2095.7 5077.4,3362.6 90.5,157.4 111.5,348 57.6,523.1 l -379.4,1232.5 c -13,42.1 -44.3,74.4 -85.9,88.7 -41.7,14.2 -86.3,7.8 -122.2,-17.6 -82.6,-58.1 -196.6,-38.5 -254.8,44 -58.2,82.5 -38.5,196.6 44,254.8 132.9,93.7 297.3,117.4 451.1,64.8 153.8,-52.6 269.5,-171.8 317.3,-327.1 l 379.3,-1232.5 c 83.7,-271.6 50.9,-567.9 -90,-812.9 -782.1,-1360.9 -2956.2,-2812.4 -5286.8,-3529.8 -18,-5.5 -36.1,-8.1 -53.9,-8.1"
         style="fill:#390176;fill-opacity:1;fill-rule:nonzero;stroke:none"
         id="path116" />
      <path
         d="m 22868.7,26018.4 -22.4,20.7 c 0,0 24.1,4.1 22.4,-20.7"
         style="fill:#390176;fill-opacity:1;fill-rule:nonzero;stroke:none"
         id="path118" />
      <path
         d="m 22844.8,26020.1 c 1,-2.2 3.6,-4.8 5.7,-5.1 l -0.9,4.8 -4.8,0.3 m 44.6,-54.1 -96,88.9 48.8,8.3 c 3.8,0.6 23.1,3.1 37.7,-10.2 6.8,-6.1 14.5,-17.3 13.1,-36.3 l -3.6,-50.7"
         style="fill:#390176;fill-opacity:1;fill-rule:nonzero;stroke:none"
         id="path120" />
      <path
         d="m 27334.8,29084.1 c 411.1,-740.4 295.4,-1664 -290.1,-2276 -1031,-1077.5 -3220.3,-2801 -7540.7,-4280.9 -4534.8,-1553.5 -7354.1,-1214.5 -8776,-784.2 -742.03,224.7 -1280.33,866.4 -1369.38,1636.5 -438.69,3793.5 2329.08,8274.9 6902.68,9682.6 4507,1387.3 9242.3,-679.6 11073.5,-3978"
         style="fill:#ffa42c;fill-opacity:1;fill-rule:nonzero;stroke:none"
         id="path122" />
      <path
         d="m 13444,21568.7 c -1213.8,0.1 -2094.4,177.2 -2663,349.4 -99.8,30.1 -195.5,68.7 -286.3,114.6 -24.1,21.5 -47.5,43.5 -70.5,66.1 127.9,-4 256.8,-6.1 387.2,-6.1 1797.9,0.1 3832.1,385.6 6055.2,1147.3 4238.6,1451.9 6445.5,3132.5 7550.6,4286.8 595.2,622.7 713.2,1549 293.6,2304.8 -726.8,1308.8 -1942.2,2459.1 -3432.2,3251.5 95.4,-14.6 190.6,-30.6 285.4,-47.9 2512.9,-624.9 4586,-2193.6 5611,-4039.8 375.4,-676.3 270,-1504.5 -262.4,-2060.9 C 25824.2,25797 23645.1,24139 19444.8,22700.1 16917.4,21834.3 14930.7,21568.7 13444,21568.7"
         style="fill:#c37342;fill-opacity:1;fill-rule:nonzero;stroke:none"
         id="path124" />
      <path
         d="m 10811.4,22092.7 c -130.4,0 -259.3,2.1 -387.2,6.1 -16.7,16.5 -33.1,33.3 -49.3,50.4 143.3,-5.1 288.5,-7.7 434.9,-7.7 1792.4,0 3822.1,384.4 6041,1144.6 4229.3,1448.7 6429.8,3124 7531.1,4274.4 580.4,607.2 695.5,1510.4 286.2,2247.4 -742.7,1337.5 -1999.7,2508.9 -3539.3,3298.4 l -84.4,43.3 c 175.1,-33.6 348.4,-71.8 519.6,-114.4 -94.8,17.3 -190,33.3 -285.4,47.9 1490,-792.4 2705.4,-1942.7 3432.2,-3251.5 419.6,-755.8 301.6,-1682.1 -293.6,-2304.8 -1105.1,-1154.3 -3312,-2834.9 -7550.6,-4286.8 -2223.1,-761.7 -4257.3,-1147.2 -6055.2,-1147.3"
         style="fill:#c37342;fill-opacity:1;fill-rule:nonzero;stroke:none"
         id="path126" />
      <path
         d="m 10374.9,22149.2 c -13.5,0.5 -27,1 -40.5,1.6 l -41.8,1.6 c -412.75,283.3 -692.97,734.5 -752.38,1248.1 -397.47,3437.3 2079.68,8041.7 6774.88,9486.9 669.7,206.2 1336.6,335.2 1992.8,396 -515.3,-71.7 -1032.1,-184.9 -1546.2,-343.2 -4573.4,-1407.7 -7341.49,-5889 -6902.83,-9682.4 49.21,-424.8 234.93,-810.4 516.03,-1108.6"
         style="fill:#ffdbab;fill-opacity:1;fill-rule:nonzero;stroke:none"
         id="path128" />
      <path
         d="m 10494.7,22032.7 c -32.7,16.5 -64.7,34 -96.1,52.4 -4.2,4.9 -8.4,10 -12.6,15 12.8,-0.5 25.5,-0.9 38.2,-1.3 23,-22.6 46.4,-44.6 70.5,-66.1"
         style="fill:#e7c7b3;fill-opacity:1;fill-rule:nonzero;stroke:none"
         id="path130" />
      <path
         d="m 10398.6,22085.1 c -36.2,21.2 -71.5,43.6 -106,67.3 l 41.8,-1.6 c 13.5,-0.6 27,-1.1 40.5,-1.6 16.2,-17.1 32.6,-33.9 49.3,-50.4 -12.7,0.4 -25.4,0.8 -38.2,1.3 4.2,-5 8.4,-10.1 12.6,-15"
         style="fill:#e7c7b3;fill-opacity:1;fill-rule:nonzero;stroke:none"
         id="path132" />
      <path
         d="m 19204.8,33324.8 c -940.9,0 -1912.4,-136.6 -2889.7,-437.4 -4695.2,-1445.2 -7172.35,-6049.6 -6774.88,-9486.9 80.61,-696.8 567.58,-1278.7 1240.78,-1482.4 1265.1,-383.1 4073,-790.6 8663.8,782 4200.3,1438.9 6379.4,3096.9 7467.8,4234.4 532.4,556.4 637.8,1384.6 262.4,2060.9 -1331.9,2399 -4433.8,4329.4 -7970.2,4329.4 M 13455.4,21194.2 c -1176.6,0 -2093.3,165.9 -2780.4,373.9 -812.61,245.9 -1400.65,948.7 -1497.97,1790.4 -220.8,1909.3 363.23,4045.1 1602.37,5860 1308.5,1916.7 3236.3,3343.7 5428.2,4018.4 2158.6,664.4 4523.5,580.7 6659.2,-235.9 2019,-772 3705.8,-2167.3 4627.8,-3828.2 453.7,-817.1 326,-1818.2 -317.8,-2491 -1116.5,-1166.9 -3343.6,-2864.9 -7613.5,-4327.6 -2537,-869.1 -4550.1,-1159.9 -6107.9,-1160"
         style="fill:#390176;fill-opacity:1;fill-rule:nonzero;stroke:none"
         id="path134" />
      <path
         d="m 15155.1,30772.5 c -4.5,0 -9.1,0.4 -13.8,1.5 -37.9,7.9 -55.4,45.1 -63.4,75 -14.5,53.8 -11.9,131.7 7.7,225.1 20.4,97.7 53.3,186.3 92.7,249.6 31,49.8 64.3,79.4 88.8,79.4 1.9,0 3.8,-0.2 5.7,-0.6 47.3,-9.9 85.4,-157.7 39.8,-375.9 -19.5,-93.4 -48.2,-165.8 -83,-209.3 -17,-21.2 -42.8,-44.8 -74.5,-44.8"
         style="fill:#c37342;fill-opacity:1;fill-rule:nonzero;stroke:none"
         id="path136" />
      <path
         d="m 15154.9,30723.8 c -7.8,0 -15.7,0.8 -23.5,2.4 -48.6,10.2 -84.3,49.3 -100.7,110.1 -16.6,62.1 -14.2,145.4 7.2,247.8 21.6,103.1 56.7,197.4 99,265.3 41.6,67 87.8,102.4 130.5,102.4 5.2,0 10.3,-0.5 15.3,-1.5 104.7,-21.9 118.2,-239.8 77.7,-433.7 -21.4,-102.3 -52.6,-179.6 -92.8,-229.8 -32.9,-41.3 -72.3,-63 -112.7,-63 m 112.2,679.3 c -24.5,0 -57.8,-29.6 -88.8,-79.4 -39.4,-63.3 -72.3,-151.9 -92.7,-249.6 -19.6,-93.4 -22.2,-171.3 -7.7,-225.1 8,-29.9 25.5,-67.1 63.4,-75 4.7,-1.1 9.3,-1.5 13.8,-1.5 31.7,0 57.5,23.6 74.5,44.8 34.8,43.5 63.5,115.9 83,209.3 45.6,218.2 7.5,366 -39.8,375.9 -1.9,0.4 -3.8,0.6 -5.7,0.6"
         style="fill:#c37342;fill-opacity:1;fill-rule:nonzero;stroke:none"
         id="path138" />
      <path
         d="m 17546.6,31845 c -19.4,0 -38.8,6.4 -54.6,13.7 -50.6,23.2 -108.8,75 -168.1,149.8 -138.7,174.5 -171,323.8 -133.1,353.9 6,4.7 14.3,7.1 24.8,7.1 56.3,0 172.9,-69.5 289.9,-216.7 59.3,-74.8 96.7,-143.1 107.9,-197.7 6.2,-30.3 7.3,-71.5 -23.1,-95.5 -13.3,-10.7 -28.5,-14.6 -43.7,-14.6"
         style="fill:#c37342;fill-opacity:1;fill-rule:nonzero;stroke:none"
         id="path140" />
      <path
         d="m 17546.8,31796.3 c -23.5,0 -48.9,6 -75.1,18 -58.4,26.9 -121,82 -186,163.9 -123.2,155 -209,355.8 -125.2,422.4 15.5,12.3 34.2,17.9 55.1,17.9 92.1,0 227.6,-109 328,-235.4 65.1,-81.8 104.6,-155.3 117.6,-218.2 12.7,-61.7 -1.7,-112.7 -40.5,-143.5 -21.1,-16.7 -46.2,-25.1 -73.9,-25.1 m -331.2,573.2 c -10.5,0 -18.8,-2.4 -24.8,-7.1 -37.9,-30.1 -5.6,-179.4 133.1,-353.9 59.3,-74.8 117.5,-126.6 168.1,-149.8 15.8,-7.3 35.2,-13.7 54.6,-13.7 15.2,0 30.4,3.9 43.7,14.6 30.4,24 29.3,65.2 23.1,95.5 -11.2,54.6 -48.6,122.9 -107.9,197.7 -117,147.2 -233.6,216.7 -289.9,216.7"
         style="fill:#c37342;fill-opacity:1;fill-rule:nonzero;stroke:none"
         id="path142" />
      <path
         d="m 19719.3,30308.6 c -19.3,0 -38.8,6.4 -54.5,13.7 -50.7,23.3 -108.8,75.1 -168.2,149.9 -138.6,174.5 -170.9,323.7 -132.9,353.8 5.9,4.7 14.2,7.1 24.7,7.1 56.3,0 172.9,-69.4 289.8,-216.7 59.4,-74.8 96.7,-143.1 108,-197.7 6.2,-30.3 7.2,-71.4 -23.1,-95.5 -13.4,-10.6 -28.6,-14.6 -43.8,-14.6"
         style="fill:#c37342;fill-opacity:1;fill-rule:nonzero;stroke:none"
         id="path144" />
      <path
         d="m 19719.5,30259.9 c -23.5,0 -48.8,6 -75,18.1 -58.4,26.8 -121,81.9 -186.1,163.8 -123.2,155.1 -208.9,355.8 -125.1,422.4 15.5,12.3 34.2,18 55.1,18 92.1,0 227.6,-109.1 328,-235.4 65.1,-81.9 104.6,-155.4 117.5,-218.3 12.7,-61.7 -1.7,-112.7 -40.5,-143.5 -21,-16.7 -46.2,-25.1 -73.9,-25.1 m -331.1,573.2 c -10.5,0 -18.8,-2.4 -24.7,-7.1 -38,-30.1 -5.7,-179.3 132.9,-353.8 59.4,-74.8 117.5,-126.6 168.2,-149.9 15.7,-7.3 35.2,-13.7 54.5,-13.7 15.2,0 30.4,4 43.8,14.6 30.3,24.1 29.3,65.2 23.1,95.5 -11.3,54.6 -48.6,122.9 -108,197.7 -116.9,147.3 -233.5,216.7 -289.8,216.7"
         style="fill:#c37342;fill-opacity:1;fill-rule:nonzero;stroke:none"
         id="path146" />
      <path
         d="m 17089.6,28906.5 c -65.5,0 -122.7,97.8 -148.6,261.5 -15.6,98.7 -16.3,193.2 -2,266.3 12.2,62.2 35.3,103.3 60.3,107.3 1.4,0.2 2.8,0.3 4.2,0.3 48.7,0 132.8,-123.8 166.6,-337.6 14.9,-94.3 13.8,-172.2 -3.4,-225.2 -9.4,-29.5 -28.8,-65.8 -67.1,-71.8 -3.3,-0.5 -6.7,-0.8 -10,-0.8"
         style="fill:#c37342;fill-opacity:1;fill-rule:nonzero;stroke:none"
         id="path148" />
      <path
         d="m 17088.2,28857.6 c -92.8,0 -165,111 -195.3,302.8 -16.5,104.1 -17.1,204.7 -1.8,283.3 17,86.6 52.7,138.5 100.6,146 4.4,0.8 8.7,1.1 13.1,1.1 99.2,0 183.8,-191.4 213.4,-378.9 16.4,-103.3 14.7,-186.6 -5,-247.8 -19.4,-60 -57,-97.3 -105.9,-105 -6.5,-1 -12.8,-1.5 -19.1,-1.5 m -84.7,684.3 c -1.4,0 -2.8,-0.1 -4.2,-0.3 -25,-4 -48.1,-45.1 -60.3,-107.3 -14.3,-73.1 -13.6,-167.6 2,-266.3 25.9,-163.7 83.1,-261.5 148.6,-261.5 3.3,0 6.7,0.3 10,0.8 38.3,6 57.7,42.3 67.1,71.8 17.2,53 18.3,130.9 3.4,225.2 -33.8,213.8 -117.9,337.6 -166.6,337.6"
         style="fill:#c37342;fill-opacity:1;fill-rule:nonzero;stroke:none"
         id="path150" />
      <path
         d="m 13303.2,28594.9 c -7.6,0.1 -15.4,1.4 -23.3,4.4 -36.2,13.8 -47.5,53.4 -50.7,84.1 -5.7,55.5 9.4,131.9 43.5,221 35.8,93.2 82.4,175.5 131.3,231.7 35.8,41.1 70.8,64.7 95,64.7 4,0 7.6,-0.7 10.9,-1.9 23.7,-9.1 37.7,-54.1 36.7,-117.5 -1.2,-74.4 -21.5,-166.8 -57.3,-260 -34.2,-89.2 -74.1,-156.1 -115.4,-193.5 -18,-16.2 -43.3,-33 -70.7,-33"
         style="fill:#c37342;fill-opacity:1;fill-rule:nonzero;stroke:none"
         id="path152" />
      <path
         d="m 13303.3,28546.1 c -13.9,0 -27.6,2.5 -40.9,7.6 -46.2,17.8 -75.3,62.1 -81.7,124.8 -6.6,63.9 9.1,145.8 46.5,243.4 37.8,98.4 87.5,185.8 140.1,246.2 46.4,53.4 92.2,81.5 131.8,81.5 9.9,0 19.3,-1.7 28.3,-5.2 45.2,-17.4 69.4,-75.5 68,-163.7 -1.3,-80.1 -22.8,-178.4 -60.6,-276.8 -37.4,-97.6 -80.6,-169 -128.2,-212.1 -33.3,-30.1 -68.8,-45.7 -103.3,-45.7 m 195.7,654.7 c -24.2,0 -59.2,-23.6 -95,-64.7 -48.9,-56.2 -95.5,-138.5 -131.3,-231.7 -34.1,-89.1 -49.2,-165.5 -43.5,-221 3.2,-30.7 14.5,-70.3 50.7,-84.1 7.9,-3 15.7,-4.3 23.3,-4.4 27.4,0 52.7,16.8 70.7,33 41.3,37.4 81.2,104.3 115.4,193.5 35.8,93.2 56.1,185.6 57.3,260 1,63.4 -13,108.4 -36.7,117.5 -3.3,1.2 -6.9,1.9 -10.9,1.9"
         style="fill:#c37342;fill-opacity:1;fill-rule:nonzero;stroke:none"
         id="path154" />
      <path
         d="m 22769.4,31372.7 c -57,0 -138.8,43.3 -230.2,124.7 -74.6,66.4 -135.1,139.1 -170.3,204.7 -30,55.8 -38.2,102.3 -21.3,121.2 7.3,8.1 20.3,12.4 38.2,12.4 61.3,0 178.7,-50.3 307.6,-165.1 130.1,-115.8 181.4,-220.9 133.8,-274.4 -14.1,-15.8 -33.7,-23.5 -57.8,-23.5"
         style="fill:#c37342;fill-opacity:1;fill-rule:nonzero;stroke:none"
         id="path156" />
      <path
         d="m 22771,31324.1 c -70.8,0 -163,46.7 -264.2,136.9 -78.7,70.1 -142.9,147.5 -180.8,218 -41.8,77.8 -47.1,140.5 -14.8,176.7 17.9,20.1 43.7,29 74.5,29 92,0 229.4,-79 340.2,-177.6 154.8,-137.9 206.3,-266.2 137.7,-343.3 -23.7,-26.6 -55.2,-39.7 -92.6,-39.7 m -385.2,511.6 c -17.9,0 -30.9,-4.3 -38.2,-12.4 -16.9,-18.9 -8.7,-65.4 21.3,-121.2 35.2,-65.6 95.7,-138.3 170.3,-204.7 91.4,-81.4 173.2,-124.7 230.2,-124.7 24.1,0 43.7,7.7 57.8,23.5 47.6,53.5 -3.7,158.6 -133.8,274.4 -128.9,114.8 -246.3,165.1 -307.6,165.1"
         style="fill:#c37342;fill-opacity:1;fill-rule:nonzero;stroke:none"
         id="path158" />
      <path
         d="m 20156.1,32335.3 c -6.2,0 -12.3,0.4 -17.9,1 -55.5,5.4 -127.4,35.5 -207.9,86.7 -188,119.8 -267.2,250.3 -241.2,291.2 8.2,12.9 29,20.1 59.5,20.1 66.1,0 177.7,-33.7 306.4,-115.6 146.8,-93.6 214.2,-189.2 175.8,-249.6 -16.9,-26.6 -47.5,-33.8 -74.7,-33.8"
         style="fill:#c37342;fill-opacity:1;fill-rule:nonzero;stroke:none"
         id="path160" />
      <path
         d="m 20155.5,32286.6 c -7.1,0 -14.6,0.3 -22.1,1.1 -64,6.3 -141.1,38 -229.3,94.2 -167.1,106.5 -313.5,268.2 -256.1,358.5 19.1,29.9 54.9,42.9 100.2,42.9 91.2,0 221.3,-52.4 332.9,-123.5 174.9,-111.4 246.2,-229.9 190.8,-316.9 -23.4,-36.7 -64.3,-56.3 -116.4,-56.3 m -406.9,447.7 c -30.5,0 -51.3,-7.2 -59.5,-20.1 -26,-40.9 53.2,-171.4 241.2,-291.2 80.5,-51.2 152.4,-81.3 207.9,-86.7 5.6,-0.6 11.7,-1 17.9,-1 27.2,0 57.8,7.2 74.7,33.8 38.4,60.4 -29,156 -175.8,249.6 -128.7,81.9 -240.3,115.6 -306.4,115.6"
         style="fill:#c37342;fill-opacity:1;fill-rule:nonzero;stroke:none"
         id="path162" />
      <path
         d="m 15182.2,30990.1 c -43.4,-207.7 -124.3,-287.4 -200.1,-271.6 -75.9,15.9 -118.1,121.3 -74.6,329 43.4,207.7 140.1,363.2 216,347.4 75.9,-15.9 102.2,-197.1 58.7,-404.8"
         style="fill:#ffffff;fill-opacity:1;fill-rule:nonzero;stroke:none"
         id="path164" />
      <path
         d="m 17370.3,32136.4 c 132,-166.1 141.6,-279.3 80.9,-327.5 -60.7,-48.2 -168.7,-13.3 -300.7,152.9 -132,166.1 -189.8,339.9 -129.1,388.1 60.7,48.2 216.9,-47.4 348.9,-213.5"
         style="fill:#ffffff;fill-opacity:1;fill-rule:nonzero;stroke:none"
         id="path166" />
      <path
         d="m 19543.1,30600 c 131.9,-166.1 141.6,-279.3 80.9,-327.5 -60.7,-48.2 -168.7,-13.2 -300.7,152.9 -132,166.2 -189.8,339.9 -129.1,388.1 60.7,48.3 216.9,-47.3 348.9,-213.5"
         style="fill:#ffffff;fill-opacity:1;fill-rule:nonzero;stroke:none"
         id="path168" />
      <path
         d="m 17039.9,29176.5 c 33.2,-209.5 -14.1,-312.8 -90.7,-324.9 -76.6,-12.1 -153.4,71.5 -186.6,281.1 -33.1,209.6 2.1,389.3 78.7,401.4 76.5,12.1 165.5,-148 198.6,-357.6"
         style="fill:#ffffff;fill-opacity:1;fill-rule:nonzero;stroke:none"
         id="path170" />
      <path
         d="m 13357.8,28781.1 c -76,-198.1 -168.5,-263.9 -240.9,-236.2 -72.4,27.8 -97.2,138.6 -21.2,336.7 76,198.1 196.3,336.2 268.6,308.5 72.4,-27.8 69.5,-210.9 -6.5,-409"
         style="fill:#ffffff;fill-opacity:1;fill-rule:nonzero;stroke:none"
         id="path172" />
      <path
         d="m 22555.4,31657.3 c 158.5,-141.1 187.3,-250.9 135.8,-308.8 -51.6,-57.9 -164,-41.9 -322.5,99.2 -158.5,141.1 -245.1,302.4 -193.6,360.3 51.6,57.9 221.8,-9.6 380.3,-150.7"
         style="fill:#ffffff;fill-opacity:1;fill-rule:nonzero;stroke:none"
         id="path174" />
      <path
         d="m 19913.8,32607.7 c 178.9,-114 224.9,-217.8 183.3,-283.2 -41.7,-65.4 -155.2,-67.6 -334.2,46.4 -178.9,114 -290.2,259.5 -248.6,324.8 41.7,65.4 220.5,26 399.5,-88"
         style="fill:#ffffff;fill-opacity:1;fill-rule:nonzero;stroke:none"
         id="path176" />
      <path
         d="m 11806.9,24048.8 c -150.7,0 -298.2,24.1 -433.4,90.2 -388.4,189.9 -551.4,680.7 -492,1109 33.2,237.9 241.3,1026.8 528.2,1076 8.1,1.4 16.5,2.1 25.1,2.1 167.3,0 406.4,-256.9 523.8,-344.9 218.3,-163.5 436.6,-327.1 654.8,-490.7 244.7,-183.3 514.8,-417.8 499.4,-723.1 -9.7,-191.5 -138.2,-361.7 -298.7,-466.6 -160.4,-104.8 -350.2,-154.1 -537.8,-193.7 -153.1,-32.2 -312.9,-58.3 -469.4,-58.3"
         style="fill:#ffb656;fill-opacity:1;fill-rule:nonzero;stroke:none"
         id="path178" />
      <path
         d="m 14214.7,24507.9 c -282.5,0 -506,131.8 -373.7,498.7 91.5,253.7 470.5,475.1 781.6,475.1 202.7,0 376.5,-94 423,-334.4 29.2,-151.1 -46,-308.1 -159.4,-412.1 -141.2,-129.6 -428.3,-227.3 -671.5,-227.3"
         style="fill:#ffb656;fill-opacity:1;fill-rule:nonzero;stroke:none"
         id="path180" />
      <path
         d="m 14825.2,15872.3 c -193.1,0 -380.2,8 -556.1,26.1 -121.9,12.5 -223.6,98.8 -259.7,215.9 l -209.4,680.6 c -61.3,198.9 87.4,399.6 293.8,399.6 2.9,0 5.9,0 8.8,-0.1 76.7,-2.1 162.9,-3.4 258.2,-3.4 287.3,0 656.9,12.1 1095,52 9.3,0.8 18.7,1.3 28,1.3 134,0 254.3,-87.8 294.4,-218 l 217.8,-707.7 c 57.5,-186.9 -70.7,-379.6 -265.3,-398.4 -303.4,-29.4 -611.4,-47.9 -905.5,-47.9"
         style="fill:#bc676f;fill-opacity:1;fill-rule:nonzero;stroke:none"
         id="path182" />
      <path
         d="m 17012.8,16106.1 c -133.2,0 -254.6,86.6 -295,218 l -216,701.5 c -54.3,176.5 57,361 238.6,394.3 198.2,36.2 403.9,78 616.4,126 23,5.2 46.1,7.7 68.8,7.7 137,0 261.7,-91 298.5,-228.6 l 190,-709.5 c 45.6,-170.3 -60.1,-344.1 -232.4,-381.5 -158.5,-34.5 -369,-78 -613,-122.8 -18.7,-3.5 -37.4,-5.1 -55.9,-5.1"
         style="fill:#bc676f;fill-opacity:1;fill-rule:nonzero;stroke:none"
         id="path184" />
      <path
         d="m 23765.2,13670.3 -18.1,45 36.9,18.5 79,-25.7 -61.4,-25 c -12,-4.8 -24,-9.1 -36.4,-12.8"
         style="fill:#390176;fill-opacity:1;fill-rule:nonzero;stroke:none"
         id="path186" />
    </g>
    <path
       style="fill:#ab7e4f;stroke:#000000;stroke-width:5.89938"
       d="M 2.5965596,2666.6667 V 0 H 2666.6667 5330.7369 V 2666.6667 5333.3335 H 2666.6667 2.5965596 Z M 3102.8888,4788.1008 c 363.7346,-14.4366 626.454,-42.9142 773.7747,-83.8737 126.8047,-35.2554 124.743,-82.0438 -5.1931,-117.8513 -438.7841,-120.9193 -1900.6541,-115.6436 -2276.4384,8.2153 -47.7873,15.7508 -77.3698,39.2716 -72.5541,57.6871 15.9165,60.8648 361.244,115.9687 848.181,135.3442 150.1893,5.9761 586.5314,6.2612 732.2299,0.4783 z m -311.5872,-708.8207 c 374.531,-50.0879 714.352,-198.2588 982.3939,-428.3496 170.7293,-146.5562 287.7383,-320.1769 332.5963,-493.514 25.0146,-96.6596 25.4385,-222.147 1.0464,-309.7372 -2.8348,-10.1795 0.3402,-11.9439 37.0744,-20.6041 115.0794,-27.13 144.3848,-104.861 84.8388,-225.0299 -27.5763,-55.6514 -83.5654,-113.8011 -135.2112,-140.4293 l -34.4896,-17.7826 2.7285,-39.8086 c 8.625,-125.8364 -56.9456,-313.9588 -132.0618,-378.886 -20.7793,-17.9608 -20.8177,-18.0642 -18.4404,-49.7325 2.0777,-27.6779 -1.3572,-43.9152 -26.8727,-127.0291 -16.0902,-52.4122 -33.0642,-101.1087 -37.7201,-108.2145 -6.3832,-9.7419 -6.8717,-13.4508 -1.9862,-15.0793 19.4587,-6.4862 71.1035,-52.7967 82.1573,-73.6715 10.8134,-20.4206 12.1475,-28.9383 10.5739,-67.5105 -1.4305,-35.0632 -4.8729,-50.8509 -16.7377,-76.7649 -34.6198,-75.6127 -134.3541,-133.8651 -272.9659,-159.4329 -24.2452,-4.4722 -46.5889,-10.9956 -49.6526,-14.4964 -3.0637,-3.5009 -22.7006,-26.9049 -43.6374,-52.0089 -194.6976,-233.4489 -507.8185,-392.87324 -849.9436,-432.74538 -86.8716,-10.12425 -259.6772,-7.31415 -344.7192,5.60561 -396.4986,60.23712 -746.7218,291.83997 -958.369,633.77017 -93.1114,150.4278 -157.3492,329.2477 -179.0911,498.5394 -7.2105,56.1434 -7.0995,199.0303 0.19,245.2055 l 5.9172,37.4807 -18.1366,15.9242 c -24.3973,21.4211 -85.7675,94.5493 -108.9484,129.822 -50.0989,76.2317 -53.6107,169.7542 -8.4325,224.5631 24.7258,29.9967 67.1559,48.0104 113.9977,48.3976 l 38.9484,0.322 1.5462,15.2574 c 4.9922,49.2641 38.058,122.9891 65.5318,146.1129 l 16.0119,13.4766 -1.7042,60.2585 c -1.337,47.2739 0.7261,71.4486 9.5742,112.1896 11.233,51.7222 38.6895,132.3606 58.1596,170.8123 12.385,24.4591 51.2434,66.8755 74.3467,81.1541 l 16.8473,10.4122 -12.4225,40.1837 c -77.051,249.2398 14.0017,386.6351 201.3151,303.7774 l 24.0893,-10.6558 13.8149,32.5055 c 34.1948,80.4572 108.1806,172.7297 187.2227,233.4974 53.0969,40.8209 74.019,54.1097 127.6326,81.066 112.1546,56.3903 246.6227,93.48 394.2759,108.7514 68.4769,7.0824 293.6185,2.4403 368.7115,-7.6023 z"
       id="path24567"
       transform="matrix(0.75000002,0,0,-0.75000002,0,4000.0001)" />
    <path
       style="fill:#fcfcd8;stroke:#000000;stroke-width:5.89938"
       d="m 2396.6245,4782.9653 c -412.0414,-14.1998 -757.541,-60.1654 -847.606,-112.7662 -87.4871,-51.0952 129.2258,-110.9618 512.6499,-141.6188 256.7174,-20.526 631.3117,-29.2584 918.6512,-21.4151 242.4445,6.6178 340.5379,11.7789 506.86,26.6682 238.5299,21.3535 397.056,51.966 455.8706,88.0319 21.8581,13.4037 25.5804,23.6825 13.4382,37.1087 -47.2656,52.2639 -309.191,94.356 -739.351,118.8157 -125.7096,7.1481 -664.6347,10.5476 -820.5129,5.1756 z"
       id="path24569"
       transform="matrix(0.75000002,0,0,-0.75000002,0,4000.0001)" />
  </g>
</svg>
