<?xml version="1.0" encoding="UTF-8" standalone="no"?>
<!-- Created with Inkscape (http://www.inkscape.org/) -->

<svg
   version="1.1"
   id="svg2"
   width="5333.3335"
   height="5333.3335"
   viewBox="0 0 5333.3335 5333.3335"
   sodipodi:docname="fries.svg"
   inkscape:version="1.2.2 (b0a8486, 2022-12-01)"
   xmlns:inkscape="http://www.inkscape.org/namespaces/inkscape"
   xmlns:sodipodi="http://sodipodi.sourceforge.net/DTD/sodipodi-0.dtd"
   xmlns="http://www.w3.org/2000/svg"
   xmlns:svg="http://www.w3.org/2000/svg">
  <defs
     id="defs6" />
  <sodipodi:namedview
     id="namedview4"
     pagecolor="#ffffff"
     bordercolor="#000000"
     borderopacity="0.25"
     inkscape:showpageshadow="2"
     inkscape:pageopacity="0.0"
     inkscape:pagecheckerboard="0"
     inkscape:deskcolor="#d1d1d1"
     showgrid="false"
     inkscape:zoom="0.19256249"
     inkscape:cx="2230.4447"
     inkscape:cy="2664.0702"
     inkscape:window-width="2560"
     inkscape:window-height="1299"
     inkscape:window-x="0"
     inkscape:window-y="25"
     inkscape:window-maximized="1"
     inkscape:current-layer="g8" />
  <g
     id="g8"
     inkscape:groupmode="layer"
     inkscape:label="ink_ext_XXXXXX"
     transform="matrix(1.3333333,0,0,-1.3333333,0,5333.3333)">
    <g
       id="g10"
       transform="scale(0.1)">
      <path
         d="M 0,0 H 40000 V 40000 H 0 Z"
         style="fill:#ffd87d;fill-opacity:1;fill-rule:nonzero;stroke:none"
         id="path12" />
      <path
         d="m 20008.5,32435.9 -2423,-12324.7 -1101.4,-85.5 -1322.6,-102.5 -206.5,2889.7 2229.5,10702.6 1833.3,-76.4 990.7,-1003.2"
         style="fill:#ffbc00;fill-opacity:1;fill-rule:nonzero;stroke:none"
         id="path14" />
      <path
         d="m 16331.1,27357 -73.3,815.8 1073.7,5154 1467.8,-61.1 -34.1,-180.3 -1230.1,51.2 -1204,-5779.6"
         style="fill:#ffe499;fill-opacity:1;fill-rule:nonzero;stroke:none"
         id="path16" />
      <path
         d="m 15138.8,22800.8 191.8,-2681.3 2102.6,163 2377.4,12093.9 -872.3,883.5 -1606.8,66.9 -2192.7,-10526 m 22.9,-3059.9 c -43.5,0 -85.8,15.6 -119.1,44.2 -36.8,31.7 -59.4,76.8 -62.9,125.2 l -206.8,2889.8 c -1.2,16.8 0,33.7 3.4,50.2 l 2229.5,10702.5 c 18.2,87.5 97,148.9 186.3,145.1 l 1833.3,-76.4 c 46.1,-1.9 89.8,-21.2 122.2,-54.1 l 990.6,-1003.3 c 42.3,-42.9 60.8,-104.1 49.1,-163.4 L 17764.6,20076.1 c -15.8,-80.4 -83.2,-140.4 -164.9,-146.7 l -2423.9,-188 c -4.7,-0.3 -9.4,-0.5 -14.1,-0.5"
         style="fill:#000072;fill-opacity:1;fill-rule:nonzero;stroke:none"
         id="path18" />
      <path
         d="m 16484.4,19843.4 c -11.2,0 -22.6,1 -34,3.2 -99.1,18.7 -164.2,114.1 -145.5,213.2 l 2533.5,13413.3 c 18.7,99 114.1,164.1 213.2,145.4 99.1,-18.7 164.2,-114.1 145.4,-213.1 L 16663.5,19992 c -16.5,-87.6 -93.1,-148.6 -179.1,-148.6"
         style="fill:#000072;fill-opacity:1;fill-rule:nonzero;stroke:none"
         id="path20" />
      <path
         d="m 17569.9,24790.8 1562.5,8272.5 678.2,-686.9 -942.4,-4794 -1298.3,-2791.6"
         style="fill:#b28322;fill-opacity:1;fill-rule:nonzero;stroke:none"
         id="path22" />
      <path
         d="m 18868.2,27582.4 942.4,4794 -678.2,686.9 41.2,218.1 834.9,-845.5 -817.9,-4160.3 -322.4,-693.2"
         style="fill:#000072;fill-opacity:1;fill-rule:nonzero;stroke:none"
         id="path24" />
      <path
         d="m 17257.2,24118.3 1760.6,9320.8 155.8,-157.7 -41.2,-218.1 -1562.5,-8272.5 -312.7,-672.5"
         style="fill:#000072;fill-opacity:1;fill-rule:nonzero;stroke:none"
         id="path26" />
      <path
         d="M 23860.2,30805.3 18692,19357.2 l -1091.8,167.9 -1311.2,201.5 457.6,2860.8 4610.1,9912.8 1767.6,-492.2 735.9,-1202.7"
         style="fill:#ffbc00;fill-opacity:1;fill-rule:nonzero;stroke:none"
         id="path28" />
      <path
         d="m 17072.9,22291.9 c -58.3,34.8 -115.4,71 -171.4,108.7 l 21.2,133.1 4534.1,9749.2 1415.1,-394 -74.2,-167.8 -1186,330.2 -4538.8,-9759.4"
         style="fill:#ffe499;fill-opacity:1;fill-rule:nonzero;stroke:none"
         id="path30" />
      <path
         d="m 16498.5,19879.2 2084.4,-320.4 5071,11233.8 -647.8,1059 -1549.3,431.3 -4534.1,-9749.2 -424.2,-2654.5 m 2193.8,-704.4 c -9.2,0 -18.5,0.7 -27.8,2.2 l -2402.9,369.4 c -48,7.4 -91.1,33.6 -119.7,72.9 -28.7,39.2 -40.5,88.3 -32.8,136.3 l 457.2,2860.8 c 2.7,16.6 7.6,32.8 14.8,48.1 l 4610,9912.7 c 37.7,81 128.6,122.7 214.4,98.9 l 1767.7,-492.2 c 44.5,-12.4 82.6,-41.2 106.7,-80.6 l 735.7,-1202.6 c 31.6,-51.5 35.5,-115.3 10.7,-170.3 L 18858.5,19282.3 c -29.8,-66.1 -95.4,-107.5 -166.2,-107.5"
         style="fill:#000072;fill-opacity:1;fill-rule:nonzero;stroke:none"
         id="path32" />
      <path
         d="m 17600.3,19342.7 c -24.7,0 -49.7,5 -73.7,15.6 -92.2,40.8 -133.9,148.6 -93.1,240.8 l 5523.8,12482.8 c 40.8,92.2 148.7,133.9 240.8,93.1 92.1,-40.8 133.8,-148.6 93,-240.8 L 17767.3,19451.4 c -30.2,-68.2 -97,-108.7 -167,-108.7"
         style="fill:#000072;fill-opacity:1;fill-rule:nonzero;stroke:none"
         id="path34" />
      <path
         d="m 19027.6,21755.9 c -78.7,0 -157.9,2.5 -237.2,7.4 l 1430,3231.7 -134.5,-2106.8 -491.9,-1089.6 c -185.8,-28.2 -375.1,-42.7 -566.4,-42.7 m 3639.4,6850.4 -110.3,83.9 c -28.9,22.6 -64.8,36.7 -104.2,38.5 -1.3,0.1 -2.6,0.1 -3.8,0.1 -1.5,0.1 -3,0.1 -4.5,0.1 -6,0 -12.1,-0.3 -18.2,-0.9 l -579.4,-58.1 1303.7,2946 503.6,-823.3 -986.9,-2186.3"
         style="fill:#b28322;fill-opacity:1;fill-rule:nonzero;stroke:none"
         id="path36" />
      <path
         d="m 19594,21798.6 491.9,1089.6 -33,-516.6 -240.7,-533.2 c -72.2,-15.3 -144.9,-28.6 -218.2,-39.8 m 3222.2,6694.2 -149.2,113.5 986.9,2186.3 -503.6,823.3 89.8,202.9 620.1,-1013.5 -1044,-2312.5"
         style="fill:#000072;fill-opacity:1;fill-rule:nonzero;stroke:none"
         id="path38" />
      <path
         d="m 18790.4,21763.3 c -64,4 -128,9.6 -192.2,16.9 l 1655.9,3742 -33.7,-527.2 -1430,-3231.7 m 2847.4,6885.6 1486.5,3359.1 115.8,-189.2 -89.8,-202.9 -1303.7,-2946 -208.8,-21"
         style="fill:#000072;fill-opacity:1;fill-rule:nonzero;stroke:none"
         id="path40" />
      <path
         d="m 15887.3,30260.5 1123.6,-12510.3 -1033.4,-390.3 -1241,-468.6 -1007.1,2716.4 -855.3,10898.8 1781.3,439.9 1231.9,-685.9"
         style="fill:#ffbc00;fill-opacity:1;fill-rule:nonzero;stroke:none"
         id="path42" />
      <path
         d="m 13606.1,26553.2 -242.4,45 -295.7,3768.3 1426.1,352.2 17.8,-182.7 -1195.2,-295.1 289.4,-3687.7"
         style="fill:#ffe499;fill-opacity:1;fill-rule:nonzero;stroke:none"
         id="path44" />
      <path
         d="m 13909.2,19647.5 934.7,-2520.4 1973,745 -1102.9,12275.9 -1084.7,604 -1561.3,-385.5 841.2,-10719 m 827.4,-2938.5 c -25.8,0 -51.6,5.5 -75.6,16.4 -44.2,20.2 -78.6,57.1 -95.5,102.7 l -1007.3,2716.3 c -5.9,15.8 -9.6,32.3 -10.9,49.2 L 12692,30492.3 c -7,89 51.5,170 138.2,191.4 l 1781.4,439.9 c 44.7,11.1 92.2,4.8 132.5,-17.8 l 1231.7,-685.9 c 52.8,-29.4 87.6,-83 93,-143.1 l 1123.9,-12510.1 c 7.4,-81.6 -40.6,-158.1 -117.2,-187.1 l -2274.4,-858.8 c -20.8,-7.9 -42.6,-11.8 -64.5,-11.8"
         style="fill:#000072;fill-opacity:1;fill-rule:nonzero;stroke:none"
         id="path46" />
      <path
         d="m 15977.4,17177.6 c -92.9,0 -172.3,70.5 -181.4,164.9 l -1322.3,13586.2 c -9.8,100.4 63.7,189.6 164,199.4 100.9,9.7 189.5,-63.7 199.3,-164 l 1322.2,-13586.3 c 9.8,-100.3 -63.6,-189.5 -163.9,-199.3 -6,-0.6 -12,-0.9 -17.9,-0.9"
         style="fill:#000072;fill-opacity:1;fill-rule:nonzero;stroke:none"
         id="path48" />
      <path
         d="m 16371.2,22832.4 c -379.8,372.1 -678.5,823.9 -872,1327.5 l -628.5,6457.7 843.3,-469.6 657.2,-7315.6"
         style="fill:#b28322;fill-opacity:1;fill-rule:nonzero;stroke:none"
         id="path50" />
      <path
         d="m 16570.8,22650.5 c -68.8,58.3 -135.3,118.9 -199.6,181.9 l -657.2,7315.6 -843.3,469.6 -21.5,220.9 1038.1,-578 683.5,-7610"
         style="fill:#000072;fill-opacity:1;fill-rule:nonzero;stroke:none"
         id="path52" />
      <path
         d="m 15499.2,24159.9 c -144.9,377.1 -230.9,783.3 -248,1207.4 -5.8,143.4 -38,280 -92.3,404.6 l -503.5,5174.5 193.8,-107.9 21.5,-220.9 628.5,-6457.7"
         style="fill:#000072;fill-opacity:1;fill-rule:nonzero;stroke:none"
         id="path54" />
      <path
         d="m 23566.6,27692.9 -659.6,-12543.3 -1078.3,-240 -1294.9,-288.1 -612.2,2831.7 697,10910.1 1825.7,183.1 1122.3,-853.5"
         style="fill:#ffbc00;fill-opacity:1;fill-rule:nonzero;stroke:none"
         id="path56" />
      <path
         d="m 20395.7,22013.6 395,6183.6 1461.7,146.6 -8.3,-183.3 -1224.9,-122.9 -378.1,-5917.6 c -80.4,-38.3 -162.3,-73.8 -245.4,-106.4"
         style="fill:#ffe499;fill-opacity:1;fill-rule:nonzero;stroke:none"
         id="path58" />
      <path
         d="m 20105.3,17467.1 568.2,-2627.4 2058.6,458.1 647,12308.3 -988.1,751.6 -1600.3,-160.5 -685.4,-10730.1 m 428.7,-3027.9 c -34.6,0 -68.8,9.9 -98.4,28.8 -40.9,26.2 -69.7,67.6 -80,115.1 l -612.4,2831.6 c -3.6,16.5 -4.8,33.4 -3.8,50.2 l 696.9,10910.1 c 5.8,89.1 75.1,161 164,169.9 L 22426,28728 c 46.3,4.5 92,-8.4 128.7,-36.3 l 1122.2,-853.5 c 48.1,-36.6 74.9,-94.5 71.7,-154.8 l -659.3,-12543.2 c -4.3,-81.8 -62.6,-150.8 -142.6,-168.5 l -2373,-528.1 c -13.2,-2.9 -26.5,-4.4 -39.7,-4.4"
         style="fill:#000072;fill-opacity:1;fill-rule:nonzero;stroke:none"
         id="path60" />
      <path
         d="m 21829,14727.4 c -2.8,0 -5.6,0 -8.4,0.1 -100.7,4.6 -178.6,89.9 -174.1,190.6 l 615.4,13636.5 c 4.6,100.7 89.5,178.1 190.6,174.1 100.6,-4.5 178.6,-89.8 174.1,-190.5 l -615.4,-13636.6 c -4.5,-97.9 -85.3,-174.2 -182.2,-174.2"
         style="fill:#000072;fill-opacity:1;fill-rule:nonzero;stroke:none"
         id="path62" />
      <path
         d="m 22417.7,23909.3 193.2,4281.1 768.2,-584.3 -109.6,-2085.5 -281.8,-938.7 c -224.3,-114.5 -409.5,-306.1 -516.4,-553.8 -17.3,-40 -35.2,-79.7 -53.6,-118.8"
         style="fill:#b28322;fill-opacity:1;fill-rule:nonzero;stroke:none"
         id="path64" />
      <path
         d="m 23269.5,25520.6 109.6,2085.5 -768.2,584.3 10,221.7 945.7,-719.2 -75.4,-1433.5 -221.7,-738.8"
         style="fill:#000072;fill-opacity:1;fill-rule:nonzero;stroke:none"
         id="path66" />
      <path
         d="m 22218.3,23540.6 226,5005.8 176.6,-134.3 -10,-221.7 -193.2,-4281.1 c -60.3,-127.8 -126.9,-250.7 -199.4,-368.7"
         style="fill:#000072;fill-opacity:1;fill-rule:nonzero;stroke:none"
         id="path68" />
      <path
         d="m 30668.5,26838.7 -4798.3,-11607.9 -1096.7,132.7 -1316.9,159.4 365.5,2874 4289.7,10055.5 1782.6,-435.2 774.1,-1178.5"
         style="fill:#ffbc00;fill-opacity:1;fill-rule:nonzero;stroke:none"
         id="path70" />
      <path
         d="m 26720.9,24120.3 -239.9,44.5 1737.9,4073.7 1427.1,-348.4 -68.9,-170.2 -1196,292.1 -1660.2,-3891.7"
         style="fill:#ffe499;fill-opacity:1;fill-rule:nonzero;stroke:none"
         id="path72" />
      <path
         d="m 23661,15682.2 2093.7,-253.5 4708.1,11390.6 -681.6,1037.7 -1562.3,381.5 -4219,-9889.7 -338.9,-2666.6 m 2209.4,-633.8 c -7.3,0 -14.6,0.4 -22,1.3 l -2413.5,292.2 c -48.2,5.8 -92.1,30.6 -122,69 -29.9,38.3 -43.2,86.9 -37.1,135.1 l 365.2,2874 c 2.2,16.7 6.6,33.1 13.2,48.6 l 4289.7,10055.5 c 35,82.2 124.6,126.9 211.1,105.7 l 1782.6,-435.3 c 44.8,-10.9 83.9,-38.5 109.2,-77.1 l 774,-1178.4 c 33.2,-50.4 39.2,-114 16.1,-169.9 L 26039,15161.2 c -28.5,-68.9 -95.5,-112.8 -168.6,-112.8"
         style="fill:#000072;fill-opacity:1;fill-rule:nonzero;stroke:none"
         id="path74" />
      <path
         d="m 24773.6,15181.1 c -22.8,0 -45.9,4.3 -68.4,13.4 -93.4,37.8 -138.5,144.2 -100.6,237.6 l 5120.6,12653.6 c 37.7,93.5 144.4,138.5 237.6,100.7 93.4,-37.8 138.5,-144.2 100.6,-237.6 L 24942.8,15295.1 c -28.7,-71 -97,-114 -169.2,-114"
         style="fill:#000072;fill-opacity:1;fill-rule:nonzero;stroke:none"
         id="path76" />
      <path
         d="m 29160.1,23667.8 -771.2,143.1 1544,3815.2 529.9,-806.8 -1302.7,-3151.5"
         style="fill:#b28322;fill-opacity:1;fill-rule:nonzero;stroke:none"
         id="path78" />
      <path
         d="m 29343.7,23633.8 -183.6,34 1302.7,3151.5 -529.9,806.8 83.2,205.7 652.4,-993.1 -1324.8,-3204.9"
         style="fill:#000072;fill-opacity:1;fill-rule:nonzero;stroke:none"
         id="path80" />
      <path
         d="m 28388.9,23810.9 -183.1,33.9 1688.6,4172.4 121.7,-185.4 -83.2,-205.7 -1544,-3815.2"
         style="fill:#000072;fill-opacity:1;fill-rule:nonzero;stroke:none"
         id="path82" />
      <path
         d="m 27841,29733.5 -3475.4,-12070.2 -1104.6,9.7 -1326.5,11.7 43.1,2896.8 3143,10470.8 1819.9,-233.9 900.5,-1084.9"
         style="fill:#ffbc00;fill-opacity:1;fill-rule:nonzero;stroke:none"
         id="path84" />
      <path
         d="m 23649.7,24689.4 c -54.9,8.2 -109.5,12.2 -163.7,12.2 -27.6,0 -55,-1.1 -82.2,-3.1 l 1846.9,6153.2 1457.1,-187.3 -49.5,-176.8 -1221.1,157 -1787.5,-5955.2"
         style="fill:#ffe499;fill-opacity:1;fill-rule:nonzero;stroke:none"
         id="path86" />
      <path
         d="m 22119.9,17865.7 2108.8,-18.6 3410.1,11844.2 -792.9,955.3 -1595.2,205.1 -3091.1,-10298.1 -39.7,-2687.9 m 2245.8,-384.8 h -1.6 l -2431,21.5 c -48.6,0.4 -95,20.2 -128.9,55 -34,34.7 -52.7,81.6 -51.9,130.2 l 42.8,2896.8 c 0.2,16.8 2.8,33.6 7.7,49.7 l 3142.9,10470.8 c 25.7,85.6 109.2,139.9 198.1,128.5 l 1819.9,-234 c 45.8,-5.8 87.6,-28.9 117.1,-64.4 l 900.5,-1084.9 c 38.5,-46.5 51.6,-109 34.9,-167 L 24541.1,17612.9 c -22.5,-78.2 -94.1,-132 -175.4,-132"
         style="fill:#000072;fill-opacity:1;fill-rule:nonzero;stroke:none"
         id="path88" />
      <path
         d="m 23261.2,17490.6 c -16.2,0 -32.8,2.2 -49.2,6.8 -97.1,27.2 -153.7,127.9 -126.6,224.9 l 3679.3,13145.3 c 27.2,97.1 127.6,153.8 224.9,126.6 97,-27.2 153.7,-127.9 126.5,-225 L 23436.9,17624 c -22.6,-80.6 -95.9,-133.4 -175.7,-133.4"
         style="fill:#000072;fill-opacity:1;fill-rule:nonzero;stroke:none"
         id="path90" />
      <path
         d="m 26069.7,24241.3 -742.2,137.6 1694.8,6055.1 616.5,-742.7 -1569.1,-5450"
         style="fill:#b28322;fill-opacity:1;fill-rule:nonzero;stroke:none"
         id="path92" />
      <path
         d="m 26250,24207.8 -180.3,33.5 1569.1,5450 -616.5,742.7 59.8,213.7 758.9,-914.2 -1591,-5525.7"
         style="fill:#000072;fill-opacity:1;fill-rule:nonzero;stroke:none"
         id="path94" />
      <path
         d="m 25327.5,24378.9 -180.1,33.5 1793.1,6406 141.6,-170.7 -59.8,-213.7 -1694.8,-6055.1"
         style="fill:#000072;fill-opacity:1;fill-rule:nonzero;stroke:none"
         id="path96" />
      <path
         d="M 26873.2,23254.6 22704.8,9390.4 c -322,-1070.6 -1398.5,-1727.1 -2498.2,-1523.1 l -8022.5,1488.1 c -1093.4,202.8 -1861.4,1193.2 -1786.1,2303 l 969.7,14241.6 c 37,547.9 543.5,940.5 1083.3,840.4 l 1892.5,-351 c 497.3,-92.3 860.7,-517.8 881.1,-1023.2 69.9,-1729.3 1324.5,-3242.8 3098.1,-3571.8 1773.1,-328.9 3487.5,634 4173,2223.1 200.4,464.4 692.1,731.3 1189.4,639 l 2630.8,-488 c 421,-78 680.8,-504.2 557.3,-913.9"
         style="fill:#ff1e00;fill-opacity:1;fill-rule:nonzero;stroke:none"
         id="path98" />
      <path
         d="m 12283.8,26729.2 c -196.6,0 -389.5,-65 -547,-187.2 -200.6,-155.7 -325.5,-390.4 -342.5,-643.8 l -969.7,-14241.6 c -74.4,-1096.6 684.1,-2074.6 1764.3,-2275 l 8022.6,-1488.2 c 133.6,-24.8 266.8,-36.7 398.3,-36.7 939.3,-0.1 1789.9,611.8 2069.5,1541.4 l 4168.4,13864.2 c 56.7,188 30.6,392 -71.6,559.7 -102.3,167.8 -271.7,284.5 -465,320.4 l -2630.8,488 c -486,90.2 -962.9,-166.2 -1160.2,-623.4 -337.1,-781.5 -937.4,-1436.2 -1690.4,-1843.7 -764.2,-413.4 -1656.3,-553.6 -2511.8,-395 -855.9,158.8 -1638.4,609.7 -2203.3,1269.6 -556.7,650.4 -882.2,1476.8 -916.5,2327.2 -20.2,497.6 -373.6,908 -859.4,998.1 l -1892.5,351.1 c -54,10 -108.4,14.9 -162.4,14.9 M 20609.9,7803.5 c -134.7,0 -271.2,12.2 -408.1,37.6 l -8022.6,1488.1 c -1106.8,205.4 -1884,1207.5 -1807.7,2331 l 969.7,14241.6 c 18.1,268.5 150.4,517.2 363,682.2 212.8,165.1 486.7,231.7 751.6,182.6 l 1892.6,-351.1 c 510.4,-94.7 881.6,-525.7 902.8,-1048.2 71.4,-1765.5 1336.4,-3224 3076.4,-3546.7 1740,-322.7 3443.7,585 4143.7,2207.5 207.1,480.1 708.3,749.4 1218.7,654.6 l 2630.7,-488 c 208.2,-38.6 390.7,-164.4 500.8,-345.1 110.1,-180.5 138.2,-400.2 77.2,-602.6 L 22730.2,9382.7 c -286.4,-952.3 -1158,-1579.2 -2120.3,-1579.2"
         style="fill:#390176;fill-opacity:1;fill-rule:nonzero;stroke:none"
         id="path100" />
      <path
         d="M 10734,17640.8 25762.8,19328.1 24468,15022 10448.7,13447.7 10734,17640.8"
         style="fill:#ffffff;fill-opacity:1;fill-rule:nonzero;stroke:none"
         id="path102" />
      <path
         d="m 11159.3,9879.9 c -493.4,432 -782,1080.5 -734.7,1776.7 l 122.7,1802.1 506.9,57 -165.1,-2424.4 c -29.4,-435.7 70.8,-853 270.2,-1211.4"
         style="fill:#ff9a8c;fill-opacity:1;fill-rule:nonzero;stroke:none"
         id="path104" />
      <path
         d="m 11198.9,9811.6 c -533.9,436.4 -850.3,1115.7 -800.7,1846.7 l 122.3,1797.4 26.8,3 -122.7,-1802.1 c -47.3,-696.2 241.3,-1344.7 734.7,-1776.7 12.8,-23 26,-45.8 39.6,-68.3"
         style="fill:#a68cc1;fill-opacity:1;fill-rule:nonzero;stroke:none"
         id="path106" />
      <path
         d="m 10832.8,17651.9 561.5,8246.3 c 17,253.4 141.9,488.1 342.5,643.8 157.5,122.2 350.4,187.2 547,187.2 54,0 108.4,-4.9 162.4,-14.9 l 1892.5,-351.1 c 361.2,-67 649.2,-311.1 781.5,-636.3 -88.4,44.1 -184,76.9 -285.2,95.6 l -1892.6,350.9 c -56.9,10.6 -113.4,15.6 -169,15.6 -472.5,0 -881.5,-365.9 -914.4,-856.1 l -519.2,-7624.1 -507,-56.9"
         style="fill:#ff9a8c;fill-opacity:1;fill-rule:nonzero;stroke:none"
         id="path108" />
      <path
         d="m 10806,17648.9 561.6,8251.1 c 33.3,490.1 442.1,856.1 914.5,856.1 55.6,0 112.1,-5 168.9,-15.6 l 1892.6,-350.9 c 379.2,-70.6 680.5,-335.1 811.6,-681 -11.5,6.3 -23.2,12.4 -35,18.3 -132.3,325.2 -420.3,569.3 -781.5,636.3 l -1892.5,351.1 c -54,10 -108.4,14.9 -162.4,14.9 -196.6,0 -389.5,-65 -547,-187.2 -200.6,-155.7 -325.5,-390.4 -342.5,-643.8 l -561.5,-8246.3 -26.8,-3"
         style="fill:#a68cc1;fill-opacity:1;fill-rule:nonzero;stroke:none"
         id="path110" />
      <path
         d="m 10520.5,13455.7 285.5,4193.2 26.8,3 507,56.9 -285.6,-4193.1 -506.9,-57 -26.8,-3"
         style="fill:#ffffff;fill-opacity:1;fill-rule:nonzero;stroke:none"
         id="path112" />
      <path
         d="m 19509.9,21163.3 c -229.6,0 -462.2,20.9 -696,64.3 -964.8,178.6 -1775.6,708.1 -2325.9,1431.7 515.2,-453.8 1149.4,-764.8 1829.9,-891 229.7,-42.6 462,-63.6 693.8,-63.6 631.5,0 1259.1,156.2 1818,458.6 753,407.5 1353.3,1062.2 1690.4,1843.7 170.9,396 551.5,641.4 966.1,641.4 64.1,0 129,-5.9 194.1,-18 l 2630.8,-488 c 0,0 0,0 0.1,0 l -0.1,-0.2 2.3,-0.4 c 81.7,-15.4 159.1,-45.2 229,-87.3 0.2,-0.2 0.4,-0.3 0.6,-0.4 0.4,-0.2 0.7,-0.4 1,-0.6 0.5,-0.3 0.9,-0.6 1.4,-0.9 0.1,0 0.1,-0.1 0.2,-0.1 93.1,-56.9 172.6,-135.5 230.5,-230.5 44.3,-72.6 74.2,-152 89.4,-234 -19.1,5.3 -38.6,9.6 -58.6,13.4 l -2630.3,488.3 c -65.8,12.2 -131.6,18.1 -196.5,18.1 -426.2,0 -819.3,-254.2 -993.2,-657.1 -595.3,-1379.7 -1965.9,-2287.3 -3477,-2287.4"
         style="fill:#ff9a8c;fill-opacity:1;fill-rule:nonzero;stroke:none"
         id="path114" />
      <path
         d="m 19011.7,21704.7 c -231.8,0 -464.1,21 -693.8,63.6 -680.5,126.2 -1314.7,437.2 -1829.9,891 -26.8,35.2 -53,70.9 -78.5,107 512.9,-485.5 1167.3,-833.3 1913.4,-971.8 233.6,-43.3 466.4,-64.2 695.7,-64.2 1511.2,0 2882,907.4 3477.3,2287.3 173.5,402.9 566.7,657 992.4,657 65,0 130.8,-5.9 196.7,-18.2 l 2631,-488 -4.8,-26 c -0.1,0 -0.1,0 -0.1,0 l -2630.8,488 c -65.1,12.1 -130,18 -194.1,18 -414.6,0 -795.2,-245.4 -966.1,-641.4 -337.1,-781.5 -937.4,-1436.2 -1690.4,-1843.7 -558.9,-302.4 -1186.5,-458.6 -1818,-458.6 m 7853.9,1883.3 h -0.1 c -15.2,82 -45.1,161.4 -89.4,234 -57.9,95 -137.4,173.6 -230.5,230.5 93,-56.7 172.4,-135.3 230.3,-230.1 44.4,-72.7 74.5,-152.3 89.7,-234.4 m -320.2,464.6 c -0.5,0.3 -0.9,0.6 -1.4,0.9 0.5,-0.3 0.9,-0.6 1.4,-0.9 m -2.4,1.5 c -0.2,0.1 -0.4,0.2 -0.6,0.4 0.2,-0.2 0.4,-0.3 0.6,-0.4"
         style="fill:#a68cc1;fill-opacity:1;fill-rule:nonzero;stroke:none"
         id="path116" />
      <path
         d="m 23836,7194 -3629.3,673.4 c 1099.5,-203.8 2175.8,452.4 2498,1523.1 l 4168.8,13864.1 c 123.2,409.8 -136.7,836.1 -557.5,913.8 l 3410.8,-632.8 c 537.3,-99.4 868.9,-643.3 711.7,-1167 L 26333.5,8717.4 C 26011.9,7646.5 24935.5,6990.2 23836,7194"
         style="fill:#ff1e00;fill-opacity:1;fill-rule:nonzero;stroke:none"
         id="path118" />
      <path
         d="m 23840.8,7220.2 c 1088.9,-201.9 2149,445.2 2467.3,1504.8 L 30413,22376.3 c 72.9,242.5 39,505.4 -92.8,721.4 -131.7,215.7 -349.7,365.8 -598.2,411.8 l -3138.7,582.2 c 95.8,-60.5 177.8,-142.9 238,-241.6 110.3,-180.7 138.6,-400.5 77.6,-603.1 L 22730.1,9382.9 C 22451.5,8456.7 21619.4,7838.3 20688.7,7805 l 3152.1,-584.8 m 398.2,-89.9 c -134.6,0 -271,12.2 -407.8,37.5 l -3629.4,673.4 9.7,52.4 0.8,-0.2 c 1087.7,-200.8 2148.2,445.5 2466.9,1504.8 L 26848,23262.3 c 56.6,188.2 30.3,392.3 -72.1,560.1 -101.9,166.9 -270.4,283.3 -462.5,319.4 l -2.3,0.4 9.7,52.3 1.4,-0.2 3409.5,-632.5 c 263.3,-48.8 494.4,-207.8 633.9,-436.4 139.7,-228.8 175.5,-507.4 98.4,-764.4 L 26359.1,8709.7 C 26073,7757.3 25201.4,7130.3 24239,7130.3"
         style="fill:#390176;fill-opacity:1;fill-rule:nonzero;stroke:none"
         id="path120" />
      <path
         d="m 23942.3,7203.8 c -33.8,4.7 -67.6,10.1 -101.5,16.4 L 20688.7,7805 c 930.7,33.3 1762.8,651.7 2041.4,1577.9 L 26898.9,23247 c 61,202.6 32.7,422.4 -77.6,603.1 -40.6,66.5 -91.1,125.6 -149,175.6 l 2483.9,-460.9 c 537.2,-99.5 868.9,-643.4 711.6,-1167 L 25762.9,8746.5 c -254.5,-847.8 -982.5,-1436 -1820.6,-1542.7"
         style="fill:#b21522;fill-opacity:1;fill-rule:nonzero;stroke:none"
         id="path122" />
      <path
         d="m 23839.6,7193.2 c -1.3,0.5 -2.3,0.4 -3.6,0.8 l -3624.7,672.7 c 133.1,-24.4 265.9,-36.3 397,-36.3 950.3,0 1813.7,620.3 2096.4,1560.1 l 4168.8,13864.1 c 89.7,298.6 -23.9,606.4 -254.9,781.1 l 53.7,-10 c 57.9,-50 108.4,-109.1 149,-175.6 110.3,-180.7 138.6,-400.5 77.6,-603.1 L 22730.1,9382.9 C 22451.5,8456.7 21619.4,7838.3 20688.7,7805 l 3152.1,-584.8 c 33.9,-6.3 67.7,-11.7 101.5,-16.4 -34.1,-4.3 -68.3,-7.9 -102.7,-10.6"
         style="fill:#280175;fill-opacity:1;fill-rule:nonzero;stroke:none"
         id="path124" />
      <path
         d="m 12283.7,26573.3 c -162.1,0 -321.4,-53.6 -451.3,-154.4 -165.5,-128.5 -268.5,-322.1 -282.6,-531.2 L 10580.1,11646 c -69,-1017.6 634.8,-1925.2 1637.3,-2111.2 L 20240,8046.7 c 1009.3,-187.2 1994.2,412.9 2290,1396.2 l 4168.5,13864.3 v 0.1 c 44.5,147.8 24.8,301.7 -55.5,433.5 -80.4,132 -208.4,220.1 -360.4,248.3 l -2630.8,488 c -413.9,76.9 -820.3,-142 -988.5,-531.9 -351,-813.4 -975.8,-1494.9 -1759.4,-1919 -795.2,-430.3 -1723.7,-576.5 -2614.5,-411.2 -890.8,165.3 -1705.3,634.6 -2293.2,1321.6 -579.3,676.8 -918.1,1537 -953.9,2422.2 -17.2,424.4 -318.2,774.4 -732.1,851.1 l -1892.5,351.1 c -44.5,8.2 -89.4,12.3 -134,12.3 z M 20610.1,7647.5 c -144.2,0 -290.2,13.2 -436.7,40.3 L 12150.7,9176 c -1184.6,219.7 -2016.4,1292.3 -1934.7,2494.8 l 969.6,14241.6 c 21.1,312.8 175.3,602.5 423.1,794.8 247.8,192.4 567.1,269.9 875.6,212.6 l 1892.5,-351 c 582.4,-108.1 1006,-599.6 1030.2,-1195.2 68.4,-1692.3 1281.1,-3090.3 2949,-3399.7 1667.8,-309.4 3301.3,560.7 3972.1,2115.9 236.2,547.3 807.4,854.3 1390.3,746.2 l 2630.8,-488 c 251.6,-46.7 472.4,-198.8 605.5,-417.3 133,-218.3 167,-483.9 93.2,-728.7 L 22879.5,9337.9 C 22573,8318.5 21640.1,7647.5 20610.1,7647.5"
         style="fill:#000072;fill-opacity:1;fill-rule:nonzero;stroke:none"
         id="path126" />
      <path
         d="m 24239.5,6974.3 c -144.2,0 -290.2,13.1 -436.9,40.3 l -3629.2,673.2 c -99.1,18.4 -164.5,113.6 -146.2,212.8 18.4,99 113.1,164.2 212.8,146.1 l 3629.2,-673.2 c 1010.2,-187.7 1994.3,412.9 2289.5,1396.3 l 4105.1,13651.5 c 60,199.9 32.2,416.7 -76.5,594.9 -108.6,178.1 -288.6,302.1 -493.8,340.2 l -3920.3,727.2 c -99.1,18.4 -164.5,113.6 -146.1,212.7 18.3,99.1 113.3,164.6 212.7,146.1 l 3920.3,-727.1 c 307,-57 576.2,-242.5 738.8,-509.1 162.6,-266.5 204.3,-590.9 114.4,-889.9 L 26508.2,8664.8 c -306,-1019.4 -1238.7,-1690.4 -2268.7,-1690.5"
         style="fill:#000072;fill-opacity:1;fill-rule:nonzero;stroke:none"
         id="path128" />
    </g>
    <path
       style="fill:#ab7e4f;stroke:#000000;stroke-width:5.89938"
       d="M 2.5965596,2666.6667 V 0 H 2666.6667 5330.7369 V 2666.6667 5333.3335 H 2666.6667 2.5965596 Z M 3301.27,4398.1042 c 15.1357,-3.1136 47.3831,-15.1061 71.661,-26.6501 35.2213,-16.7477 52.0125,-28.984 83.0911,-60.5513 21.7242,-22.066 46.2819,-53.4174 55.5295,-70.8915 11.2194,-21.2001 106.9211,-330.9782 296.0014,-958.1305 268.5378,-890.7016 279.4217,-928.4194 279.4267,-968.3462 0,-36.9138 -1.7925,-44.7143 -16.122,-69.9779 -20.6573,-36.4199 -45.6645,-56.4237 -87.4706,-69.9696 l -33.3913,-10.8193 82.7398,-199.8519 c 45.5069,-109.9186 82.7559,-203.8135 82.7756,-208.6554 0.057,-13.8544 -107.7117,-175.2161 -120.7695,-180.8288 -6.3906,-2.7468 -65.1656,-17.8918 -130.6111,-33.6555 -105.9486,-25.5195 -120.1796,-27.8589 -129.828,-21.3417 -6.5699,4.4379 -25.0462,41.1868 -46.9299,93.3428 -19.8515,47.3128 -37.0108,85.1063 -38.1315,83.9855 -1.1208,-1.1208 18.0425,-72.2718 42.5852,-158.1133 24.5426,-85.8415 44.6229,-162.1034 44.6229,-169.4708 0,-15.8405 -118.1613,-161.2342 -136.5958,-168.0768 -13.3783,-4.9657 -226.8181,-31.8858 -251.7012,-31.7457 -12.5834,0.071 -18.3187,3.1256 -22.117,11.7802 -2.8205,6.4264 -39.022,125.0243 -80.4479,263.5508 -41.4258,138.5264 -76.428,254.2031 -77.7827,257.0594 -1.3546,2.8562 -1.2578,-11.1652 0.215,-31.1588 1.4729,-19.9935 0.8582,-38.8007 -1.366,-41.7938 -2.971,-3.9979 -86.1007,-69.4895 -99.1746,-78.1319 -0.9099,-0.6015 30.0541,-71.4746 68.8089,-157.4958 38.7547,-86.0212 70.372,-161.6156 70.2605,-167.9876 -0.1111,-6.3719 -24.0646,-49.9782 -53.2295,-96.9027 l -53.0268,-85.3174 -127.0346,-35.2982 c -113.7005,-31.59311 -128.1968,-34.53672 -138.1066,-28.04356 -7.0482,4.61819 -48.5773,87.79596 -114.276,228.88106 -56.7622,121.8945 -103.9182,219.4839 -104.7911,216.8652 -0.8729,-2.6186 15.9934,-94.1366 37.4807,-203.3733 21.4873,-109.2366 39.0677,-204.9187 39.0677,-212.6269 0,-11.13304 -15.2168,-29.11592 -74.0019,-87.45361 l -74.002,-73.43875 -101.2658,-3.20457 c -55.6962,-1.7625 -114.1188,-4.46001 -129.828,-5.99442 -19.3198,-1.88708 -31.4953,-0.59056 -37.6267,4.0068 -6.8916,5.16741 -22.4521,71.25126 -64.9139,275.68405 -47.3773,228.0982 -56.382,265.5176 -59.3594,246.6732 -1.9305,-12.2179 -3.6831,-33.0557 -3.8949,-46.3063 -0.2388,-14.9656 -3.8276,-28.119 -9.4728,-34.7227 -4.9984,-5.8469 -47.3329,-31.9946 -94.0768,-58.1061 l -84.9888,-47.4754 -127.8759,31.6975 c -70.3318,17.4337 -131.1715,34.993 -135.1993,39.0208 -6.3023,6.3024 -4.6457,41.4833 11.883,252.3479 10.5635,134.7634 17.975,246.2559 16.47,247.7609 -1.5051,1.5051 -20.2961,-0.2674 -41.7578,-3.9384 -21.4617,-3.6711 -50.9819,-5.2582 -65.6004,-3.5269 -55.5346,6.5773 -106.1771,49.9995 -121.0761,103.8138 -4.8793,17.6238 -30.1832,362.2389 -73.282,998.0321 l -65.8294,971.1133 8.5886,44.1415 c 13.0211,66.9225 38.1963,113.7336 88.2719,164.134 45.5909,45.8865 94.2116,73.9651 148.4278,85.7174 15.6297,3.388 376.6164,71.0086 802.1925,150.2679 817.2318,152.2012 827.4059,153.7837 896.8558,139.4973 z"
       id="path25052"
       transform="matrix(0.75000002,0,0,-0.75000002,0,4000.0001)" />
    <ellipse
       style="fill:#fcfcd8;stroke:#000000;stroke-width:0.852"
       id="path28466"
       cx="1905.3608"
       cy="-540.44519"
       transform="scale(1,-1)"
       rx="981.30225"
       ry="81.87365" />
  </g>
</svg>
