<?xml version="1.0" encoding="UTF-8" standalone="no"?>
<!-- Created with Inkscape (http://www.inkscape.org/) -->

<svg
   version="1.1"
   id="svg2"
   width="5333.3335"
   height="5333.3335"
   viewBox="0 0 5333.3335 5333.3335"
   sodipodi:docname="tea.svg"
   inkscape:version="1.2.2 (b0a8486, 2022-12-01)"
   xmlns:inkscape="http://www.inkscape.org/namespaces/inkscape"
   xmlns:sodipodi="http://sodipodi.sourceforge.net/DTD/sodipodi-0.dtd"
   xmlns="http://www.w3.org/2000/svg"
   xmlns:svg="http://www.w3.org/2000/svg">
  <defs
     id="defs6">
    <clipPath
       clipPathUnits="userSpaceOnUse"
       id="clipPath256">
      <path
         d="m 19921.2,26544.3 c -216.3,0 -390.4,79.7 -391.8,142.4 -1.4,64.6 181.1,74.1 406.5,79.1 46.2,1 90.6,1.8 132.1,1.8 160.6,0 276.3,-11.4 277.4,-62.8 1.5,-64.6 -179.3,-155.3 -404.6,-160.3 -6.6,-0.1 -13.1,-0.2 -19.6,-0.2"
         id="path254" />
    </clipPath>
  </defs>
  <sodipodi:namedview
     id="namedview4"
     pagecolor="#ffffff"
     bordercolor="#000000"
     borderopacity="0.25"
     inkscape:showpageshadow="2"
     inkscape:pageopacity="0.0"
     inkscape:pagecheckerboard="0"
     inkscape:deskcolor="#d1d1d1"
     showgrid="false"
     inkscape:zoom="0.19256249"
     inkscape:cx="2230.4447"
     inkscape:cy="2664.0702"
     inkscape:window-width="2560"
     inkscape:window-height="1299"
     inkscape:window-x="0"
     inkscape:window-y="25"
     inkscape:window-maximized="1"
     inkscape:current-layer="g8" />
  <g
     id="g8"
     inkscape:groupmode="layer"
     inkscape:label="ink_ext_XXXXXX"
     transform="matrix(1.3333333,0,0,-1.3333333,0,5333.3333)">
    <g
       id="g10"
       transform="scale(0.1)">
      <path
         d="M 0,0 H 40000 V 40000 H 0 Z"
         style="fill:#cceeff;fill-opacity:1;fill-rule:nonzero;stroke:none"
         id="path12" />
      <path
         d="M 27111.3,23057.3 25365.9,10513.7 c -145.1,-1043.5 -946.5,-1878.3 -1984.8,-2055 -971.9,-165.8 -1943.3,-260 -2914.7,-282.6 -908.3,-21.7 -1816.1,19.3 -2724.4,122.9 -374.5,42.4 -748.6,95.7 -1123.1,159.7 -1038.3,176.7 -1839.7,1011.5 -1984.8,2055 l -1745.4,12543.6 h 14222.6"
         style="fill:#50d2ff;fill-opacity:1;fill-rule:nonzero;stroke:none"
         id="path14" />
      <path
         d="m 17750.8,8298 c -2.9,0.4 -5.9,0.7 -8.8,1 -374.5,42.4 -748.6,95.7 -1123.1,159.7 -1038.3,176.7 -1839.7,1011.5 -1984.8,2055 v 0 c 145.1,-1043.5 946.5,-1878.3 1984.8,-2055 374.5,-64 748.6,-117.3 1123.1,-159.7 2.9,-0.3 5.8,-0.6 8.8,-1"
         style="fill:#e8f7ff;fill-opacity:1;fill-rule:nonzero;stroke:none"
         id="path16" />
      <path
         d="m 19986.3,8171.2 c -88.4,0 -176.8,0.6 -265.2,1.8 37.2,1 74.3,2 111.5,3.1 51.2,-1.8 102.5,-3.5 153.7,-4.9 m -1527.5,59.2 c -236,18.3 -472,40.8 -708,67.6 -3,0.4 -5.9,0.7 -8.8,1 -374.5,42.4 -748.6,95.7 -1123.1,159.7 -1038.3,176.7 -1839.7,1011.5 -1984.8,2055 v 0 l -1722.5,12378.7 h 549 l 1723.5,-12386 c 145.1,-1043.5 946.5,-1878.3 1984.8,-2054.9 374.5,-64.1 748.6,-117.3 1123.1,-159.7 133.9,-15.3 267.8,-29.2 401.7,-41.8 -78.3,-7 -156.6,-13.5 -234.9,-19.6"
         style="fill:#b0ebff;fill-opacity:1;fill-rule:nonzero;stroke:none"
         id="path18" />
      <path
         d="m 25440.3,17885 c 283.6,3240.8 -3391,2392.8 -5937,1443.7 0,0 3368.5,-3459.5 5937,-1443.7"
         style="fill:#f99012;fill-opacity:1;fill-rule:nonzero;stroke:none"
         id="path20" />
      <path
         d="m 19548.5,19318.8 c 153.9,-151.7 941.3,-903.1 1972.8,-1446.3 1052.2,-554.3 2581,-998.7 3895,25.5 73.2,860.8 -134.8,1483.7 -618.3,1851.7 -1104.7,840.7 -3456.4,233.9 -5249.5,-430.9 m 4075.1,-2086 c -657.7,0 -1372.5,198.6 -2126.6,596 -1153.4,607.7 -2003.2,1473.8 -2011.7,1482.4 l -26.7,27.5 35.9,13.4 c 1809.4,674.5 4203.4,1297.9 5333.8,437.4 500,-380.6 714.3,-1022.1 636.9,-1906.7 l -1,-10.8 -8.5,-6.7 c -537.2,-421.6 -1154.4,-632.5 -1832.1,-632.5"
         style="fill:#000072;fill-opacity:1;fill-rule:nonzero;stroke:none"
         id="path22" />
      <path
         d="m 23290.4,17748.4 c -698.3,120.7 -1376.7,430.6 -2061.2,800.6 v 1032.6 c 634.2,154 1264.5,254.2 1831.8,254.2 178.7,0 351.1,-9.9 515.4,-31.3 l -286,-2056.1"
         style="fill:#ae652f;fill-opacity:1;fill-rule:nonzero;stroke:none"
         id="path24" />
      <path
         d="m 25440.5,17720.1 c -4.8,0 -9.7,0.2 -14.6,0.7 -90.7,7.9 -157.8,87.9 -149.9,178.6 71.4,815.4 -118,1400.4 -562.8,1739 -840.2,639.6 -2621.9,479.1 -5152.3,-464.2 -85.4,-31.8 -180.3,11.6 -212.1,96.9 -31.9,85.3 11.5,180.3 96.9,212.1 2679.6,998.9 4519.1,1139.4 5467.3,417.6 540.8,-411.6 773.4,-1094.7 691.5,-2030.1 -7.5,-85.9 -79.4,-150.6 -164,-150.6"
         style="fill:#000072;fill-opacity:1;fill-rule:nonzero;stroke:none"
         id="path26" />
      <path
         d="m 21064.3,14925.7 h -2128.6 v 19623.5 c 0,265.3 215,480.4 480.3,480.4 h 1168 c 265.3,0 480.3,-215.1 480.3,-480.4 V 14925.7"
         style="fill:#ff3d1d;fill-opacity:1;fill-rule:nonzero;stroke:none"
         id="path28" />
      <path
         d="m 20764.2,18807.4 c -114.4,64.9 -229.4,130.7 -344.6,196.8 -31,17.7 -62.1,35.5 -93.1,53.3 v 1775.7 c 0,538 -353.9,1011.8 -869.7,1164.6 l -356.2,105.6 v 789 h 1663.6 v -4085"
         style="fill:#b22b37;fill-opacity:1;fill-rule:nonzero;stroke:none"
         id="path30" />
      <path
         d="m 20764.2,31027.8 c -161.8,17.2 -324.5,29 -487.7,35.3 v 3486.3 c 0,120.7 -44.6,230.9 -118.2,315.3 h 425.7 c 23.6,0 46.6,-2.6 68.7,-7.6 69.6,-83.3 111.5,-190.6 111.5,-307.7 v -3521.6"
         style="fill:#b22b37;fill-opacity:1;fill-rule:nonzero;stroke:none"
         id="path32" />
      <path
         d="m 19100.6,31012.1 v 3537.1 c 0,174 141.5,315.5 315.4,315.5 h 70 c -73.6,-84.4 -118.2,-194.6 -118.2,-315.3 v -3508.8 c -89.3,-7.9 -178.4,-17.4 -267.2,-28.5"
         style="fill:#ffa899;fill-opacity:1;fill-rule:nonzero;stroke:none"
         id="path34" />
      <path
         d="m 19100.6,15090.6 h 1798.8 v 19458.6 c 0,174 -141.5,315.5 -315.4,315.5 h -1168 c -173.9,0 -315.4,-141.5 -315.4,-315.5 V 15090.6 m 1963.7,-329.7 h -2128.6 c -91.1,0 -164.9,73.8 -164.9,164.9 v 19623.4 c 0,355.8 289.4,645.2 645.2,645.2 h 1168 c 355.8,0 645.2,-289.4 645.2,-645.2 V 14925.8 c 0,-91.1 -73.8,-164.9 -164.9,-164.9"
         style="fill:#000072;fill-opacity:1;fill-rule:nonzero;stroke:none"
         id="path36" />
      <path
         d="m 21096.8,20985.8 -57.6,17.9 v 1888.7 h 57.6 v -1906.6"
         style="fill:#000072;fill-opacity:1;fill-rule:nonzero;stroke:none"
         id="path38" />
      <path
         d="m 23770,29817.7 c 2137.3,2016.2 4574.3,-567 2437.1,-2583.3 L 23770,29817.7"
         style="fill:#60547b;fill-opacity:1;fill-rule:nonzero;stroke:none"
         id="path40" />
      <path
         d="m 26804.9,29350.7 c -283.3,477.3 -804,793.4 -1416.1,793.4 -379.7,0 -794.5,-121.6 -1209.7,-401.7 -45.7,32.3 -91.8,64 -138.2,95.1 466.8,387.7 931.8,546.2 1344.7,546.2 442.3,0 824.8,-181.8 1086,-458.6 156.2,-165.6 268.7,-361.1 333.3,-574.4"
         style="fill:#b7b2c3;fill-opacity:1;fill-rule:nonzero;stroke:none"
         id="path42" />
      <path
         d="m 13796,27240.7 c -2123.7,2014.4 306.3,4588 2439.9,2580.2 L 13796,27240.7"
         style="fill:#60547b;fill-opacity:1;fill-rule:nonzero;stroke:none"
         id="path44" />
      <path
         d="m 13217.2,29384.1 c 68.5,207.6 180.3,391.8 322,541.7 260.9,276.1 643.1,457.5 1085,457.5 411.6,0 874.9,-157.4 1340.1,-542.3 -43.2,-28.9 -86.1,-58.4 -128.7,-88.3 -416.7,282.4 -833.3,404.9 -1214.3,404.9 -603.6,0 -1118.3,-307.3 -1404.1,-773.5"
         style="fill:#b7b2c3;fill-opacity:1;fill-rule:nonzero;stroke:none"
         id="path46" />
      <path
         d="m 13063,25205.9 c 663.3,3223.3 3516.8,5647.6 6937,5647.6 3420.2,0 6273.7,-2424.3 6937,-5647.6 H 13063"
         style="fill:#ffffff;fill-opacity:1;fill-rule:nonzero;stroke:none"
         id="path48" />
      <path
         d="m 26912.5,25200.9 c -671.1,3260.8 -3578.2,5627.6 -6912.5,5627.6 -3334.3,0 -6241.4,-2366.8 -6912.5,-5627.6 l -49,10.1 c 324.8,1578.4 1192.5,3015.5 2443.3,4046.7 1267.7,1045.2 2872.3,1620.8 4518.2,1620.8 1645.9,0 3250.5,-575.6 4518.2,-1620.8 1250.8,-1031.2 2118.5,-2468.3 2443.3,-4046.7 l -49,-10.1"
         style="fill:#000072;fill-opacity:1;fill-rule:nonzero;stroke:none"
         id="path50" />
      <path
         d="m 26549.8,25420.6 h -1477.6 c -598.7,2594 -2622.5,4642.4 -5203.3,5277.1 3.5,-0.8 6.9,-1.7 10.3,-2.5 3208.6,-79.7 5886.8,-2293.3 6670.6,-5274.6 m -6680.9,5277.1 c -49.8,12.2 -99.8,24 -150.1,35.2 0.2,0 -0.1,0 0.1,0 50.2,-11.2 100.3,-23 150,-35.2"
         style="fill:#b2b2d4;fill-opacity:1;fill-rule:nonzero;stroke:none"
         id="path52" />
      <path
         d="m 26936.8,25091 c -76.6,0 -145.3,53.7 -161.3,131.7 -657.7,3196.1 -3507.3,5515.9 -6775.5,5515.9 -3268.3,0 -6117.8,-2319.8 -6775.5,-5515.9 -18.4,-89.2 -105.6,-146.4 -194.7,-128.3 -89.2,18.4 -146.7,105.6 -128.3,194.8 331.3,1609.6 1216,3075 2491.3,4126.4 1292.7,1065.8 2928.9,1652.8 4607.2,1652.8 1678.3,0 3314.5,-587 4607.2,-1652.8 1275.3,-1051.4 2160,-2516.8 2491.3,-4126.4 18.4,-89.2 -39.1,-176.4 -128.3,-194.8 -11.2,-2.3 -22.4,-3.4 -33.4,-3.4"
         style="fill:#000072;fill-opacity:1;fill-rule:nonzero;stroke:none"
         id="path54" />
      <path
         d="m 25440.3,17885 -1007.7,-7241.3 c -89.5,-643.5 -575.7,-1148.1 -1209.8,-1256.4 -1069.9,-182.3 -2153.9,-274.7 -3222.8,-274.7 -1068.9,0 -2152.9,92.4 -3222.8,274.7 -634.1,108.3 -1120.3,612.9 -1209.8,1256.4 l -1063.5,7642.4 c -66.6,478.7 140.1,956.9 539.2,1229.5 1910.1,1304.5 3606.2,312.6 5337.8,-679.3 1591.9,-911.9 3213.7,-1823.7 5059.4,-951.3"
         style="fill:#f99012;fill-opacity:1;fill-rule:nonzero;stroke:none"
         id="path56" />
      <path
         d="m 16945.2,20118.6 c -610.2,0 -1234.8,-177.5 -1888,-623.7 -386.3,-263.7 -593.8,-736.9 -528.6,-1205.3 l 1063.5,-7642.4 c 88,-632.3 565.9,-1128.8 1189.3,-1235.3 1068,-182 2150.9,-274.3 3218.6,-274.3 1067.7,0 2150.6,92.3 3218.6,274.3 623.4,106.5 1101.3,603 1189.3,1235.3 l 1001.3,7195.8 c -1856.9,-852.5 -3497.3,87.3 -5084,996.4 -1136.9,651.3 -2232.8,1279.2 -3380,1279.2 M 20000,9087.6 c -1070.5,0 -2156.2,92.5 -3227,275 -645,110.2 -1139.4,623.7 -1230.4,1277.7 l -1063.5,7642.3 c -67.8,487.1 148.1,979.2 549.9,1253.7 856.5,584.9 1750.7,758.4 2733.6,530.3 875.9,-203.2 1746,-701.7 2587.5,-1183.8 1587.4,-909.5 3228.9,-1850 5079.5,-975.2 l 41.8,19.8 -1014,-7287.1 c -91,-654 -585.4,-1167.5 -1230.4,-1277.7 -1070.8,-182.5 -2156.5,-275 -3227,-275"
         style="fill:#000072;fill-opacity:1;fill-rule:nonzero;stroke:none"
         id="path58" />
      <path
         d="m 16057.9,9960.5 c -172.5,191.3 -289.5,434.8 -327.2,705.9 l -1063.5,7642.4 c -57.9,416.3 126.1,836.5 468.9,1070.6 350.5,239.4 693.4,397.8 1030.9,490.5 l 13.2,-369 c -234.7,-96.1 -472.2,-224.1 -713.2,-388.6 -399,-272.8 -605.8,-751 -539.4,-1229.6 l 1063.8,-7642.3 c 13.4,-96.7 35.9,-190.3 66.5,-279.9 m 7168.9,7331.3 c -559.6,157.6 -1104.9,414.8 -1643.4,704.6 540.4,-262.4 1092.1,-474.6 1661.9,-572.2 l -18.5,-132.4 m -3759.4,1869.3 c -187.7,91.1 -375.8,175.1 -564.5,249.3 l -1.5,39.8 c 188.4,-89.6 376.8,-186.9 566,-289.1"
         style="fill:#fccd94;fill-opacity:1;fill-rule:nonzero;stroke:none"
         id="path60" />
      <path
         d="m 16944.3,19974.3 c -587.1,0 -1185.6,-169.7 -1808.2,-594.9 -342.8,-234.1 -526.8,-654.3 -468.9,-1070.6 l 1063.5,-7642.4 c 79.5,-571.6 511.2,-1020.4 1074.3,-1116.6 1060.2,-180.7 2135.2,-272.3 3195,-272.3 1059.8,0 2134.8,91.6 3195.1,272.3 563,96.2 994.7,545 1074.2,1116.6 l 967.4,6951.7 c -1825.8,-708.1 -3428.5,210.4 -4981,1099.9 -1116.6,639.7 -2192.8,1256.3 -3311.4,1256.3 M 20000,8947.7 c -1078.3,0 -2172,93.2 -3250.5,277 -705.4,120.6 -1246,681.7 -1345.4,1396.3 l -1063.5,7642.4 c -75.1,539.3 164.2,1084.2 609.5,1388.4 1979.6,1351.9 3753.7,335.4 5469.5,-647.6 1628,-932.7 3165.6,-1813.7 4950.2,-970.1 54.8,25.9 119.3,19.7 168.1,-16.2 48.8,-35.9 74.1,-95.6 65.7,-155.6 L 24595.9,10621 c -99.4,-714.6 -640,-1275.7 -1345.3,-1396.3 -1078.6,-183.8 -2172.3,-277 -3250.6,-277"
         style="fill:#000072;fill-opacity:1;fill-rule:nonzero;stroke:none"
         id="path62" />
      <path
         d="m 23391.9,27328.6 c 0,-372.8 -224.7,-675 -501.9,-675 -277.2,0 -502,302.2 -502,675 0,372.8 224.8,675.1 502,675.1 277.2,0 501.9,-302.3 501.9,-675.1"
         style="fill:#7a2938;fill-opacity:1;fill-rule:nonzero;stroke:none"
         id="path64" />
      <path
         d="m 22890,27978.7 c -263,0 -477,-291.7 -477,-650.1 0,-358.5 214,-650.1 477,-650.1 263,0 476.9,291.6 476.9,650.1 0,358.4 -213.9,650.1 -476.9,650.1 z m 0,-1350.2 c -290.6,0 -527,314.1 -527,700.1 0,386 236.4,700.1 527,700.1 290.5,0 526.9,-314.1 526.9,-700.1 0,-386 -236.4,-700.1 -526.9,-700.1"
         style="fill:#000072;fill-opacity:1;fill-rule:nonzero;stroke:none"
         id="path66" />
      <path
         d="m 24274.2,28271.2 c 541,-1052.2 215.3,-1867.4 -366.6,-2224.3 -388.8,-238.5 -898,-89.2 -1103.4,318.1 -307.9,610.5 -699.6,1134.6 -1186.7,1560.4 -285.4,249.5 -358.8,672.1 -155.4,992 375.4,590.1 1278.1,724.3 2063.3,208.9 321.8,-211.3 572.9,-512.7 748.8,-855.1"
         style="fill:#60547b;fill-opacity:1;fill-rule:nonzero;stroke:none"
         id="path68" />
      <path
         d="m 21970.1,27349.1 c 101.7,-548.6 490.4,-936.6 868.2,-866.6 377.8,70 601.7,571.5 500.1,1120.1 -101.7,548.6 -490.4,936.6 -868.2,866.6 -377.8,-70 -601.7,-571.5 -500.1,-1120.1"
         style="fill:#ffffff;fill-opacity:1;fill-rule:nonzero;stroke:none"
         id="path70" />
      <path
         d="m 21987.3,27352.3 c 99.8,-538.2 480.3,-920.6 847.8,-852.6 367.7,68.1 585.7,561.5 486,1099.7 -48.5,261.9 -164.2,494.9 -325.7,656.1 -159.7,159.5 -345.2,229.1 -522,196.5 -176.9,-32.8 -325,-164.4 -417,-370.5 -93.1,-208.3 -117.6,-467.3 -69.1,-729.2 z m 762.7,-895.5 c -356.2,0 -702,375.7 -797.1,889.1 -49.8,268.8 -24.5,535.1 71.4,749.9 96.9,217 254.1,355.7 442.7,390.6 188.5,35.1 385,-38.1 553.2,-206.1 166.5,-166.2 285.6,-405.7 335.4,-674.5 103.2,-557.2 -127.4,-1068.9 -514.1,-1140.6 -30.5,-5.7 -61,-8.4 -91.5,-8.4"
         style="fill:#000072;fill-opacity:1;fill-rule:nonzero;stroke:none"
         id="path72" />
      <path
         d="m 21970.1,27349.1 c 101.7,-548.6 490.4,-936.6 868.2,-866.6 377.8,70 601.7,571.5 500.1,1120.1 -101.7,548.6 -490.4,936.6 -868.2,866.6 -377.8,-70 -601.7,-571.5 -500.1,-1120.1"
         style="fill:#ffffff;fill-opacity:1;fill-rule:nonzero;stroke:none"
         id="path74" />
      <path
         d="m 21987.3,27352.3 c 99.8,-538.2 480.3,-920.6 847.8,-852.6 367.7,68.1 585.7,561.5 486,1099.7 -48.5,261.9 -164.2,494.9 -325.7,656.1 -159.7,159.5 -345.2,229.1 -522,196.5 -176.9,-32.8 -325,-164.4 -417,-370.5 -93.1,-208.3 -117.6,-467.3 -69.1,-729.2 z m 762.7,-895.5 c -356.2,0 -702,375.7 -797.1,889.1 -49.8,268.8 -24.5,535.1 71.4,749.9 96.9,217 254.1,355.7 442.7,390.6 188.5,35.1 385,-38.1 553.2,-206.1 166.5,-166.2 285.6,-405.7 335.4,-674.5 103.2,-557.2 -127.4,-1068.9 -514.1,-1140.6 -30.5,-5.7 -61,-8.4 -91.5,-8.4"
         style="fill:#000072;fill-opacity:1;fill-rule:nonzero;stroke:none"
         id="path76" />
      <path
         d="m 21973,27333.4 c 82.8,-446.6 399.2,-762.4 706.7,-705.4 307.6,57 489.8,465.2 407.1,911.8 -82.8,446.6 -399.2,762.4 -706.7,705.5 -307.6,-57 -489.8,-465.3 -407.1,-911.9"
         style="fill:#000072;fill-opacity:1;fill-rule:nonzero;stroke:none"
         id="path78" />
      <path
         d="m 22559.1,28687.9 c -42.6,0 -85.4,-3.9 -127.3,-11.7 -499.6,-92.6 -793.4,-692.4 -668.7,-1365.5 112.4,-606.6 527.2,-1046.9 986.3,-1046.9 42.6,0 85.4,3.9 127.3,11.7 499.6,92.6 793.3,692.3 668.7,1365.5 -112.5,606.6 -527.2,1046.9 -986.3,1046.9 z m 0,-210.5 c 348.1,0 685.6,-369.2 779.3,-874.8 101.6,-548.6 -122.3,-1050.1 -500.1,-1120.1 -29.6,-5.5 -59.3,-8.2 -88.9,-8.2 -348.1,0 -685.6,369.2 -779.3,874.8 -101.6,548.6 122.2,1050.1 500.1,1120.1 29.6,5.5 59.3,8.2 88.9,8.2"
         style="fill:#000072;fill-opacity:1;fill-rule:nonzero;stroke:none"
         id="path80" />
      <path
         d="m 22569.8,27719.5 c 25.7,-138.5 158.7,-229.9 297.1,-204.2 138.5,25.6 229.9,158.6 204.3,297.1 -25.7,138.4 -158.7,229.8 -297.1,204.2 -138.5,-25.7 -229.9,-158.7 -204.3,-297.1"
         style="fill:#ffffff;fill-opacity:1;fill-rule:nonzero;stroke:none"
         id="path82" />
      <path
         d="m 26207.1,27069.5 c -43.8,0 -87.5,17.4 -120,51.8 -62.5,66.2 -59.4,170.6 6.8,233 465,438.6 731.3,933.4 770.2,1430.7 33.8,431.1 -105.6,836 -392.5,1140.1 -532.4,564.3 -1569.5,733.8 -2588.4,-227.3 -66.3,-62.5 -170.6,-59.5 -233.1,6.8 -62.5,66.2 -59.5,170.6 6.8,233 1183.7,1116.8 2413.2,893.6 3054.5,213.8 641.4,-679.9 792.6,-1920.2 -391.2,-3036.9 -31.8,-30.1 -72.5,-45 -113.1,-45"
         style="fill:#000072;fill-opacity:1;fill-rule:nonzero;stroke:none"
         id="path84" />
      <path
         d="m 13796,27075.8 c -40.7,0 -81.6,14.9 -113.4,45.2 -1176.6,1116 -1023.3,2353.6 -383.1,3031.3 640.3,677.8 1867.7,900.7 3049.4,-211.3 66.3,-62.4 69.5,-166.8 7,-233.1 -62.4,-66.3 -166.7,-69.6 -233,-7 -1017,956.9 -2052.2,787.4 -2583.7,224.9 -531.3,-562.4 -642.1,-1605.2 370.3,-2565.5 66.1,-62.7 68.8,-167.1 6.2,-233.1 -32.5,-34.2 -76,-51.4 -119.7,-51.4"
         style="fill:#000072;fill-opacity:1;fill-rule:nonzero;stroke:none"
         id="path86" />
      <path
         d="M 27249.4,23057.3 H 12750.6 c -335.1,0 -606.8,271.6 -606.8,606.8 v 984.8 c 0,335.2 271.7,606.9 606.8,606.9 h 14498.8 c 335.1,0 606.8,-271.7 606.8,-606.9 v -984.8 c 0,-335.2 -271.7,-606.8 -606.8,-606.8"
         style="fill:#60547b;fill-opacity:1;fill-rule:nonzero;stroke:none"
         id="path88" />
      <path
         d="m 27670.3,24783.6 c -78,70.3 -174.4,120.5 -281.1,142.7 -31.8,61.6 -73.7,117.1 -123.7,164.2 189.7,-6.8 349.3,-133.8 404.8,-306.9 m -2281.5,155.5 h -7965.3 c 30.9,56.6 70.6,107.8 117.3,151.7 h 7730.8 c 46.6,-43.9 86.3,-95.1 117.2,-151.7 m -9752,0 h -2611.6 c 23.9,55.3 55.7,106.4 94.2,151.7 h 2634.7 c -46.7,-43.9 -86.4,-95.1 -117.3,-151.7"
         style="fill:#b7b2c3;fill-opacity:1;fill-rule:nonzero;stroke:none"
         id="path90" />
      <path
         d="m 27249.4,23222.2 h -1978 c 117.6,110.7 191,267.7 191,441.9 v 985 c 0,105 -26.7,203.8 -73.6,290 h 1876.3 c 42.5,0 84,-4.4 124.1,-12.8 42.8,-83.1 66.9,-177.3 66.9,-277.2 v -985 c 0,-174 -73.3,-331 -190.7,-441.6 -5.3,-0.2 -10.7,-0.3 -16,-0.3"
         style="fill:#433b78;fill-opacity:1;fill-rule:nonzero;stroke:none"
         id="path92" />
      <path
         d="m 27389.2,24926.3 c -40.1,8.4 -81.6,12.8 -124.1,12.8 h -1876.3 c -30.9,56.6 -70.6,107.8 -117.2,151.7 h 1977.8 c 5.4,0 10.8,-0.1 16.1,-0.3 50,-47.1 91.9,-102.6 123.7,-164.2"
         style="fill:#807cab;fill-opacity:1;fill-rule:nonzero;stroke:none"
         id="path94" />
      <path
         d="m 13227.5,23222.2 h -476.9 c -243.7,0 -441.9,198.2 -441.9,441.9 v 984.9 c 0,31.7 3.4,62.8 9.8,92.7 110.9,121.3 270.5,197.4 447.9,197.4 h 258.8 c -31.8,-73.7 -49.3,-154.8 -49.3,-240 v -985 c 0,-202.4 99.1,-381.6 251.6,-491.9"
         style="fill:#b7b2c3;fill-opacity:1;fill-rule:nonzero;stroke:none"
         id="path96" />
      <path
         d="m 12318.5,24741.7 c 42.7,199.2 220.2,349.1 432.1,349.1 h 368.8 c -38.5,-45.3 -70.3,-96.4 -94.2,-151.7 h -258.8 c -177.4,0 -337,-76.1 -447.9,-197.4"
         style="fill:#dfdce4;fill-opacity:1;fill-rule:nonzero;stroke:none"
         id="path98" />
      <path
         d="m 17540.8,23222.2 h -1786.7 c -117.6,110.7 -191,267.7 -191,441.8 v 985.1 c 0,105 26.7,203.8 73.7,290 h 1786.7 c -47,-86.2 -73.7,-185 -73.7,-290 V 23664 c 0,-174.1 73.4,-331.1 191,-441.8"
         style="fill:#7d7393;fill-opacity:1;fill-rule:nonzero;stroke:none"
         id="path100" />
      <path
         d="m 17423.5,24939.1 h -1786.7 c 30.9,56.6 70.6,107.8 117.3,151.7 h 1786.7 c -46.7,-43.9 -86.4,-95.1 -117.3,-151.7"
         style="fill:#c4c0ce;fill-opacity:1;fill-rule:nonzero;stroke:none"
         id="path102" />
      <path
         d="m 12750.6,25090.8 c -243.7,0 -441.9,-198.2 -441.9,-441.8 v -984.9 c 0,-243.7 198.2,-441.9 441.9,-441.9 h 14498.8 c 243.7,0 441.9,198.2 441.9,441.9 v 984.9 c 0,243.6 -198.2,441.8 -441.9,441.8 H 12750.6 M 27249.4,22892.4 H 12750.6 c -425.5,0 -771.7,346.2 -771.7,771.7 v 984.9 c 0,425.4 346.2,771.6 771.7,771.6 h 14498.8 c 425.5,0 771.7,-346.2 771.7,-771.6 v -984.9 c 0,-425.5 -346.2,-771.7 -771.7,-771.7"
         style="fill:#000072;fill-opacity:1;fill-rule:nonzero;stroke:none"
         id="path104" />
      <path
         d="m 19853.9,11628.3 c 0,-572.4 -464,-1036.4 -1036.4,-1036.4 -572.4,0 -1036.4,464 -1036.4,1036.4 0,572.4 464,1036.4 1036.4,1036.4 572.4,0 1036.4,-464 1036.4,-1036.4"
         style="fill:#964557;fill-opacity:1;fill-rule:nonzero;stroke:none"
         id="path106" />
      <path
         d="m 18817.5,12639.7 c -557.7,0 -1011.4,-453.7 -1011.4,-1011.4 0,-557.7 453.7,-1011.4 1011.4,-1011.4 557.7,0 1011.4,453.7 1011.4,1011.4 0,557.7 -453.7,1011.4 -1011.4,1011.4 m 0,-2072.8 c -585.3,0 -1061.4,476.1 -1061.4,1061.4 0,585.2 476.1,1061.4 1061.4,1061.4 585.3,0 1061.4,-476.2 1061.4,-1061.4 0,-585.3 -476.1,-1061.4 -1061.4,-1061.4"
         style="fill:#000072;fill-opacity:1;fill-rule:nonzero;stroke:none"
         id="path108" />
      <path
         d="m 18817.5,12499.8 c -480.5,0 -871.5,-390.9 -871.5,-871.5 0,-480.6 391,-871.5 871.5,-871.5 480.6,0 871.6,390.9 871.6,871.5 0,480.6 -391,871.5 -871.6,871.5 m 0,-2072.8 c -662.4,0 -1201.3,538.9 -1201.3,1201.3 0,662.4 538.9,1201.3 1201.3,1201.3 662.4,0 1201.3,-538.9 1201.3,-1201.3 0,-662.4 -538.9,-1201.3 -1201.3,-1201.3"
         style="fill:#000072;fill-opacity:1;fill-rule:nonzero;stroke:none"
         id="path110" />
      <path
         d="m 20601.5,16909.6 c 0,-572.4 -464,-1036.4 -1036.4,-1036.4 -572.4,0 -1036.4,464 -1036.4,1036.4 0,572.4 464,1036.4 1036.4,1036.4 572.4,0 1036.4,-464 1036.4,-1036.4"
         style="fill:#964557;fill-opacity:1;fill-rule:nonzero;stroke:none"
         id="path112" />
      <path
         d="m 19100,16990.8 c -40,0 -77.9,7.6 -111.3,23.1 l -19.1,531.6 c 156,146.1 365.5,235.7 595.5,235.7 81,0 159.4,-11.1 233.9,-31.9 -167.4,-4 -325.3,-47.7 -463.9,-122.2 53.2,-8.5 99.8,-32 134.7,-71.1 100.8,-113.6 59.4,-315.2 -92.8,-450.9 -85.1,-75.4 -186.5,-114.3 -277,-114.3"
         style="fill:#d0abb3;fill-opacity:1;fill-rule:nonzero;stroke:none"
         id="path114" />
      <path
         d="m 19565.1,17781.2 c -480.6,0 -871.5,-391 -871.5,-871.6 0,-480.5 390.9,-871.5 871.5,-871.5 480.6,0 871.5,391 871.5,871.5 0,480.6 -390.9,871.6 -871.5,871.6 m 0,-2072.9 c -662.4,0 -1201.3,538.9 -1201.3,1201.3 0,662.4 538.9,1201.4 1201.3,1201.4 662.4,0 1201.3,-539 1201.3,-1201.4 0,-662.4 -538.9,-1201.3 -1201.3,-1201.3"
         style="fill:#000072;fill-opacity:1;fill-rule:nonzero;stroke:none"
         id="path116" />
      <path
         d="m 18171,14864.7 c 0,-572.4 -464,-1036.4 -1036.4,-1036.4 -572.4,0 -1036.5,464 -1036.5,1036.4 0,572.4 464.1,1036.5 1036.5,1036.5 572.4,0 1036.4,-464.1 1036.4,-1036.5"
         style="fill:#964557;fill-opacity:1;fill-rule:nonzero;stroke:none"
         id="path118" />
      <path
         d="m 17134.6,15876.1 c -557.7,0 -1011.5,-453.7 -1011.5,-1011.4 0,-557.7 453.8,-1011.4 1011.5,-1011.4 557.6,0 1011.4,453.7 1011.4,1011.4 0,557.7 -453.8,1011.4 -1011.4,1011.4 m 0,-2072.8 c -585.3,0 -1061.5,476.2 -1061.5,1061.4 0,585.3 476.2,1061.4 1061.5,1061.4 585.2,0 1061.4,-476.1 1061.4,-1061.4 0,-585.2 -476.2,-1061.4 -1061.4,-1061.4"
         style="fill:#000072;fill-opacity:1;fill-rule:nonzero;stroke:none"
         id="path120" />
      <path
         d="m 16360.2,14465.1 c -62.1,119.8 -97.2,255.7 -97.2,399.6 0,121.9 25.2,238.1 70.6,343.5 l 26.6,-743.1"
         style="fill:#d0abb3;fill-opacity:1;fill-rule:nonzero;stroke:none"
         id="path122" />
      <path
         d="m 17134.6,15736.3 c -480.6,0 -871.6,-391 -871.6,-871.6 0,-480.6 391,-871.5 871.6,-871.5 480.5,0 871.5,390.9 871.5,871.5 0,480.6 -391,871.6 -871.5,871.6 m 0,-2072.9 c -662.4,0 -1201.4,538.9 -1201.4,1201.3 0,662.4 539,1201.3 1201.4,1201.3 662.4,0 1201.3,-538.9 1201.3,-1201.3 0,-662.4 -538.9,-1201.3 -1201.3,-1201.3"
         style="fill:#000072;fill-opacity:1;fill-rule:nonzero;stroke:none"
         id="path124" />
      <path
         d="m 18770.8,19870.4 c -597.1,258.2 -1206,433.6 -1832.6,433.6 -258,0 -519,-29.8 -783.3,-95.7 l -95.9,2684.1 h 2711.8 v -3022"
         style="fill:#7cddff;fill-opacity:1;fill-rule:nonzero;stroke:none"
         id="path126" />
      <path
         d="m 18888.2,19818.5 c -39,17.6 -78.3,35 -117.4,51.9 v 3022 h 7.4 l 110,-3073.9"
         style="fill:#404095;fill-opacity:1;fill-rule:nonzero;stroke:none"
         id="path128" />
      <path
         d="m 17812.9,10883.9 c -23,0 -46,0.5 -69.2,1.7 -9.1,0.5 -18.2,0.9 -27.3,1.4 -696.5,36 -1249.8,599.1 -1274.7,1296.1 l -62.5,1748.1 c 206.5,-167.4 469.4,-267.8 755.4,-267.8 662.4,0 1201.3,538.9 1201.3,1201.3 0,662.4 -538.9,1201.3 -1201.3,1201.3 -316.8,0 -605.2,-123.1 -820.1,-324.1 l -134.3,3759 c 403,165 797.1,235.7 1185.6,235.7 521.1,0 1031.5,-127.5 1537.1,-326.2 l 52.4,-1466 c -353.8,-209.3 -591.5,-594.8 -591.5,-1034.8 0,-470.6 272,-878.9 667.1,-1075.8 l 109.1,-3048.2 c -102.6,28.7 -210.8,44 -322.5,44 -662.4,0 -1201.3,-538.9 -1201.3,-1201.3 0,-280.3 96.5,-538.5 258,-743.1 -20.3,-0.9 -40.7,-1.3 -61.3,-1.3"
         style="fill:#fbac4d;fill-opacity:1;fill-rule:nonzero;stroke:none"
         id="path130" />
      <path
         d="m 18902.9,19410.4 c -505.6,198.7 -1016,326.2 -1537.1,326.2 -388.5,0 -782.6,-70.7 -1185.6,-235.7 l -13.2,369 c 262,72 520.7,104.4 777.3,104.4 661.5,0 1308.2,-215.6 1957.1,-524.1 l 1.5,-39.8"
         style="fill:#fddaaf;fill-opacity:1;fill-rule:nonzero;stroke:none"
         id="path132" />
      <path
         d="m 18901.4,19450.2 c -648.9,308.5 -1295.6,524.1 -1957.1,524.1 -256.6,0 -515.3,-32.4 -777.3,-104.4 l -12.1,338.4 c 264.3,65.9 525.3,95.7 783.3,95.7 626.6,0 1235.5,-175.4 1832.6,-433.6 39.1,-16.9 78.4,-34.3 117.4,-51.9 l 13.2,-368.3"
         style="fill:#404095;fill-opacity:1;fill-rule:nonzero;stroke:none"
         id="path134" />
      <path
         d="M 18778.2,22892.4 H 16059 l -5.9,165 h 2719.2 l 5.9,-165"
         style="fill:#404095;fill-opacity:1;fill-rule:nonzero;stroke:none"
         id="path136" />
      <path
         d="m 18259,10959.7 c -74,61.9 -137.6,135.9 -187.7,218.8 -20.4,81.1 -31.2,166 -31.2,253.3 0,150.3 32,293.5 90,422.2 8.9,-25.5 22.6,-49 40.9,-69.8 44.6,-50.2 109.6,-74.7 181.5,-74.7 90.5,0 191.8,38.9 276.9,114.3 152.2,135.7 193.6,337.3 92.8,450.8 -34.8,39.1 -81.5,62.7 -134.7,71.2 138.6,74.5 296.5,118.2 463.8,122.2 34.8,-9.7 68.5,-21.5 101.4,-35.2 l 5.5,-154.9 c 21.8,-607.9 -361.5,-1129 -899.2,-1318.2"
         style="fill:#b07481;fill-opacity:1;fill-rule:nonzero;stroke:none"
         id="path138" />
      <path
         d="m 18071.3,11178.5 c -79.5,131.4 -125.3,285.3 -125.3,449.8 0,480.6 391,871.5 871.5,871.5 81,0 159.4,-11.1 233.8,-31.8 -167.3,-4 -325.2,-47.7 -463.8,-122.2 53.2,-8.5 99.9,-32.1 134.7,-71.2 100.8,-113.5 59.4,-315.1 -92.8,-450.8 -85.1,-75.4 -186.4,-114.3 -276.9,-114.3 -71.9,0 -136.9,24.5 -181.5,74.7 -18.3,20.8 -32,44.3 -40.9,69.8 -58,-128.7 -90,-271.9 -90,-422.2 0,-87.3 10.8,-172.2 31.2,-253.3"
         style="fill:#dcc0c6;fill-opacity:1;fill-rule:nonzero;stroke:none"
         id="path140" />
      <path
         d="m 17874.2,10885.2 c -161.5,204.6 -258,462.8 -258,743.1 0,662.4 538.9,1201.3 1201.3,1201.3 111.7,0 219.9,-15.3 322.5,-44 l 12.7,-352.8 c -32.9,13.7 -66.6,25.5 -101.4,35.2 -74.4,20.7 -152.8,31.8 -233.8,31.8 -480.5,0 -871.5,-390.9 -871.5,-871.5 0,-164.5 45.8,-318.4 125.3,-449.8 50.1,-82.9 113.7,-156.9 187.7,-218.8 -121.4,-42.7 -250.6,-68.4 -384.8,-74.5"
         style="fill:#404095;fill-opacity:1;fill-rule:nonzero;stroke:none"
         id="path142" />
      <path
         d="m 19016.6,16232.8 c -78.3,63.6 -145.4,140.4 -197.8,227.1 -20.3,81.1 -31.1,165.9 -31.1,253.3 0,150.2 32,293.5 89.9,422.1 9,-25.5 22.6,-49 41,-69.8 19.8,-22.2 43.5,-39.4 70.1,-51.6 l 27.9,-781.1"
         style="fill:#b07481;fill-opacity:1;fill-rule:nonzero;stroke:none"
         id="path144" />
      <path
         d="m 18818.8,16459.9 c -79.5,131.4 -125.2,285.3 -125.2,449.7 0,250.6 106.2,476.7 276,635.9 l 19.1,-531.6 c -26.6,12.2 -50.3,29.4 -70.1,51.6 -18.4,20.8 -32,44.3 -41,69.8 -57.9,-128.6 -89.9,-271.9 -89.9,-422.1 0,-87.4 10.8,-172.2 31.1,-253.3"
         style="fill:#dcc0c6;fill-opacity:1;fill-rule:nonzero;stroke:none"
         id="path146" />
      <path
         d="m 19030.9,15833.8 c -395.1,196.9 -667.1,605.2 -667.1,1075.8 0,440 237.7,825.5 591.5,1034.8 l 14.3,-398.9 c -169.8,-159.2 -276,-385.3 -276,-635.9 0,-164.4 45.7,-318.3 125.2,-449.7 52.4,-86.7 119.5,-163.5 197.8,-227.1 l 14.3,-399"
         style="fill:#404095;fill-opacity:1;fill-rule:nonzero;stroke:none"
         id="path148" />
      <path
         d="m 17134.6,13993.2 c -316.2,0 -593.5,169.2 -746.3,421.7 -20.4,81.1 -31.2,166 -31.2,253.4 0,150.3 32,293.5 90,422.1 8.9,-25.4 22.6,-49 41,-69.7 44.6,-50.3 109.6,-74.8 181.4,-74.8 90.5,0 191.9,39 277,114.3 152.1,135.7 193.6,337.4 92.8,450.9 -34.9,39.1 -81.5,62.6 -134.8,71.1 138.7,74.5 296.5,118.2 463.9,122.2 367.4,-102.4 637.7,-440.1 637.7,-839.7 0,-480.6 -391,-871.5 -871.5,-871.5"
         style="fill:#b07481;fill-opacity:1;fill-rule:nonzero;stroke:none"
         id="path150" />
      <path
         d="m 16388.3,14414.9 c -9.9,16.4 -19.3,33.2 -28.1,50.2 l -26.6,743.1 c 133.6,310.3 442.3,528.1 801,528.1 80.9,0 159.3,-11.1 233.8,-31.9 -167.4,-4 -325.2,-47.7 -463.9,-122.2 53.3,-8.5 99.9,-32 134.8,-71.1 100.8,-113.5 59.3,-315.2 -92.8,-450.9 -85.1,-75.3 -186.5,-114.3 -277,-114.3 -71.8,0 -136.8,24.5 -181.4,74.8 -18.4,20.7 -32.1,44.3 -41,69.7 -58,-128.6 -90,-271.8 -90,-422.1 0,-87.4 10.8,-172.3 31.2,-253.4"
         style="fill:#dcc0c6;fill-opacity:1;fill-rule:nonzero;stroke:none"
         id="path152" />
      <path
         d="m 17134.6,13663.4 c -286,0 -548.9,100.4 -755.4,267.8 l -19,533.9 c 8.8,-17 18.2,-33.8 28.1,-50.2 152.8,-252.5 430.1,-421.7 746.3,-421.7 480.5,0 871.5,390.9 871.5,871.5 0,399.6 -270.3,737.3 -637.7,839.7 -74.5,20.8 -152.9,31.9 -233.8,31.9 -358.7,0 -667.4,-217.8 -801,-528.1 l -19.1,533.7 c 214.9,201 503.3,324.1 820.1,324.1 662.4,0 1201.3,-538.9 1201.3,-1201.3 0,-662.4 -538.9,-1201.3 -1201.3,-1201.3"
         style="fill:#404095;fill-opacity:1;fill-rule:nonzero;stroke:none"
         id="path154" />
      <path
         d="m 21929,14214.2 c -28.8,-411.8 -386,-722.3 -797.9,-693.5 -411.8,28.8 -722.3,386 -693.5,797.8 28.8,411.9 386,722.4 797.8,693.6 411.9,-28.8 722.4,-386 693.6,-797.9"
         style="fill:#964557;fill-opacity:1;fill-rule:nonzero;stroke:none"
         id="path156" />
      <path
         d="m 21182.2,14988.9 c -174.1,0 -340.3,-61.9 -473,-177.2 -145.6,-126.7 -233.2,-302.4 -246.7,-494.9 -27.8,-397.4 273,-743.4 670.4,-771.2 192.8,-13.5 378.8,48.9 524.4,175.5 145.7,126.6 233.3,302.4 246.7,494.9 13.5,192.5 -48.8,378.8 -175.4,524.4 -126.7,145.7 -302.4,233.3 -494.9,246.7 -17.2,1.2 -34.4,1.8 -51.5,1.8 m 2.3,-1495.1 c -18.3,0 -36.7,0.7 -55.1,1.9 -424.9,29.8 -746.5,399.6 -716.8,824.6 14.4,205.8 108.1,393.7 263.8,529.1 155.8,135.4 354.9,201.9 560.7,187.6 205.9,-14.4 393.8,-108 529.2,-263.8 135.4,-155.7 202,-354.8 187.6,-560.7 l -24.9,1.8 24.9,-1.8 c -14.4,-205.8 -108,-393.8 -263.8,-529.1 -141.8,-123.3 -319.6,-189.6 -505.6,-189.6"
         style="fill:#000072;fill-opacity:1;fill-rule:nonzero;stroke:none"
         id="path158" />
      <path
         d="m 20763.6,13678.5 c -110.8,79.3 -197.7,188.9 -249.5,315.7 -27.5,87 -39.5,180.6 -32.7,277.1 27.6,394.1 355.9,695.5 745,695.5 17.5,0 35.1,-0.6 52.9,-1.9 81.1,-5.7 158.4,-24.1 229.8,-53.2 82.5,-41.7 157,-99.4 219.5,-171.3 1.1,-1.3 2.2,-2.6 3.3,-3.9 -83.9,41.2 -177.1,67.1 -276.1,74 -17.7,1.3 -35.4,1.9 -52.9,1.9 -108,0 -211.6,-23.3 -305.1,-65.4 37.9,-8.8 70.2,-28.1 93.3,-58 66.9,-86.7 26.9,-229.7 -89.4,-319.7 -59.6,-45.8 -127.6,-68.8 -188.6,-68.8 -58.4,-0.1 -110.5,21 -143.2,63.4 -12.2,15.9 -20.8,33.5 -26,52.2 -48.1,-89.6 -78.4,-191 -86,-299.1 -11.1,-159.6 28.7,-311.1 105.7,-438.5"
         style="fill:#d0abb3;fill-opacity:1;fill-rule:nonzero;stroke:none"
         id="path160" />
      <path
         d="m 20829.6,13585.9 c -149.2,93.9 -261.9,238.7 -315.5,408.3 51.8,-126.8 138.7,-236.4 249.5,-315.7 19.7,-32.6 41.7,-63.5 66,-92.6 m 971.5,1111.9 c -22.2,14.1 -45.3,27 -69.2,38.7 -1.1,1.3 -2.2,2.6 -3.3,3.9 -62.5,71.9 -137,129.6 -219.5,171.3 114.7,-46.7 214.6,-120.9 292,-213.9"
         style="fill:#8c8cbf;fill-opacity:1;fill-rule:nonzero;stroke:none"
         id="path162" />
      <path
         d="m 21182.4,14872.6 c -146.1,0 -285.6,-52 -396.8,-148.7 -122.3,-106.3 -195.8,-253.7 -207,-415.2 -23.4,-333.5 229,-623.7 562.4,-647.1 161.3,-10.9 317.8,41 440,147.3 122.2,106.2 195.7,253.7 207,415.2 11.3,161.6 -41,317.8 -147.2,440 -106.3,122.2 -253.7,195.7 -415.2,207 -14.5,1 -28.9,1.5 -43.2,1.5 z m 2.2,-1495.1 c -21,0 -42.1,0.7 -63.3,2.2 -488.9,34.2 -858.9,459.8 -824.7,948.7 16.5,236.8 124.3,453 303.5,608.8 179.2,155.8 408.4,232.9 645.2,215.8 236.8,-16.5 453,-124.3 608.8,-303.5 155.8,-179.1 232.4,-408.2 215.9,-645.1 -16.6,-236.9 -124.4,-453.1 -303.6,-608.8 -163.1,-141.9 -367.7,-218.1 -581.8,-218.1"
         style="fill:#000072;fill-opacity:1;fill-rule:nonzero;stroke:none"
         id="path164" />
      <path
         d="m 24327.9,15470.2 c 0,-412.9 -334.7,-747.6 -747.5,-747.6 -412.9,0 -747.5,334.7 -747.5,747.6 0,412.8 334.6,747.5 747.5,747.5 412.8,0 747.5,-334.7 747.5,-747.5"
         style="fill:#964557;fill-opacity:1;fill-rule:nonzero;stroke:none"
         id="path166" />
      <path
         d="m 23580.4,16192.7 c -398.4,0 -722.5,-324.1 -722.5,-722.5 0,-398.4 324.1,-722.6 722.5,-722.6 398.4,0 722.5,324.2 722.5,722.6 0,398.4 -324.1,722.5 -722.5,722.5 m 0,-1495.1 c -426,0 -772.5,346.6 -772.5,772.6 0,426 346.5,772.5 772.5,772.5 426,0 772.5,-346.5 772.5,-772.5 0,-426 -346.5,-772.6 -772.5,-772.6"
         style="fill:#000072;fill-opacity:1;fill-rule:nonzero;stroke:none"
         id="path168" />
      <path
         d="m 22974.2,15475.8 c 0.5,53.6 8,105.5 21.6,154.9 l -21.6,-154.9"
         style="fill:#d0abb3;fill-opacity:1;fill-rule:nonzero;stroke:none"
         id="path170" />
      <path
         d="m 23580.4,16076.4 c -334.3,0 -606.2,-272 -606.2,-606.2 0,-334.3 271.9,-606.3 606.2,-606.3 334.2,0 606.2,272 606.2,606.3 0,334.2 -272,606.2 -606.2,606.2 m 0,-1495.1 c -490.1,0 -888.9,398.7 -888.9,888.9 0,490.1 398.8,888.8 888.9,888.8 490.1,0 888.8,-398.7 888.8,-888.8 0,-490.2 -398.7,-888.9 -888.8,-888.9"
         style="fill:#000072;fill-opacity:1;fill-rule:nonzero;stroke:none"
         id="path172" />
      <path
         d="m 22991.6,11628.3 c 0,-412.9 -334.6,-747.5 -747.5,-747.5 -412.8,0 -747.5,334.6 -747.5,747.5 0,412.8 334.7,747.5 747.5,747.5 412.9,0 747.5,-334.7 747.5,-747.5"
         style="fill:#964557;fill-opacity:1;fill-rule:nonzero;stroke:none"
         id="path174" />
      <path
         d="m 22244.1,12350.8 c -398.4,0 -722.5,-324.1 -722.5,-722.5 0,-398.4 324.1,-722.5 722.5,-722.5 398.4,0 722.5,324.1 722.5,722.5 0,398.4 -324.1,722.5 -722.5,722.5 m 0,-1495 c -426,0 -772.5,346.5 -772.5,772.5 0,426 346.5,772.5 772.5,772.5 426,0 772.5,-346.5 772.5,-772.5 0,-426 -346.5,-772.5 -772.5,-772.5"
         style="fill:#000072;fill-opacity:1;fill-rule:nonzero;stroke:none"
         id="path176" />
      <path
         d="m 21748.2,11280 c -69.5,98.6 -110.3,218.8 -110.3,348.3 0,334.3 272,606.2 606.2,606.2 80.5,0 157.4,-15.7 227.8,-44.4 -125.1,-1 -243.3,-32.8 -346.6,-88.3 38.4,-6.1 72,-23.1 97.2,-51.3 72.7,-81.9 42.8,-227.3 -66.9,-325.2 -61.4,-54.4 -134.5,-82.4 -199.8,-82.4 -51.8,0 -98.7,17.6 -130.9,53.9 -13.2,14.9 -23.1,31.9 -29.5,50.3 -41.8,-92.8 -64.9,-196.1 -64.9,-304.5 0,-55.8 6.1,-110.2 17.7,-162.6"
         style="fill:#d0abb3;fill-opacity:1;fill-rule:nonzero;stroke:none"
         id="path178" />
      <path
         d="m 22244.1,12234.5 c -334.2,0 -606.2,-271.9 -606.2,-606.2 0,-334.2 272,-606.2 606.2,-606.2 334.3,0 606.2,272 606.2,606.2 0,334.3 -271.9,606.2 -606.2,606.2 m 0,-1495 c -490.1,0 -888.9,398.7 -888.9,888.8 0,490.1 398.8,888.9 888.9,888.9 490.1,0 888.9,-398.8 888.9,-888.9 0,-490.1 -398.8,-888.8 -888.9,-888.8"
         style="fill:#000072;fill-opacity:1;fill-rule:nonzero;stroke:none"
         id="path180" />
      <path
         d="m 19427.3,8170.6 c -468.2,0 -914,12 -1312.7,36.1 114.4,6.9 228.8,14.8 343.1,23.6 415.4,-32.3 830.8,-51.6 1246.3,-57.7 -14.3,-0.4 -28.5,-0.7 -42.7,-1 -78.5,-0.7 -156.5,-1 -234,-1"
         style="fill:#8ea6d4;fill-opacity:1;fill-rule:nonzero;stroke:none"
         id="path182" />
      <path
         d="m 19704,8172.6 c -415.5,6.1 -830.9,25.4 -1246.3,57.7 0.4,0 0.7,0.1 1.1,0.1 420.8,-32.6 841.6,-51.6 1262.3,-57.4 -5.7,-0.1 -11.4,-0.3 -17.1,-0.4 m 128.6,3.5 c -379.6,13.7 -759.2,38.3 -1138.9,73.9 534.7,47.8 1069.7,117.4 1604.5,208.7 440.3,74.9 838,268 1161.1,545.2 598.3,45.8 1197.1,119.6 1791.3,220.8 705.3,120.6 1245.9,681.7 1345.3,1396.3 l 1007.7,7241.3 c 0.5,3.3 0.8,6.6 1.1,9.9 81.5,934.7 -151.2,1617.2 -691.7,2028.6 -320,243.6 -741.5,389 -1262.5,436.3 l 151.8,1091.1 c 7,573.8 -185.1,1074.1 -676.6,1464.2 h 3513.7 l -1723.5,-12386 c -145.1,-1043.5 -946.5,-1878.3 -1984.8,-2054.9 -889.9,-151.6 -2013.7,-243.4 -3098.5,-275.4"
         style="fill:#3893d4;fill-opacity:1;fill-rule:nonzero;stroke:none"
         id="path184" />
      <path
         d="m 19721.1,8173 c -420.7,5.8 -841.5,24.8 -1262.3,57.4 78.3,6.1 156.6,12.6 234.9,19.6 379.7,-35.6 759.3,-60.2 1138.9,-73.9 -37.2,-1.1 -74.3,-2.1 -111.5,-3.1"
         style="fill:#7ba4d4;fill-opacity:1;fill-rule:nonzero;stroke:none"
         id="path186" />
      <path
         d="m 25253.4,17981.3 c -38.2,1186.9 -719.8,1698.7 -1677,1823.2 l 28.4,204.3 c 464.2,-39.6 835.9,-162.9 1108.4,-370.4 427.4,-325.3 618.9,-878.1 570,-1644 -9.8,-4.4 -20,-8.8 -29.8,-13.1"
         style="fill:#ae652f;fill-opacity:1;fill-rule:nonzero;stroke:none"
         id="path188" />
      <path
         d="m 23903.4,17694.3 c -206.4,0 -410.6,19.1 -613,54.1 l 286,2056.1 c 957.2,-124.5 1638.8,-636.3 1677,-1823.2 -464.5,-201.4 -912.2,-287 -1350,-287"
         style="fill:#794743;fill-opacity:1;fill-rule:nonzero;stroke:none"
         id="path190" />
      <path
         d="m 25604.7,17872.2 c 4.4,56.6 -20.7,111.8 -66.8,145.7 -28.8,21.2 -63.1,32.1 -97.6,32.1 -24,0 -48,-5.3 -70.5,-15.9 -28.9,-13.7 -57.7,-26.9 -86.6,-39.7 48.9,765.9 -142.6,1318.7 -570,1644 -272.5,207.5 -644.2,330.8 -1108.4,370.4 l 45.7,328.3 c 521,-47.3 942.5,-192.7 1262.5,-436.3 540.5,-411.4 773.2,-1093.9 691.7,-2028.6"
         style="fill:#000072;fill-opacity:1;fill-rule:nonzero;stroke:none"
         id="path192" />
      <path
         d="m 21801.4,9364.4 c 252.2,327.1 422.7,720.6 482.5,1149.3 l 31.8,228.6 c 456.8,36.6 817.3,420 817.3,886 0,380.9 -240.8,706.6 -578.2,832.8 l 340,2443.9 c 163.2,-197.6 409.9,-323.7 685.6,-323.7 490.1,0 888.8,398.7 888.8,888.9 0,490.1 -398.7,888.8 -888.8,888.8 -187.6,0 -361.7,-58.4 -505.3,-157.9 l 151.7,1090.7 c 362.9,-102.1 731.8,-162.4 1108.5,-162.4 278.1,0.1 560.6,32.9 848.1,105.9 l -914.1,-6568.9 c -79.5,-571.6 -511.2,-1020.4 -1074.2,-1116.6 -462.6,-78.8 -928,-140.7 -1393.7,-185.4"
         style="fill:#ae652f;fill-opacity:1;fill-rule:nonzero;stroke:none"
         id="path194" />
      <path
         d="m 24335.3,17129.4 c -376.7,0 -745.6,60.3 -1108.5,162.4 l 18.5,132.4 c 218.9,-37.5 440.3,-58.1 664.9,-58.1 430.1,0 871.4,75.5 1326.5,252 l -53.3,-382.8 c -287.5,-73 -570,-105.8 -848.1,-105.9"
         style="fill:#b08f8a;fill-opacity:1;fill-rule:nonzero;stroke:none"
         id="path196" />
      <path
         d="m 21459.3,9003.9 c 126,108.1 240.7,228.9 342.1,360.5 465.7,44.7 931.1,106.6 1393.7,185.4 563,96.2 994.7,545 1074.2,1116.6 l 914.1,6568.9 53.3,382.8 c -455.1,-176.5 -896.4,-252 -1326.5,-252 -224.6,0 -446,20.6 -664.9,58.1 l 45.1,324.2 c 202.4,-35 406.6,-54.1 613,-54.1 437.8,0 885.5,85.6 1350,287 9.8,4.3 20,8.7 29.8,13.1 28.9,12.8 57.7,26 86.6,39.7 22.5,10.6 46.5,15.9 70.5,15.9 34.5,0 68.8,-10.9 97.6,-32.1 46.1,-33.9 71.2,-89.1 66.8,-145.7 -0.3,-3.3 -0.6,-6.6 -1.1,-9.9 L 24595.9,10621 c -99.4,-714.6 -640,-1275.7 -1345.3,-1396.3 -594.2,-101.2 -1193,-175 -1791.3,-220.8"
         style="fill:#000072;fill-opacity:1;fill-rule:nonzero;stroke:none"
         id="path198" />
      <path
         d="m 26639.4,22892.4 h -3513.7 c -69,54.7 -143.8,107.3 -224.8,157.6 h 3760.4 l -21.9,-157.6"
         style="fill:#000072;fill-opacity:1;fill-rule:nonzero;stroke:none"
         id="path200" />
      <path
         d="m 23580.4,14863.9 c -204.7,0 -386.1,102.1 -495.9,257.9 -11.6,52.4 -17.7,106.8 -17.7,162.7 0,108.4 23.1,211.7 64.9,304.4 6.4,-18.3 16.3,-35.3 29.5,-50.3 32.2,-36.2 79.1,-53.9 130.9,-53.9 65.2,0 138.3,28.1 199.7,82.5 109.8,97.8 139.7,243.3 67,325.1 -25.2,28.3 -58.8,45.2 -97.2,51.4 103.3,55.5 221.4,87.3 346.5,88.3 221.8,-90.2 378.5,-308.1 378.5,-561.8 0,-334.3 -272,-606.3 -606.2,-606.3"
         style="fill:#69305f;fill-opacity:1;fill-rule:nonzero;stroke:none"
         id="path202" />
      <path
         d="m 23084.5,15121.8 c -69.5,98.7 -110.3,218.9 -110.3,348.4 0,1.9 0,3.7 0,5.6 l 21.6,154.9 c 70.5,256.6 305.9,445.7 584.6,445.7 80.5,0 157.4,-15.8 227.7,-44.4 -125.1,-1 -243.2,-32.8 -346.5,-88.3 38.4,-6.2 72,-23.1 97.2,-51.4 72.7,-81.8 42.8,-227.3 -67,-325.1 -61.4,-54.4 -134.5,-82.5 -199.7,-82.5 -51.8,0 -98.7,17.7 -130.9,53.9 -13.2,15 -23.1,32 -29.5,50.3 -41.8,-92.7 -64.9,-196 -64.9,-304.4 0,-55.9 6.1,-110.3 17.7,-162.7"
         style="fill:#91779f;fill-opacity:1;fill-rule:nonzero;stroke:none"
         id="path204" />
      <path
         d="m 23580.4,14581.3 c -275.7,0 -522.4,126.1 -685.6,323.7 l 79.4,570.8 c 0,-1.9 0,-3.7 0,-5.6 0,-129.5 40.8,-249.7 110.3,-348.4 109.8,-155.8 291.2,-257.9 495.9,-257.9 334.2,0 606.2,272 606.2,606.3 0,253.7 -156.7,471.6 -378.5,561.8 -70.3,28.6 -147.2,44.4 -227.7,44.4 -278.7,0 -514.1,-189.1 -584.6,-445.7 l 79.3,570.4 c 143.6,99.5 317.7,157.9 505.3,157.9 490.1,0 888.8,-398.7 888.8,-888.8 0,-490.2 -398.7,-888.9 -888.8,-888.9"
         style="fill:#000072;fill-opacity:1;fill-rule:nonzero;stroke:none"
         id="path206" />
      <path
         d="m 22356.1,11032.5 158.3,1138.4 c 199,-99.6 335.9,-305.4 335.9,-542.6 0,-296 -213.3,-543.1 -494.2,-595.8"
         style="fill:#69305f;fill-opacity:1;fill-rule:nonzero;stroke:none"
         id="path208" />
      <path
         d="m 22315.7,10742.3 40.4,290.2 c 280.9,52.7 494.2,299.8 494.2,595.8 0,237.2 -136.9,443 -335.9,542.6 l 40.4,290.2 c 337.4,-126.2 578.2,-451.9 578.2,-832.8 0,-466 -360.5,-849.4 -817.3,-886"
         style="fill:#000072;fill-opacity:1;fill-rule:nonzero;stroke:none"
         id="path210" />
      <path
         d="m 13078.1,22892.4 1719.4,-12356 c 136.3,-980.5 879.4,-1750.1 1849,-1915.1 370.6,-63.4 745.3,-116.7 1114,-158.4 896.6,-102.3 1805.6,-143.3 2702,-122 958.9,22.4 1931.5,116.6 2890.9,280.4 969.7,165 1712.8,934.6 1849.1,1915.1 l 1719.4,12356 z M 19999.9,8005.6 c -758,0 -1521.7,43.4 -2276.6,129.6 -374.8,42.4 -755.7,96.6 -1132.2,161 -1111.9,189.2 -1964.1,1071.3 -2120.3,2194.8 l -1745.4,12543.6 c -6.6,47.2 7.6,95 38.9,130.9 31.4,36 76.7,56.7 124.4,56.7 h 14222.6 c 47.7,0 93,-20.7 124.4,-56.7 31.3,-35.9 45.5,-83.7 38.9,-130.9 L 25529.2,10491 C 25373,9367.5 24520.8,8485.4 23408.8,8296.2 22433.7,8129.8 21445,8034 20470.2,8011.2 c -156.4,-3.7 -313.3,-5.6 -470.3,-5.6"
         style="fill:#000072;fill-opacity:1;fill-rule:nonzero;stroke:none"
         id="path212" />
      <path
         d="m 19999,26066.7 c 196.9,-1570.6 -2095,-1716.2 -2282.6,-303"
         style="fill:#ffffff;fill-opacity:1;fill-rule:nonzero;stroke:none"
         id="path214" />
      <path
         d="m 18877.1,24765.3 c -537.4,0 -1096.6,325.2 -1185.5,995.1 l 49.6,6.6 c 93.9,-708.1 738.6,-1013.7 1297.4,-941.4 534.3,69 1030.8,478.5 935.6,1237.9 l 49.6,6.3 c 99.5,-793.6 -419.9,-1221.6 -978.8,-1293.8 -55.3,-7.1 -111.5,-10.7 -167.9,-10.7"
         style="fill:#000072;fill-opacity:1;fill-rule:nonzero;stroke:none"
         id="path216" />
      <path
         d="m 20010.9,26066.7 c -196.9,-1570.6 2095,-1716.2 2282.6,-303"
         style="fill:#ffffff;fill-opacity:1;fill-rule:nonzero;stroke:none"
         id="path218" />
      <path
         d="m 21132.8,24765.3 c -56.4,0 -112.5,3.6 -167.9,10.7 -558.9,72.2 -1078.3,500.1 -978.8,1293.8 l 49.7,-6.3 c -95.3,-759.4 401.2,-1168.9 935.5,-1237.9 558.7,-72.4 1203.4,233.3 1297.4,941.4 l 49.6,-6.6 c -88.9,-669.8 -648.1,-995.1 -1185.5,-995.1"
         style="fill:#000072;fill-opacity:1;fill-rule:nonzero;stroke:none"
         id="path220" />
      <path
         d="m 20172.6,26088.4 c 18.7,-165.6 17.4,-337.8 -19.6,-508.1 -36.4,-169.9 -110.8,-336.1 -220,-475.9 -108.7,-140.4 -249.5,-253.1 -403.5,-332.6 -154.3,-79.8 -321.7,-127.9 -491,-147 -169.6,-19.2 -341.2,-8.5 -508.8,27.5 -167,36.4 -333.3,99.5 -476.3,203.5 -142.5,103.3 -259.5,245.4 -328.8,404.9 -68.7,159.7 -93.7,333 -66.1,495.3 5.7,33.2 37.2,55.6 70.5,49.9 19.6,-3.3 35.4,-15.7 43.9,-32 l 1.3,-2.6 c 69.5,-135.6 136.4,-254.5 218.8,-355.3 80.9,-101.1 172.3,-185.4 275.6,-255.6 102.6,-70 217.3,-129.2 342.9,-162.6 125.4,-33.5 258.8,-39.5 388.2,-25.2 259.2,28.4 505.8,150.1 656.8,346.3 75.9,97.5 128,212.4 154.6,336.4 27,124.1 28.9,256.3 14.2,389.6 l -0.5,4.8 c -10.6,96 58.7,182.5 154.8,193.1 96,10.5 182.4,-58.3 193,-154.4"
         style="fill:#000072;fill-opacity:1;fill-rule:nonzero;stroke:none"
         id="path222" />
      <path
         d="m 21007.9,24790 c 0,-263.6 -69.1,-478.7 -183,-645.4 -386,-570.8 -1287.1,-570.8 -1673.7,0 -113.4,166.7 -182.4,381.8 -182.4,645.4 451.4,88.5 824.7,270.3 1042.3,638.2 123,-406.7 487.8,-589.1 996.8,-638.2"
         style="fill:#000072;fill-opacity:1;fill-rule:nonzero;stroke:none"
         id="path224" />
      <path
         d="m 20824.9,24084.1 c -386,-570.9 -1287.1,-570.9 -1673.7,0 387.2,570.2 1287.1,570.2 1673.7,0"
         style="fill:#ff2c4b;fill-opacity:1;fill-rule:nonzero;stroke:none"
         id="path226" />
      <path
         d="m 20184.6,26044.9 c -14.7,-133.3 -12.8,-265.5 14.2,-389.6 26.6,-124 78.7,-238.9 154.6,-336.4 150.9,-196.2 397.6,-317.9 656.8,-346.3 129.4,-14.3 262.8,-8.3 388.2,25.2 125.6,33.4 240.3,92.6 342.9,162.6 103.3,70.2 194.7,154.5 275.6,255.6 82.3,100.8 149.3,219.7 218.8,355.3 l 1.1,2.3 c 15.4,30 52.2,41.8 82.2,26.5 17.7,-9.1 29.1,-25.9 32.3,-44.1 27.7,-162.3 2.7,-335.6 -66.1,-495.3 -69.2,-159.5 -186.2,-301.6 -328.7,-404.9 -143,-104 -309.3,-167.1 -476.3,-203.5 -167.6,-36 -339.3,-46.7 -508.8,-27.5 -169.3,19.1 -336.7,67.2 -491,147 -154,79.5 -294.8,192.2 -403.5,332.6 -109.2,139.8 -183.6,306 -220,475.9 -37,170.3 -38.3,342.5 -19.6,508.1 10.8,96.1 97.5,165.1 193.5,154.3 96,-10.8 165.1,-97.5 154.3,-193.5 l -0.5,-4.3"
         style="fill:#000072;fill-opacity:1;fill-rule:nonzero;stroke:none"
         id="path228" />
      <path
         d="m 21071.8,26567.8 c 0,-370.8 -479.9,-895.1 -1071.8,-895.1 -591.9,0 -1071.8,524.3 -1071.8,895.1 0,370.7 479.9,495.4 1071.8,495.4 591.9,0 1071.8,-124.7 1071.8,-495.4"
         style="fill:#000072;fill-opacity:1;fill-rule:nonzero;stroke:none"
         id="path230" />
      <path
         d="m 19988.2,23551.5 c -588.5,0 -1184.3,425.4 -1184.3,1238.5 0,91 73.8,164.9 164.9,164.9 91,0 164.9,-73.9 164.9,-164.9 0,-624.4 442.9,-908.7 854.5,-908.7 411.6,0 854.6,284.3 854.6,908.7 0,91 73.8,164.9 164.9,164.9 91,0 164.8,-73.9 164.8,-164.9 0,-813.1 -595.8,-1238.5 -1184.3,-1238.5"
         style="fill:#000072;fill-opacity:1;fill-rule:nonzero;stroke:none"
         id="path232" />
      <path
         d="m 15822.3,28271.2 c -540.9,-1052.2 -215.2,-1867.4 366.7,-2224.3 388.8,-238.5 898,-89.2 1103.4,318.1 307.8,610.5 699.6,1134.6 1186.7,1560.4 285.3,249.5 358.8,672.1 155.4,992 -375.4,590.1 -1278.1,724.3 -2063.3,208.9 -321.8,-211.3 -572.9,-512.7 -748.9,-855.1"
         style="fill:#60547b;fill-opacity:1;fill-rule:nonzero;stroke:none"
         id="path234" />
      <path
         d="m 18126.5,27349.1 c -101.7,-548.6 -490.4,-936.6 -868.2,-866.6 -377.9,70 -601.7,571.5 -500.1,1120.1 101.7,548.6 490.4,936.6 868.2,866.6 377.8,-70 601.7,-571.5 500.1,-1120.1"
         style="fill:#ffffff;fill-opacity:1;fill-rule:nonzero;stroke:none"
         id="path236" />
      <path
         d="m 17537,28459.9 c -149.9,0 -301.9,-70.7 -435.9,-204.4 -161.4,-161.2 -277.1,-394.2 -325.7,-656.1 -99.7,-538.2 118.4,-1031.6 486.1,-1099.7 367.5,-68.1 748,314.4 847.7,852.6 48.5,261.9 24,520.9 -69,729.2 -92,206.1 -240.1,337.7 -417,370.5 -28.6,5.2 -57.4,7.9 -86.2,7.9 z m -190.5,-2003.1 c -30.4,0 -60.9,2.7 -91.4,8.4 -386.8,71.7 -617.4,583.4 -514.1,1140.6 49.8,268.8 168.9,508.3 335.4,674.5 168.1,167.9 364.7,241.2 553.2,206.1 188.6,-34.9 345.8,-173.6 442.7,-390.6 95.8,-214.8 121.2,-481.1 71.4,-749.9 -95.1,-513.4 -440.9,-889.1 -797.2,-889.1"
         style="fill:#000072;fill-opacity:1;fill-rule:nonzero;stroke:none"
         id="path238" />
      <path
         d="m 18126.5,27349.1 c -101.7,-548.6 -490.4,-936.6 -868.2,-866.6 -377.9,70 -601.7,571.5 -500.1,1120.1 101.7,548.6 490.4,936.6 868.2,866.6 377.8,-70 601.7,-571.5 500.1,-1120.1"
         style="fill:#ffffff;fill-opacity:1;fill-rule:nonzero;stroke:none"
         id="path240" />
      <path
         d="m 17537,28459.9 c -149.9,0 -301.9,-70.7 -435.9,-204.4 -161.4,-161.2 -277.1,-394.2 -325.7,-656.1 -99.7,-538.2 118.4,-1031.6 486.1,-1099.7 367.5,-68.1 748,314.4 847.7,852.6 48.5,261.9 24,520.9 -69,729.2 -92,206.1 -240.1,337.7 -417,370.5 -28.6,5.2 -57.4,7.9 -86.2,7.9 z m -190.5,-2003.1 c -30.4,0 -60.9,2.7 -91.4,8.4 -386.8,71.7 -617.4,583.4 -514.1,1140.6 49.8,268.8 168.9,508.3 335.4,674.5 168.1,167.9 364.7,241.2 553.2,206.1 188.6,-34.9 345.8,-173.6 442.7,-390.6 95.8,-214.8 121.2,-481.1 71.4,-749.9 -95.1,-513.4 -440.9,-889.1 -797.2,-889.1"
         style="fill:#000072;fill-opacity:1;fill-rule:nonzero;stroke:none"
         id="path242" />
      <path
         d="m 18123.6,27333.4 c -82.8,-446.6 -399.2,-762.4 -706.8,-705.4 -307.5,57 -489.8,465.2 -407,911.8 82.7,446.6 399.1,762.4 706.7,705.5 307.6,-57 489.8,-465.3 407.1,-911.9"
         style="fill:#000072;fill-opacity:1;fill-rule:nonzero;stroke:none"
         id="path244" />
      <path
         d="m 17537.5,28687.9 v 0 c -459.1,0 -873.9,-440.3 -986.3,-1046.9 -56.8,-306.9 -26.6,-613.6 85,-863.8 121.8,-272.7 334.5,-455.5 583.7,-501.7 41.9,-7.8 84.7,-11.7 127.3,-11.7 459.1,0 873.9,440.3 986.2,1046.9 124.7,673.1 -169,1272.9 -668.7,1365.5 -41.8,7.8 -84.6,11.7 -127.2,11.7 z m -0.1,-210.5 c 29.7,0 59.3,-2.7 89,-8.2 377.8,-70 601.7,-571.5 500.1,-1120.1 -93.7,-505.6 -431.2,-874.8 -779.3,-874.8 -29.6,0 -59.3,2.7 -88.9,8.2 -377.8,70 -601.7,571.5 -500.1,1120.1 93.7,505.6 431.2,874.8 779.2,874.8"
         style="fill:#000072;fill-opacity:1;fill-rule:nonzero;stroke:none"
         id="path246" />
      <path
         d="m 17526.7,27719.5 c -25.6,-138.5 -158.6,-229.9 -297.1,-204.2 -138.4,25.6 -229.8,158.6 -204.2,297.1 25.7,138.4 158.7,229.8 297.1,204.2 138.5,-25.7 229.9,-158.7 204.2,-297.1"
         style="fill:#ffffff;fill-opacity:1;fill-rule:nonzero;stroke:none"
         id="path248" />
      <g
         id="g250">
        <g
           id="g252"
           clip-path="url(#clipPath256)">
          <path
             d="m 19528,26544.3 h 818.898 v 223.301 H 19528 Z"
             style="fill:#8080b9;fill-opacity:1;fill-rule:nonzero;stroke:none"
             id="path258" />
        </g>
      </g>
      <path
         d="m 26241.9,27503 c -394.9,668.2 -897,1274.2 -1488.7,1789 444,-318.8 1061.3,-689.4 1531.8,-689.4 253.3,0 463.9,107.3 582.1,388 3.4,-67.7 2.4,-136.3 -3,-205.6 -34.6,-441.9 -248.7,-881.7 -622.2,-1282 m -2041.8,2224.5 c -5.6,4 -11.1,7.9 -16.7,11.8 l -1.8,4.5 c 0,0 6.4,-5.7 18.5,-16.3"
         style="fill:#433b78;fill-opacity:1;fill-rule:nonzero;stroke:none"
         id="path260" />
      <path
         d="m 26144.7,27403.2 c -48,19.5 -101.1,46.4 -107.5,72.6 -12.2,49.2 -249.7,553.9 -249.7,553.9 l -636.8,652.4 -349.1,396.6 -498.1,367.6 -120.1,293 c 5.6,-3.9 11.1,-7.8 16.7,-11.8 61.7,-53.8 273,-234.4 553.1,-435.5 591.7,-514.8 1093.8,-1120.8 1488.7,-1789 -31.3,-33.5 -63.7,-66.8 -97.2,-99.8"
         style="fill:#000072;fill-opacity:1;fill-rule:nonzero;stroke:none"
         id="path262" />
      <path
         d="m 26225,27375 c 0,0 -38.2,11.2 -80.3,28.2 33.5,33 65.9,66.3 97.2,99.8 373.5,400.3 587.6,840.1 622.2,1282 5.4,69.3 6.4,137.9 3,205.6 29.2,69.3 52.7,149.3 69.9,240.7 l 96.4,-360.9 -51.8,-390.3 -278.6,-714.2 -478,-390.9"
         style="fill:#000072;fill-opacity:1;fill-rule:nonzero;stroke:none"
         id="path264" />
      <path
         d="m 13761.8,27509.4 c -541.8,583.2 -688.3,1185.7 -593.8,1684.4 l 10,37.5 c 86.6,-461.8 336.2,-628.7 652,-628.7 336.6,0.1 748.4,189.7 1118.1,414.4 -461.6,-449.4 -860.3,-957.4 -1186.3,-1507.6"
         style="fill:#433b78;fill-opacity:1;fill-rule:nonzero;stroke:none"
         id="path266" />
      <path
         d="m 13893.1,27375.9 c -46.1,44.3 -89.9,88.9 -131.3,133.5 326,550.2 724.7,1058.2 1186.3,1507.6 537,326.4 985.3,726.8 985.3,726.8 l -121.9,-297.5 -498.1,-367.6 -349.1,-396.6 -636.8,-652.4 c 0,0 -237.5,-504.7 -249.6,-553.9 -11.2,-45.2 -161.2,-92.7 -184.8,-99.9"
         style="fill:#000072;fill-opacity:1;fill-rule:nonzero;stroke:none"
         id="path268" />
      <path
         d="m 13890,27375 -478,390.9 -278.6,714.2 -51.8,390.3 86.4,323.4 c -94.5,-498.7 52,-1101.2 593.8,-1684.4 41.4,-44.6 85.2,-89.2 131.3,-133.5 -2,-0.6 -3.1,-0.9 -3.1,-0.9"
         style="fill:#000072;fill-opacity:1;fill-rule:nonzero;stroke:none"
         id="path270" />
      <path
         d="m 20000,3150 c -3278.5,0 -5936.2,492.5 -5936.2,1100 0,607.5 2657.7,1100 5936.2,1100 3278.5,0 5936.2,-492.5 5936.2,-1100 0,-607.5 -2657.7,-1100 -5936.2,-1100"
         style="fill:#a3bee3;fill-opacity:1;fill-rule:nonzero;stroke:none"
         id="path272" />
    </g>
    <path
       style="fill:#ab7e4f;stroke:#000000;stroke-width:5.89938"
       d="M 2.5965596,2666.6667 V 0 H 2666.6667 5330.7369 V 2666.6667 5333.3335 H 2666.6667 2.5965596 Z M 2921.1296,4907.0346 c 316.4019,-19.2005 540.0844,-77.0801 540.0844,-139.7511 0,-4.9421 -4.8447,-15.1446 -10.7661,-22.6724 -103.156,-131.1416 -1008.8122,-172.388 -1427.2262,-65.0003 -93.2916,23.9436 -151.1022,57.3711 -151.1022,87.3708 0,39.4851 101.8796,83.0754 254.4628,108.8748 217.853,36.8354 511.4645,48.3567 794.5473,31.1782 z m 4.7405,-651.2131 c 99.128,-9.914 201.5971,-25.6631 239.3361,-36.785 104.0401,-30.6613 191.9472,-116.9676 225.1891,-221.0884 11.0727,-34.6821 37.0687,-210.6265 129.5607,-876.8834 l 115.7085,-833.4957 24.0689,-7.7896 c 32.3154,-10.4587 53.7086,-27.1919 66.2876,-51.8487 9.2974,-18.2245 10.4283,-30.5639 10.4283,-113.7862 0,-53.3269 -2.368,-99.6124 -5.5235,-107.9641 -13.1204,-34.7261 -56.9684,-63.6318 -96.8404,-63.8398 -21.3639,-0.1111 -22,-0.6254 -27.4553,-22.1847 -10.25,-40.5085 -42.2684,-130.6787 -60.1903,-169.5078 -9.7434,-21.1098 -17.7153,-40.5964 -17.7153,-43.3036 0,-2.7071 10.6169,-16.9837 23.5931,-31.7256 29.1405,-33.1059 61.7897,-96.8747 70.106,-136.9279 3.6018,-17.347 5.1917,-50.2856 3.7542,-77.7782 -2.1509,-41.1388 -5.0807,-53.1364 -21.3323,-87.3575 -70.7843,-149.0518 -253.3382,-181.7268 -406.1351,-72.6933 l -32.6884,23.3261 -62.0945,-31.212 c -65.618,-32.9831 -178.6514,-72.9369 -236.5024,-83.5964 l -34.5785,-6.3713 V 955.73669 c 0,-246.10868 -0.055,-247.38063 -11.6846,-270.42146 -7.6989,-15.25339 -18.77,-27.11354 -32.4569,-34.77022 -19.5283,-10.92445 -26.8381,-11.62049 -122.0384,-11.62049 -95.4939,0 -102.4437,0.66716 -121.9324,11.70493 -11.5876,6.56291 -25.8087,20.78396 -32.3716,32.37157 -11.692,20.64395 -11.705,20.9411 -11.7903,270.33702 l -0.086,249.67036 -35.0535,6.3639 c -56.6699,10.2883 -168.1697,49.8456 -235.5018,83.55 l -62.5542,31.3128 -32.8801,-23.4627 c -136.6685,-97.5247 -294.1484,-83.3301 -382.7632,34.5007 -33.288,44.2628 -42.7267,76.2301 -42.744,144.7659 -0.016,52.684 1.64,63.919 14.0307,95.3503 15.0294,38.125 51.6954,96.8707 72.8242,116.6781 l 12.9002,12.0933 -19.8236,42.4345 c -19.5366,41.8203 -51.3124,130.4601 -62.2182,173.5607 -5.4553,21.5593 -6.0914,22.0734 -27.4553,22.1847 -39.872,0.2078 -83.72,29.1137 -96.8404,63.8398 -3.1555,8.3517 -5.5235,54.6372 -5.5235,107.9641 0,83.2223 1.1309,95.5617 10.4283,113.7862 12.5828,24.6642 33.9776,41.3939 66.3068,51.8487 l 24.088,7.7896 115.6954,833.4957 c 92.9841,669.879 118.4384,842.09 129.6695,877.2771 33.0149,103.4364 121.0175,189.7726 225.0551,220.7936 15.7092,4.6841 67.1211,14.1165 114.2486,20.961 73.9616,10.7416 124.2818,15.756 257.0594,25.6161 56.3359,4.1835 310.8412,-2.3307 386.4348,-9.891 z"
       id="path25756"
       transform="matrix(0.75000002,0,0,-0.75000002,0,4000.0001)" />
    <path
       style="fill:#fcfcd8;stroke:#000000;stroke-width:5.89938"
       d="m 2412.2039,4901.7539 c -298.5412,-19.5547 -514.1323,-72.0526 -532.4117,-129.646 -6.7031,-21.1196 29.0243,-47.4193 97.0211,-71.4192 294.176,-103.8312 1121.8359,-100.7125 1397.7155,5.2669 40.8804,15.7042 81.4921,46.6761 81.4921,62.1488 0,12.786 -26.7441,34.1806 -63.6386,50.9094 -85.4816,38.7592 -268.1227,69.9888 -486.8321,83.2429 -99.2603,6.0153 -398.4901,5.7104 -493.3463,-0.5028 z"
       id="path25758"
       transform="matrix(0.75000002,0,0,-0.75000002,0,4000.0001)" />
  </g>
</svg>
